<svg width="326" height="291" viewBox="0 0 326 291" fill="none" xmlns="http://www.w3.org/2000/svg">
<g clip-path="url(#clip0_1_2826)">
<rect x="0.833252" y="0.5" width="325" height="290" fill="white"/>
<rect width="299" height="155" transform="translate(14.3333 11.5)" fill="#F1F5F9"/>
<circle cx="38.3333" cy="35.5" r="18" fill="#F8EDE3"/>
<path d="M46.9883 41.9753L46.105 36.5261C46.0918 36.4404 46.0171 36.3789 45.9314 36.3789H40.1833C40.0977 36.3789 40.0229 36.4404 40.0098 36.5261L39.1265 41.9753C39.1243 41.9841 39.1243 41.9951 39.1243 42.0039C39.1243 42.1006 39.2034 42.1797 39.3 42.1797H46.8147C46.8235 42.1797 46.8345 42.1797 46.8433 42.1775C46.9377 42.1621 47.0037 42.072 46.9883 41.9753ZM36.6567 36.5261C36.6436 36.4404 36.5688 36.3789 36.4832 36.3789H30.7351C30.6494 36.3789 30.5747 36.4404 30.5615 36.5261L29.6782 41.9753C29.676 41.9841 29.676 41.9951 29.676 42.0039C29.676 42.1006 29.7551 42.1797 29.8518 42.1797H37.3665C37.3752 42.1797 37.3862 42.1797 37.395 42.1775C37.4917 42.1621 37.5554 42.072 37.54 41.9753L36.6567 36.5261ZM34.5979 34.6211H42.1125C42.1213 34.6211 42.1323 34.6211 42.1411 34.6189C42.2378 34.6035 42.3015 34.5134 42.2861 34.4167L41.4028 28.9675C41.3896 28.8818 41.3149 28.8203 41.2292 28.8203H35.4812C35.3955 28.8203 35.3208 28.8818 35.3076 28.9675L34.4243 34.4167C34.4221 34.4255 34.4221 34.4365 34.4221 34.4453C34.4221 34.542 34.5012 34.6211 34.5979 34.6211Z" fill="#151515"/>
<path d="M74.1923 42.77C73.2743 42.77 72.4463 42.614 71.7083 42.302C70.9763 41.99 70.3703 41.546 69.8903 40.97C69.4163 40.388 69.1073 39.701 68.9633 38.909L70.6193 38.648C70.8293 39.464 71.2643 40.103 71.9243 40.565C72.5903 41.021 73.3733 41.249 74.2733 41.249C74.8553 41.249 75.3803 41.159 75.8483 40.979C76.3223 40.793 76.6973 40.529 76.9733 40.187C77.2493 39.845 77.3873 39.44 77.3873 38.972C77.3873 38.684 77.3363 38.438 77.2343 38.234C77.1383 38.024 77.0033 37.847 76.8293 37.703C76.6613 37.553 76.4693 37.427 76.2533 37.325C76.0373 37.223 75.8123 37.139 75.5783 37.073L72.2753 36.092C71.9153 35.984 71.5673 35.849 71.2313 35.687C70.8953 35.519 70.5953 35.312 70.3313 35.066C70.0673 34.814 69.8573 34.514 69.7013 34.166C69.5453 33.812 69.4673 33.395 69.4673 32.915C69.4673 32.147 69.6653 31.493 70.0613 30.953C70.4633 30.407 71.0063 29.99 71.6903 29.702C72.3743 29.414 73.1453 29.273 74.0033 29.279C74.8733 29.285 75.6503 29.441 76.3343 29.747C77.0243 30.047 77.5943 30.479 78.0443 31.043C78.5003 31.607 78.8063 32.282 78.9623 33.068L77.2613 33.365C77.1713 32.837 76.9703 32.384 76.6583 32.006C76.3523 31.622 75.9683 31.328 75.5063 31.124C75.0443 30.914 74.5373 30.806 73.9853 30.8C73.4573 30.794 72.9803 30.878 72.5543 31.052C72.1283 31.226 71.7893 31.469 71.5373 31.781C71.2853 32.087 71.1593 32.441 71.1593 32.843C71.1593 33.239 71.2733 33.56 71.5013 33.806C71.7293 34.046 72.0083 34.238 72.3383 34.382C72.6743 34.52 73.0013 34.634 73.3193 34.724L75.7853 35.435C76.0673 35.513 76.3913 35.621 76.7573 35.759C77.1293 35.897 77.4893 36.092 77.8373 36.344C78.1853 36.59 78.4733 36.92 78.7013 37.334C78.9293 37.742 79.0433 38.258 79.0433 38.882C79.0433 39.506 78.9173 40.061 78.6653 40.547C78.4193 41.033 78.0743 41.441 77.6303 41.771C77.1863 42.095 76.6703 42.341 76.0823 42.509C75.4943 42.683 74.8643 42.77 74.1923 42.77ZM83.6941 42.77C82.9681 42.77 82.3591 42.638 81.8671 42.374C81.3811 42.104 81.0121 41.75 80.7601 41.312C80.5141 40.874 80.3911 40.394 80.3911 39.872C80.3911 39.362 80.4871 38.921 80.6791 38.549C80.8771 38.171 81.1531 37.859 81.5071 37.613C81.8611 37.361 82.2841 37.163 82.7761 37.019C83.2381 36.893 83.7541 36.785 84.3241 36.695C84.9001 36.599 85.4821 36.512 86.0701 36.434C86.6581 36.356 87.2071 36.281 87.7171 36.209L87.1411 36.542C87.1591 35.678 86.9851 35.039 86.6191 34.625C86.2591 34.211 85.6351 34.004 84.7471 34.004C84.1591 34.004 83.6431 34.139 83.1991 34.409C82.7611 34.673 82.4521 35.105 82.2721 35.705L80.7511 35.246C80.9851 34.394 81.4381 33.725 82.1101 33.239C82.7821 32.753 83.6671 32.51 84.7651 32.51C85.6471 32.51 86.4031 32.669 87.0331 32.987C87.6691 33.299 88.1251 33.773 88.4011 34.409C88.5391 34.709 88.6261 35.036 88.6621 35.39C88.6981 35.738 88.7161 36.104 88.7161 36.488V42.5H87.2941V40.169L87.6271 40.385C87.2611 41.171 86.7481 41.765 86.0881 42.167C85.4341 42.569 84.6361 42.77 83.6941 42.77ZM83.9371 41.429C84.5131 41.429 85.0111 41.327 85.4311 41.123C85.8571 40.913 86.1991 40.64 86.4571 40.304C86.7151 39.962 86.8831 39.59 86.9611 39.188C87.0511 38.888 87.0991 38.555 87.1051 38.189C87.1171 37.817 87.1231 37.532 87.1231 37.334L87.6811 37.577C87.1591 37.649 86.6461 37.718 86.1421 37.784C85.6381 37.85 85.1611 37.922 84.7111 38C84.2611 38.072 83.8561 38.159 83.4961 38.261C83.2321 38.345 82.9831 38.453 82.7491 38.585C82.5211 38.717 82.3351 38.888 82.1911 39.098C82.0531 39.302 81.9841 39.557 81.9841 39.863C81.9841 40.127 82.0501 40.379 82.1821 40.619C82.3201 40.859 82.5301 41.054 82.8121 41.204C83.1001 41.354 83.4751 41.429 83.9371 41.429ZM91.2361 42.5V29.27H92.8381V42.5H91.2361ZM99.7506 42.77C98.7966 42.77 97.9626 42.56 97.2486 42.14C96.5406 41.714 95.9886 41.123 95.5926 40.367C95.1966 39.605 94.9986 38.717 94.9986 37.703C94.9986 36.641 95.1936 35.723 95.5836 34.949C95.9736 34.169 96.5166 33.569 97.2126 33.149C97.9146 32.723 98.7366 32.51 99.6786 32.51C100.657 32.51 101.488 32.735 102.172 33.185C102.862 33.635 103.378 34.277 103.72 35.111C104.068 35.945 104.218 36.938 104.17 38.09H102.55V37.514C102.532 36.32 102.289 35.429 101.821 34.841C101.353 34.247 100.657 33.95 99.7326 33.95C98.7426 33.95 97.9896 34.268 97.4736 34.904C96.9576 35.54 96.6996 36.452 96.6996 37.64C96.6996 38.786 96.9576 39.674 97.4736 40.304C97.9896 40.934 98.7246 41.249 99.6786 41.249C100.321 41.249 100.879 41.102 101.353 40.808C101.827 40.514 102.199 40.091 102.469 39.539L104.008 40.07C103.63 40.928 103.06 41.594 102.298 42.068C101.542 42.536 100.693 42.77 99.7506 42.77ZM96.1596 38.09V36.803H103.342V38.09H96.1596ZM109.845 42.761C108.687 42.761 107.736 42.509 106.992 42.005C106.254 41.495 105.801 40.784 105.633 39.872L107.271 39.611C107.403 40.139 107.706 40.559 108.18 40.871C108.654 41.177 109.242 41.33 109.944 41.33C110.61 41.33 111.132 41.192 111.51 40.916C111.888 40.64 112.077 40.265 112.077 39.791C112.077 39.515 112.014 39.293 111.888 39.125C111.762 38.951 111.501 38.789 111.105 38.639C110.715 38.489 110.124 38.309 109.332 38.099C108.474 37.871 107.799 37.634 107.307 37.388C106.815 37.142 106.464 36.857 106.254 36.533C106.044 36.209 105.939 35.816 105.939 35.354C105.939 34.784 106.095 34.286 106.407 33.86C106.719 33.428 107.154 33.095 107.712 32.861C108.276 32.627 108.93 32.51 109.674 32.51C110.412 32.51 111.072 32.627 111.654 32.861C112.236 33.095 112.704 33.428 113.058 33.86C113.418 34.286 113.631 34.784 113.697 35.354L112.059 35.651C111.981 35.129 111.729 34.718 111.303 34.418C110.883 34.118 110.34 33.959 109.674 33.941C109.044 33.917 108.531 34.028 108.135 34.274C107.745 34.52 107.55 34.853 107.55 35.273C107.55 35.507 107.622 35.708 107.766 35.876C107.916 36.044 108.189 36.203 108.585 36.353C108.987 36.503 109.569 36.674 110.331 36.866C111.189 37.082 111.864 37.319 112.356 37.577C112.854 37.829 113.208 38.129 113.418 38.477C113.628 38.819 113.733 39.242 113.733 39.746C113.733 40.682 113.388 41.42 112.698 41.96C112.008 42.494 111.057 42.761 109.845 42.761ZM120.249 42.5V32.249C120.249 31.997 120.261 31.742 120.285 31.484C120.309 31.22 120.363 30.965 120.447 30.719C120.531 30.467 120.669 30.236 120.861 30.026C121.083 29.78 121.326 29.606 121.59 29.504C121.854 29.396 122.121 29.33 122.391 29.306C122.667 29.282 122.928 29.27 123.174 29.27H124.407V30.602H123.264C122.79 30.602 122.436 30.719 122.202 30.953C121.968 31.181 121.851 31.529 121.851 31.997V42.5H120.249ZM118.602 34.103V32.78H124.407V34.103H118.602ZM125.843 42.5V32.78H127.274V35.129L127.04 34.823C127.154 34.523 127.301 34.247 127.481 33.995C127.667 33.743 127.874 33.536 128.102 33.374C128.354 33.17 128.639 33.014 128.957 32.906C129.275 32.798 129.599 32.735 129.929 32.717C130.259 32.693 130.568 32.714 130.856 32.78V34.283C130.52 34.193 130.151 34.169 129.749 34.211C129.347 34.253 128.975 34.4 128.633 34.652C128.321 34.874 128.078 35.144 127.904 35.462C127.736 35.78 127.619 36.125 127.553 36.497C127.487 36.863 127.454 37.238 127.454 37.622V42.5H125.843ZM136.594 42.77C135.64 42.77 134.806 42.56 134.092 42.14C133.384 41.714 132.832 41.123 132.436 40.367C132.04 39.605 131.842 38.717 131.842 37.703C131.842 36.641 132.037 35.723 132.427 34.949C132.817 34.169 133.36 33.569 134.056 33.149C134.758 32.723 135.58 32.51 136.522 32.51C137.5 32.51 138.331 32.735 139.015 33.185C139.705 33.635 140.221 34.277 140.563 35.111C140.911 35.945 141.061 36.938 141.013 38.09H139.393V37.514C139.375 36.32 139.132 35.429 138.664 34.841C138.196 34.247 137.5 33.95 136.576 33.95C135.586 33.95 134.833 34.268 134.317 34.904C133.801 35.54 133.543 36.452 133.543 37.64C133.543 38.786 133.801 39.674 134.317 40.304C134.833 40.934 135.568 41.249 136.522 41.249C137.164 41.249 137.722 41.102 138.196 40.808C138.67 40.514 139.042 40.091 139.312 39.539L140.851 40.07C140.473 40.928 139.903 41.594 139.141 42.068C138.385 42.536 137.536 42.77 136.594 42.77ZM133.003 38.09V36.803H140.185V38.09H133.003ZM146.833 42.77C145.927 42.77 145.15 42.545 144.502 42.095C143.854 41.639 143.353 41.024 142.999 40.25C142.651 39.476 142.477 38.603 142.477 37.631C142.477 36.659 142.651 35.786 142.999 35.012C143.353 34.238 143.854 33.629 144.502 33.185C145.15 32.735 145.924 32.51 146.824 32.51C147.742 32.51 148.513 32.732 149.137 33.176C149.761 33.62 150.232 34.229 150.55 35.003C150.874 35.777 151.036 36.653 151.036 37.631C151.036 38.597 150.874 39.47 150.55 40.25C150.232 41.024 149.761 41.639 149.137 42.095C148.513 42.545 147.745 42.77 146.833 42.77ZM147.031 41.303C147.685 41.303 148.222 41.147 148.642 40.835C149.062 40.517 149.371 40.082 149.569 39.53C149.773 38.972 149.875 38.339 149.875 37.631C149.875 36.911 149.773 36.278 149.569 35.732C149.371 35.18 149.065 34.751 148.651 34.445C148.237 34.133 147.712 33.977 147.076 33.977C146.416 33.977 145.87 34.139 145.438 34.463C145.012 34.787 144.694 35.225 144.484 35.777C144.28 36.329 144.178 36.947 144.178 37.631C144.178 38.321 144.283 38.945 144.493 39.503C144.703 40.055 145.018 40.493 145.438 40.817C145.864 41.141 146.395 41.303 147.031 41.303ZM149.695 46.82V39.935H149.875V32.78H151.306V46.82H149.695ZM157.518 42.752C156.894 42.752 156.357 42.653 155.907 42.455C155.463 42.257 155.094 41.993 154.8 41.663C154.506 41.333 154.275 40.967 154.107 40.565C153.939 40.163 153.819 39.752 153.747 39.332C153.681 38.912 153.648 38.519 153.648 38.153V32.78H155.268V37.649C155.268 38.105 155.31 38.546 155.394 38.972C155.478 39.398 155.619 39.782 155.817 40.124C156.021 40.466 156.291 40.736 156.627 40.934C156.969 41.132 157.395 41.231 157.905 41.231C158.307 41.231 158.673 41.162 159.003 41.024C159.333 40.886 159.615 40.682 159.849 40.412C160.083 40.136 160.263 39.788 160.389 39.368C160.515 38.948 160.578 38.459 160.578 37.901L161.631 38.225C161.631 39.161 161.46 39.968 161.118 40.646C160.782 41.324 160.305 41.846 159.687 42.212C159.075 42.572 158.352 42.752 157.518 42.752ZM160.758 42.5V39.899H160.578V32.78H162.189V42.5H160.758ZM168.92 42.77C167.966 42.77 167.132 42.56 166.418 42.14C165.71 41.714 165.158 41.123 164.762 40.367C164.366 39.605 164.168 38.717 164.168 37.703C164.168 36.641 164.363 35.723 164.753 34.949C165.143 34.169 165.686 33.569 166.382 33.149C167.084 32.723 167.906 32.51 168.848 32.51C169.826 32.51 170.657 32.735 171.341 33.185C172.031 33.635 172.547 34.277 172.889 35.111C173.237 35.945 173.387 36.938 173.339 38.09H171.719V37.514C171.701 36.32 171.458 35.429 170.99 34.841C170.522 34.247 169.826 33.95 168.902 33.95C167.912 33.95 167.159 34.268 166.643 34.904C166.127 35.54 165.869 36.452 165.869 37.64C165.869 38.786 166.127 39.674 166.643 40.304C167.159 40.934 167.894 41.249 168.848 41.249C169.49 41.249 170.048 41.102 170.522 40.808C170.996 40.514 171.368 40.091 171.638 39.539L173.177 40.07C172.799 40.928 172.229 41.594 171.467 42.068C170.711 42.536 169.862 42.77 168.92 42.77ZM165.329 38.09V36.803H172.511V38.09H165.329ZM182.001 42.5V37.631C182.001 37.169 181.959 36.725 181.875 36.299C181.797 35.873 181.656 35.492 181.452 35.156C181.254 34.814 180.984 34.544 180.642 34.346C180.306 34.148 179.88 34.049 179.364 34.049C178.962 34.049 178.596 34.118 178.266 34.256C177.942 34.388 177.663 34.592 177.429 34.868C177.195 35.144 177.012 35.492 176.88 35.912C176.754 36.326 176.691 36.815 176.691 37.379L175.638 37.055C175.638 36.113 175.806 35.306 176.142 34.634C176.484 33.956 176.961 33.437 177.573 33.077C178.191 32.711 178.917 32.528 179.751 32.528C180.381 32.528 180.918 32.627 181.362 32.825C181.806 33.023 182.175 33.287 182.469 33.617C182.763 33.941 182.994 34.307 183.162 34.715C183.33 35.117 183.447 35.528 183.513 35.948C183.585 36.362 183.621 36.755 183.621 37.127V42.5H182.001ZM175.071 42.5V32.78H176.511V35.381H176.691V42.5H175.071ZM189.968 42.77C188.984 42.77 188.147 42.551 187.457 42.113C186.773 41.669 186.251 41.06 185.891 40.286C185.531 39.512 185.345 38.63 185.333 37.64C185.345 36.626 185.534 35.735 185.9 34.967C186.272 34.193 186.803 33.59 187.493 33.158C188.183 32.726 189.014 32.51 189.986 32.51C191.012 32.51 191.894 32.762 192.632 33.266C193.376 33.77 193.874 34.46 194.126 35.336L192.542 35.813C192.338 35.249 192.005 34.811 191.543 34.499C191.087 34.187 190.562 34.031 189.968 34.031C189.302 34.031 188.753 34.187 188.321 34.499C187.889 34.805 187.568 35.231 187.358 35.777C187.148 36.317 187.04 36.938 187.034 37.64C187.046 38.72 187.295 39.593 187.781 40.259C188.273 40.919 189.002 41.249 189.968 41.249C190.604 41.249 191.132 41.105 191.552 40.817C191.972 40.523 192.29 40.1 192.506 39.548L194.126 39.971C193.79 40.877 193.265 41.57 192.551 42.05C191.837 42.53 190.976 42.77 189.968 42.77ZM196.961 46.82L198.842 41.708L198.869 43.22L194.621 32.78H196.304L199.634 41.177H199.058L202.181 32.78H203.81L198.518 46.82H196.961Z" fill="#151515"/>
<path d="M24.116 93.5V83.42H25.152L30.703 91.68V83.42H31.739V93.5H30.703L25.152 85.233V93.5H24.116ZM36.899 93.71C36.1616 93.71 35.5223 93.5467 34.981 93.22C34.4443 92.8933 34.0266 92.4337 33.728 91.841C33.4293 91.2483 33.28 90.553 33.28 89.755C33.28 88.929 33.427 88.215 33.721 87.613C34.015 87.011 34.428 86.5467 34.96 86.22C35.4966 85.8933 36.129 85.73 36.857 85.73C37.6036 85.73 38.2406 85.9027 38.768 86.248C39.2953 86.5887 39.6943 87.0787 39.965 87.718C40.2356 88.3573 40.3593 89.1203 40.336 90.007H39.286V89.643C39.2673 88.663 39.055 87.9233 38.649 87.424C38.2476 86.9247 37.6596 86.675 36.885 86.675C36.073 86.675 35.45 86.9387 35.016 87.466C34.5866 87.9933 34.372 88.7447 34.372 89.72C34.372 90.672 34.5866 91.4117 35.016 91.939C35.45 92.4617 36.0636 92.723 36.857 92.723C37.3983 92.723 37.8696 92.5993 38.271 92.352C38.677 92.1 38.9966 91.7383 39.23 91.267L40.189 91.638C39.8903 92.296 39.4493 92.807 38.866 93.171C38.2873 93.5303 37.6316 93.71 36.899 93.71ZM34.008 90.007V89.146H39.783V90.007H34.008ZM46.0054 93.5C45.5808 93.5887 45.1608 93.6237 44.7454 93.605C44.3348 93.5863 43.9661 93.4977 43.6394 93.339C43.3174 93.1803 43.0724 92.933 42.9044 92.597C42.7691 92.317 42.6944 92.0347 42.6804 91.75C42.6711 91.4607 42.6664 91.1317 42.6664 90.763V83.84H43.6884V90.721C43.6884 91.0383 43.6908 91.3043 43.6954 91.519C43.7048 91.729 43.7538 91.9157 43.8424 92.079C44.0104 92.3917 44.2764 92.5783 44.6404 92.639C45.0091 92.6997 45.4641 92.6857 46.0054 92.597V93.5ZM41.0494 86.822V85.94H46.0054V86.822H41.0494ZM53.7976 93.71C53.093 93.71 52.4583 93.5933 51.8936 93.36C51.3336 93.122 50.8693 92.786 50.5006 92.352C50.1366 91.918 49.8986 91.4023 49.7866 90.805L50.8366 90.63C51.0046 91.2833 51.3593 91.7967 51.9006 92.17C52.442 92.5387 53.0883 92.723 53.8396 92.723C54.3343 92.723 54.7776 92.646 55.1696 92.492C55.5616 92.3333 55.8696 92.1093 56.0936 91.82C56.3176 91.5307 56.4296 91.1877 56.4296 90.791C56.4296 90.5297 56.383 90.308 56.2896 90.126C56.1963 89.9393 56.0726 89.7853 55.9186 89.664C55.7646 89.5427 55.5966 89.4423 55.4146 89.363C55.2326 89.279 55.0553 89.2113 54.8826 89.16L52.3276 88.397C52.0196 88.3083 51.735 88.1963 51.4736 88.061C51.2123 87.921 50.9836 87.7553 50.7876 87.564C50.5963 87.368 50.447 87.1393 50.3396 86.878C50.2323 86.6167 50.1786 86.318 50.1786 85.982C50.1786 85.4127 50.328 84.9203 50.6266 84.505C50.9253 84.0897 51.3336 83.77 51.8516 83.546C52.3696 83.322 52.96 83.2123 53.6226 83.217C54.2946 83.217 54.8943 83.336 55.4216 83.574C55.9536 83.812 56.3923 84.1527 56.7376 84.596C57.083 85.0347 57.3116 85.555 57.4236 86.157L56.3456 86.353C56.2756 85.9143 56.1146 85.534 55.8626 85.212C55.6106 84.89 55.2886 84.6427 54.8966 84.47C54.5093 84.2927 54.0823 84.2017 53.6156 84.197C53.163 84.197 52.7593 84.274 52.4046 84.428C52.0546 84.5773 51.777 84.7827 51.5716 85.044C51.3663 85.3053 51.2636 85.604 51.2636 85.94C51.2636 86.2807 51.357 86.5537 51.5436 86.759C51.735 86.9643 51.9683 87.1253 52.2436 87.242C52.5236 87.3587 52.7943 87.4543 53.0556 87.529L55.0296 88.11C55.235 88.166 55.4753 88.2477 55.7506 88.355C56.0306 88.4577 56.3013 88.607 56.5626 88.803C56.8286 88.9943 57.048 89.2463 57.2206 89.559C57.3933 89.8717 57.4796 90.2683 57.4796 90.749C57.4796 91.2157 57.3863 91.6333 57.1996 92.002C57.0176 92.3707 56.7586 92.681 56.4226 92.933C56.0913 93.185 55.7016 93.3763 55.2536 93.507C54.8103 93.6423 54.325 93.71 53.7976 93.71ZM61.0876 93.71C60.5182 93.71 60.0399 93.6073 59.6526 93.402C59.2699 93.1967 58.9829 92.9237 58.7916 92.583C58.6002 92.2423 58.5046 91.8713 58.5046 91.47C58.5046 91.0593 58.5862 90.7093 58.7496 90.42C58.9176 90.126 59.1439 89.8857 59.4286 89.699C59.7179 89.5123 60.0516 89.37 60.4296 89.272C60.8122 89.1787 61.2346 89.097 61.6966 89.027C62.1632 88.9523 62.6182 88.8893 63.0616 88.838C63.5096 88.782 63.9016 88.7283 64.2376 88.677L63.8736 88.901C63.8876 88.1543 63.7429 87.6013 63.4396 87.242C63.1362 86.8827 62.6089 86.703 61.8576 86.703C61.3396 86.703 60.9009 86.8197 60.5416 87.053C60.1869 87.2863 59.9372 87.655 59.7926 88.159L58.7916 87.865C58.9642 87.1883 59.3119 86.6633 59.8346 86.29C60.3572 85.9167 61.0362 85.73 61.8716 85.73C62.5622 85.73 63.1479 85.8607 63.6286 86.122C64.1139 86.3787 64.4569 86.752 64.6576 87.242C64.7509 87.4613 64.8116 87.7063 64.8396 87.977C64.8676 88.2477 64.8816 88.523 64.8816 88.803V93.5H63.9646V91.603L64.2306 91.715C63.9739 92.3637 63.5749 92.8583 63.0336 93.199C62.4922 93.5397 61.8436 93.71 61.0876 93.71ZM61.2066 92.821C61.6872 92.821 62.1072 92.7347 62.4666 92.562C62.8259 92.3893 63.1152 92.1537 63.3346 91.855C63.5539 91.5517 63.6962 91.211 63.7616 90.833C63.8176 90.5903 63.8479 90.3243 63.8526 90.035C63.8572 89.741 63.8596 89.5217 63.8596 89.377L64.2516 89.58C63.9016 89.6267 63.5212 89.6733 63.1106 89.72C62.7046 89.7667 62.3032 89.8203 61.9066 89.881C61.5146 89.9417 61.1599 90.014 60.8426 90.098C60.6279 90.1587 60.4202 90.245 60.2196 90.357C60.0189 90.4643 59.8532 90.609 59.7226 90.791C59.5966 90.973 59.5336 91.1993 59.5336 91.47C59.5336 91.6893 59.5872 91.9017 59.6946 92.107C59.8066 92.3123 59.9839 92.4827 60.2266 92.618C60.4739 92.7533 60.8006 92.821 61.2066 92.821ZM66.8439 93.5V83.21H67.8729V93.5H66.8439ZM73.1705 93.71C72.4331 93.71 71.7938 93.5467 71.2525 93.22C70.7158 92.8933 70.2981 92.4337 69.9995 91.841C69.7008 91.2483 69.5515 90.553 69.5515 89.755C69.5515 88.929 69.6985 88.215 69.9925 87.613C70.2865 87.011 70.6995 86.5467 71.2315 86.22C71.7681 85.8933 72.4005 85.73 73.1285 85.73C73.8751 85.73 74.5121 85.9027 75.0395 86.248C75.5668 86.5887 75.9658 87.0787 76.2365 87.718C76.5071 88.3573 76.6308 89.1203 76.6075 90.007H75.5575V89.643C75.5388 88.663 75.3265 87.9233 74.9205 87.424C74.5191 86.9247 73.9311 86.675 73.1565 86.675C72.3445 86.675 71.7215 86.9387 71.2875 87.466C70.8581 87.9933 70.6435 88.7447 70.6435 89.72C70.6435 90.672 70.8581 91.4117 71.2875 91.939C71.7215 92.4617 72.3351 92.723 73.1285 92.723C73.6698 92.723 74.1411 92.5993 74.5425 92.352C74.9485 92.1 75.2681 91.7383 75.5015 91.267L76.4605 91.638C76.1618 92.296 75.7208 92.807 75.1375 93.171C74.5588 93.5303 73.9031 93.71 73.1705 93.71ZM70.2795 90.007V89.146H76.0545V90.007H70.2795ZM80.9819 93.703C80.0952 93.703 79.3649 93.5117 78.7909 93.129C78.2216 92.7463 77.8716 92.2143 77.7409 91.533L78.7909 91.358C78.9029 91.7873 79.1572 92.1303 79.5539 92.387C79.9552 92.639 80.4499 92.765 81.0379 92.765C81.6119 92.765 82.0646 92.646 82.3959 92.408C82.7272 92.1653 82.8929 91.8363 82.8929 91.421C82.8929 91.1877 82.8392 90.9987 82.7319 90.854C82.6292 90.7047 82.4169 90.567 82.0949 90.441C81.7729 90.315 81.2922 90.1657 80.6529 89.993C79.9669 89.8063 79.4302 89.6197 79.0429 89.433C78.6556 89.2463 78.3802 89.0317 78.2169 88.789C78.0536 88.5417 77.9719 88.2407 77.9719 87.886C77.9719 87.4567 78.0932 87.081 78.3359 86.759C78.5786 86.4323 78.9146 86.1803 79.3439 86.003C79.7732 85.821 80.2726 85.73 80.8419 85.73C81.4112 85.73 81.9199 85.8233 82.3679 86.01C82.8206 86.192 83.1846 86.4487 83.4599 86.78C83.7352 87.1113 83.8986 87.4963 83.9499 87.935L82.8999 88.124C82.8299 87.6807 82.6082 87.3307 82.2349 87.074C81.8662 86.8127 81.3972 86.6773 80.8279 86.668C80.2912 86.654 79.8549 86.7567 79.5189 86.976C79.1829 87.1907 79.0149 87.4777 79.0149 87.837C79.0149 88.0377 79.0756 88.2103 79.1969 88.355C79.3182 88.495 79.5376 88.628 79.8549 88.754C80.1769 88.88 80.6342 89.0177 81.2269 89.167C81.9222 89.3443 82.4682 89.531 82.8649 89.727C83.2616 89.923 83.5439 90.154 83.7119 90.42C83.8799 90.686 83.9639 91.015 83.9639 91.407C83.9639 92.121 83.6979 92.6833 83.1659 93.094C82.6386 93.5 81.9106 93.703 80.9819 93.703Z" fill="#6E7191"/>
<path d="M24.7333 139.489L25.9653 134.88H21.6533L22.1483 133.01H26.4713L27.3183 129.798H23.0063L23.5123 127.939H27.8243L28.9683 123.66H30.9043L29.7493 127.939H33.1043L34.2483 123.66H36.1843L35.0293 127.939H39.3413L38.8463 129.798H34.5343L33.6653 133.01H37.9773L37.4823 134.88H33.1703L31.9383 139.489H30.0133L31.2343 134.88H27.8903L26.6583 139.489H24.7333ZM28.3963 133.01H31.7403L32.5983 129.798H29.2543L28.3963 133.01ZM44.9585 139.5V125.827L41.9775 127.631V125.442L44.9585 123.66H46.9495V139.5H44.9585ZM57.977 139.5V136.585H50.695V134.726L55.92 123.66H58.142L52.917 134.726H57.977V130.271H59.957V134.726H61.607V136.585H59.957V139.5H57.977ZM69.5864 139.83C68.5598 139.83 67.6431 139.599 66.8364 139.137C66.0371 138.668 65.4028 138.033 64.9334 137.234C64.4714 136.427 64.2404 135.511 64.2404 134.484V128.676C64.2404 127.649 64.4714 126.733 64.9334 125.926C65.4028 125.119 66.0371 124.485 66.8364 124.023C67.6431 123.561 68.5598 123.33 69.5864 123.33C70.6131 123.33 71.5298 123.561 72.3364 124.023C73.1431 124.485 73.7774 125.119 74.2394 125.926C74.7014 126.733 74.9324 127.649 74.9324 128.676V134.484C74.9324 135.511 74.7014 136.427 74.2394 137.234C73.7774 138.033 73.1431 138.668 72.3364 139.137C71.5298 139.599 70.6131 139.83 69.5864 139.83ZM69.5864 137.949C70.2098 137.949 70.7744 137.799 71.2804 137.498C71.7864 137.197 72.1898 136.794 72.4904 136.288C72.7911 135.775 72.9414 135.21 72.9414 134.594V128.555C72.9414 127.932 72.7911 127.367 72.4904 126.861C72.1898 126.355 71.7864 125.952 71.2804 125.651C70.7744 125.35 70.2098 125.2 69.5864 125.2C68.9704 125.2 68.4058 125.35 67.8924 125.651C67.3864 125.952 66.9831 126.355 66.6824 126.861C66.3818 127.367 66.2314 127.932 66.2314 128.555V134.594C66.2314 135.21 66.3818 135.775 66.6824 136.288C66.9831 136.794 67.3864 137.197 67.8924 137.498C68.4058 137.799 68.9704 137.949 69.5864 137.949ZM78.0009 139.5L78.0119 123.66H79.9919V133.34L84.9749 127.62H87.5159L82.2689 133.56L88.1319 139.5H85.3929L79.9919 133.78V139.5H78.0009Z" fill="#151515"/>
<path d="M102.617 129.295C102.23 129.689 102.234 130.322 102.628 130.71C103.021 131.097 103.654 131.093 104.042 130.699L109.333 125.329V139C109.333 139.552 109.781 140 110.333 140C110.886 140 111.333 139.552 111.333 139V125.335L116.618 130.699C117.006 131.093 117.639 131.097 118.032 130.71C118.426 130.322 118.43 129.689 118.043 129.295L111.22 122.371C110.731 121.874 109.929 121.874 109.44 122.371L102.617 129.295Z" fill="#00F562"/>
<path d="M173.852 93.71C173.143 93.71 172.504 93.5863 171.934 93.339C171.365 93.0917 170.88 92.7393 170.478 92.282C170.082 91.8247 169.778 91.274 169.568 90.63C169.358 89.9813 169.253 89.258 169.253 88.46C169.253 87.4053 169.435 86.486 169.799 85.702C170.168 84.9133 170.695 84.302 171.381 83.868C172.067 83.434 172.891 83.217 173.852 83.217C174.926 83.217 175.798 83.469 176.47 83.973C177.147 84.4723 177.618 85.1443 177.884 85.989L176.848 86.241C176.629 85.625 176.267 85.1327 175.763 84.764C175.264 84.3953 174.641 84.211 173.894 84.211C173.106 84.2063 172.45 84.3837 171.927 84.743C171.405 85.0977 171.01 85.597 170.744 86.241C170.483 86.8803 170.35 87.62 170.345 88.46C170.341 89.3 170.469 90.0397 170.73 90.679C170.996 91.3137 171.393 91.813 171.92 92.177C172.448 92.5363 173.106 92.7183 173.894 92.723C174.618 92.723 175.215 92.583 175.686 92.303C176.158 92.023 176.515 91.6217 176.757 91.099C177.005 90.5763 177.145 89.958 177.177 89.244H174.853V88.362H178.255C178.269 88.4693 178.276 88.5837 178.276 88.705C178.281 88.8217 178.283 88.9057 178.283 88.957C178.283 89.867 178.12 90.6813 177.793 91.4C177.467 92.114 176.974 92.6787 176.316 93.094C175.663 93.5047 174.842 93.71 173.852 93.71ZM179.684 93.5V85.94H180.608V87.76L180.426 87.522C180.51 87.298 180.62 87.0927 180.755 86.906C180.891 86.7147 181.038 86.5583 181.196 86.437C181.392 86.2643 181.621 86.1337 181.882 86.045C182.144 85.9517 182.407 85.898 182.673 85.884C182.939 85.8653 183.182 85.884 183.401 85.94V86.906C183.126 86.836 182.825 86.8197 182.498 86.857C182.172 86.8943 181.871 87.025 181.595 87.249C181.343 87.445 181.154 87.6807 181.028 87.956C180.902 88.2267 180.818 88.516 180.776 88.824C180.734 89.1273 180.713 89.4283 180.713 89.727V93.5H179.684ZM187.75 93.71C186.998 93.71 186.357 93.5397 185.825 93.199C185.293 92.8583 184.884 92.387 184.6 91.785C184.315 91.183 184.173 90.4923 184.173 89.713C184.173 88.9197 184.317 88.2243 184.607 87.627C184.896 87.0297 185.307 86.5653 185.839 86.234C186.375 85.898 187.012 85.73 187.75 85.73C188.506 85.73 189.15 85.9003 189.682 86.241C190.218 86.577 190.627 87.046 190.907 87.648C191.191 88.2453 191.334 88.9337 191.334 89.713C191.334 90.5063 191.191 91.204 190.907 91.806C190.622 92.4033 190.211 92.87 189.675 93.206C189.138 93.542 188.496 93.71 187.75 93.71ZM187.75 92.723C188.59 92.723 189.215 92.4453 189.626 91.89C190.036 91.33 190.242 90.6043 190.242 89.713C190.242 88.7983 190.034 88.0703 189.619 87.529C189.208 86.9877 188.585 86.717 187.75 86.717C187.185 86.717 186.718 86.8453 186.35 87.102C185.986 87.354 185.713 87.7063 185.531 88.159C185.353 88.607 185.265 89.125 185.265 89.713C185.265 90.623 185.475 91.3533 185.895 91.904C186.315 92.45 186.933 92.723 187.75 92.723ZM195.63 93.703C194.744 93.703 194.013 93.5117 193.439 93.129C192.87 92.7463 192.52 92.2143 192.389 91.533L193.439 91.358C193.551 91.7873 193.806 92.1303 194.202 92.387C194.604 92.639 195.098 92.765 195.686 92.765C196.26 92.765 196.713 92.646 197.044 92.408C197.376 92.1653 197.541 91.8363 197.541 91.421C197.541 91.1877 197.488 90.9987 197.38 90.854C197.278 90.7047 197.065 90.567 196.743 90.441C196.421 90.315 195.941 90.1657 195.301 89.993C194.615 89.8063 194.079 89.6197 193.691 89.433C193.304 89.2463 193.029 89.0317 192.865 88.789C192.702 88.5417 192.62 88.2407 192.62 87.886C192.62 87.4567 192.742 87.081 192.984 86.759C193.227 86.4323 193.563 86.1803 193.992 86.003C194.422 85.821 194.921 85.73 195.49 85.73C196.06 85.73 196.568 85.8233 197.016 86.01C197.469 86.192 197.833 86.4487 198.108 86.78C198.384 87.1113 198.547 87.4963 198.598 87.935L197.548 88.124C197.478 87.6807 197.257 87.3307 196.883 87.074C196.515 86.8127 196.046 86.6773 195.476 86.668C194.94 86.654 194.503 86.7567 194.167 86.976C193.831 87.1907 193.663 87.4777 193.663 87.837C193.663 88.0377 193.724 88.2103 193.845 88.355C193.967 88.495 194.186 88.628 194.503 88.754C194.825 88.88 195.283 89.0177 195.875 89.167C196.571 89.3443 197.117 89.531 197.513 89.727C197.91 89.923 198.192 90.154 198.36 90.42C198.528 90.686 198.612 91.015 198.612 91.407C198.612 92.121 198.346 92.6833 197.814 93.094C197.287 93.5 196.559 93.703 195.63 93.703ZM202.986 93.703C202.099 93.703 201.369 93.5117 200.795 93.129C200.225 92.7463 199.875 92.2143 199.745 91.533L200.795 91.358C200.907 91.7873 201.161 92.1303 201.558 92.387C201.959 92.639 202.454 92.765 203.042 92.765C203.616 92.765 204.068 92.646 204.4 92.408C204.731 92.1653 204.897 91.8363 204.897 91.421C204.897 91.1877 204.843 90.9987 204.736 90.854C204.633 90.7047 204.421 90.567 204.099 90.441C203.777 90.315 203.296 90.1657 202.657 89.993C201.971 89.8063 201.434 89.6197 201.047 89.433C200.659 89.2463 200.384 89.0317 200.221 88.789C200.057 88.5417 199.976 88.2407 199.976 87.886C199.976 87.4567 200.097 87.081 200.34 86.759C200.582 86.4323 200.918 86.1803 201.348 86.003C201.777 85.821 202.276 85.73 202.846 85.73C203.415 85.73 203.924 85.8233 204.372 86.01C204.824 86.192 205.188 86.4487 205.464 86.78C205.739 87.1113 205.902 87.4963 205.954 87.935L204.904 88.124C204.834 87.6807 204.612 87.3307 204.239 87.074C203.87 86.8127 203.401 86.6773 202.832 86.668C202.295 86.654 201.859 86.7567 201.523 86.976C201.187 87.1907 201.019 87.4777 201.019 87.837C201.019 88.0377 201.079 88.2103 201.201 88.355C201.322 88.495 201.541 88.628 201.859 88.754C202.181 88.88 202.638 89.0177 203.231 89.167C203.926 89.3443 204.472 89.531 204.869 89.727C205.265 89.923 205.548 90.154 205.716 90.42C205.884 90.686 205.968 91.015 205.968 91.407C205.968 92.121 205.702 92.6833 205.17 93.094C204.642 93.5 203.914 93.703 202.986 93.703ZM210.323 93.5V83.42H214.215C214.313 83.42 214.423 83.4247 214.544 83.434C214.67 83.4387 214.796 83.4527 214.922 83.476C215.449 83.5553 215.895 83.7397 216.259 84.029C216.628 84.3137 216.905 84.673 217.092 85.107C217.283 85.541 217.379 86.0217 217.379 86.549C217.379 87.0717 217.283 87.55 217.092 87.984C216.901 88.418 216.621 88.7797 216.252 89.069C215.888 89.3537 215.445 89.5357 214.922 89.615C214.796 89.6337 214.67 89.6477 214.544 89.657C214.423 89.6663 214.313 89.671 214.215 89.671H211.352V93.5H210.323ZM211.352 88.691H214.187C214.271 88.691 214.369 88.6863 214.481 88.677C214.593 88.6677 214.703 88.6513 214.81 88.628C215.155 88.5533 215.438 88.411 215.657 88.201C215.881 87.991 216.047 87.7413 216.154 87.452C216.266 87.1627 216.322 86.8617 216.322 86.549C216.322 86.2363 216.266 85.9353 216.154 85.646C216.047 85.352 215.881 85.1 215.657 84.89C215.438 84.68 215.155 84.5377 214.81 84.463C214.703 84.4397 214.593 84.4257 214.481 84.421C214.369 84.4117 214.271 84.407 214.187 84.407H211.352V88.691ZM218.772 93.5V85.94H219.696V87.76L219.514 87.522C219.598 87.298 219.708 87.0927 219.843 86.906C219.979 86.7147 220.126 86.5583 220.284 86.437C220.48 86.2643 220.709 86.1337 220.97 86.045C221.232 85.9517 221.495 85.898 221.761 85.884C222.027 85.8653 222.27 85.884 222.489 85.94V86.906C222.214 86.836 221.913 86.8197 221.586 86.857C221.26 86.8943 220.959 87.025 220.683 87.249C220.431 87.445 220.242 87.6807 220.116 87.956C219.99 88.2267 219.906 88.516 219.864 88.824C219.822 89.1273 219.801 89.4283 219.801 89.727V93.5H218.772ZM226.837 93.71C226.086 93.71 225.444 93.5397 224.912 93.199C224.38 92.8583 223.972 92.387 223.687 91.785C223.403 91.183 223.26 90.4923 223.26 89.713C223.26 88.9197 223.405 88.2243 223.694 87.627C223.984 87.0297 224.394 86.5653 224.926 86.234C225.463 85.898 226.1 85.73 226.837 85.73C227.593 85.73 228.237 85.9003 228.769 86.241C229.306 86.577 229.714 87.046 229.994 87.648C230.279 88.2453 230.421 88.9337 230.421 89.713C230.421 90.5063 230.279 91.204 229.994 91.806C229.71 92.4033 229.299 92.87 228.762 93.206C228.226 93.542 227.584 93.71 226.837 93.71ZM226.837 92.723C227.677 92.723 228.303 92.4453 228.713 91.89C229.124 91.33 229.329 90.6043 229.329 89.713C229.329 88.7983 229.122 88.0703 228.706 87.529C228.296 86.9877 227.673 86.717 226.837 86.717C226.273 86.717 225.806 86.8453 225.437 87.102C225.073 87.354 224.8 87.7063 224.618 88.159C224.441 88.607 224.352 89.125 224.352 89.713C224.352 90.623 224.562 91.3533 224.982 91.904C225.402 92.45 226.021 92.723 226.837 92.723ZM232.715 93.5V85.38C232.715 85.184 232.724 84.9903 232.743 84.799C232.766 84.6077 232.81 84.4257 232.876 84.253C232.941 84.0757 233.044 83.9123 233.184 83.763C233.338 83.595 233.506 83.4737 233.688 83.399C233.87 83.3197 234.059 83.2683 234.255 83.245C234.455 83.2217 234.651 83.21 234.843 83.21H235.809V84.078H234.913C234.521 84.078 234.227 84.1737 234.031 84.365C233.839 84.5563 233.744 84.8573 233.744 85.268V93.5H232.715ZM231.406 86.822V85.94H235.809V86.822H231.406ZM237.279 84.505V83.35H238.308V84.505H237.279ZM237.279 93.5V85.94H238.308V93.5H237.279ZM244.517 93.5C244.092 93.5887 243.672 93.6237 243.257 93.605C242.846 93.5863 242.478 93.4977 242.151 93.339C241.829 93.1803 241.584 92.933 241.416 92.597C241.281 92.317 241.206 92.0347 241.192 91.75C241.183 91.4607 241.178 91.1317 241.178 90.763V83.84H242.2V90.721C242.2 91.0383 242.202 91.3043 242.207 91.519C242.216 91.729 242.265 91.9157 242.354 92.079C242.522 92.3917 242.788 92.5783 243.152 92.639C243.521 92.6997 243.976 92.6857 244.517 92.597V93.5ZM239.561 86.822V85.94H244.517V86.822H239.561Z" fill="#6E7191"/>
<path d="M173.233 139.489L174.465 134.88H170.153L170.648 133.01H174.971L175.818 129.798H171.506L172.012 127.939H176.324L177.468 123.66H179.404L178.249 127.939H181.604L182.748 123.66H184.684L183.529 127.939H187.841L187.346 129.798H183.034L182.165 133.01H186.477L185.982 134.88H181.67L180.438 139.489H178.513L179.734 134.88H176.39L175.158 139.489H173.233ZM176.896 133.01H180.24L181.098 129.798H177.754L176.896 133.01ZM193.458 139.5V125.827L190.477 127.631V125.442L193.458 123.66H195.449V139.5H193.458ZM204.981 139.83C203.954 139.83 203.038 139.599 202.231 139.137C201.432 138.668 200.797 138.033 200.328 137.234C199.866 136.427 199.635 135.511 199.635 134.484V128.676C199.635 127.649 199.866 126.733 200.328 125.926C200.797 125.119 201.432 124.485 202.231 124.023C203.038 123.561 203.954 123.33 204.981 123.33C206.008 123.33 206.924 123.561 207.731 124.023C208.538 124.485 209.172 125.119 209.634 125.926C210.096 126.733 210.327 127.649 210.327 128.676V134.484C210.327 135.511 210.096 136.427 209.634 137.234C209.172 138.033 208.538 138.668 207.731 139.137C206.924 139.599 206.008 139.83 204.981 139.83ZM204.981 137.949C205.604 137.949 206.169 137.799 206.675 137.498C207.181 137.197 207.584 136.794 207.885 136.288C208.186 135.775 208.336 135.21 208.336 134.594V128.555C208.336 127.932 208.186 127.367 207.885 126.861C207.584 126.355 207.181 125.952 206.675 125.651C206.169 125.35 205.604 125.2 204.981 125.2C204.365 125.2 203.8 125.35 203.287 125.651C202.781 125.952 202.378 126.355 202.077 126.861C201.776 127.367 201.626 127.932 201.626 128.555V134.594C201.626 135.21 201.776 135.775 202.077 136.288C202.378 136.794 202.781 137.197 203.287 137.498C203.8 137.799 204.365 137.949 204.981 137.949ZM218.752 139.83C217.726 139.83 216.809 139.599 216.002 139.137C215.203 138.668 214.569 138.033 214.099 137.234C213.637 136.427 213.406 135.511 213.406 134.484V128.676C213.406 127.649 213.637 126.733 214.099 125.926C214.569 125.119 215.203 124.485 216.002 124.023C216.809 123.561 217.726 123.33 218.752 123.33C219.779 123.33 220.696 123.561 221.502 124.023C222.309 124.485 222.943 125.119 223.405 125.926C223.867 126.733 224.098 127.649 224.098 128.676V134.484C224.098 135.511 223.867 136.427 223.405 137.234C222.943 138.033 222.309 138.668 221.502 139.137C220.696 139.599 219.779 139.83 218.752 139.83ZM218.752 137.949C219.376 137.949 219.94 137.799 220.446 137.498C220.952 137.197 221.356 136.794 221.656 136.288C221.957 135.775 222.107 135.21 222.107 134.594V128.555C222.107 127.932 221.957 127.367 221.656 126.861C221.356 126.355 220.952 125.952 220.446 125.651C219.94 125.35 219.376 125.2 218.752 125.2C218.136 125.2 217.572 125.35 217.058 125.651C216.552 125.952 216.149 126.355 215.848 126.861C215.548 127.367 215.397 127.932 215.397 128.555V134.594C215.397 135.21 215.548 135.775 215.848 136.288C216.149 136.794 216.552 137.197 217.058 137.498C217.572 137.799 218.136 137.949 218.752 137.949ZM227.167 139.5L227.178 123.66H229.158V133.34L234.141 127.62H236.682L231.435 133.56L237.298 139.5H234.559L229.158 133.78V139.5H227.167Z" fill="#151515"/>
<path d="M252.117 129.295C251.73 129.689 251.734 130.322 252.128 130.71C252.521 131.097 253.154 131.093 253.542 130.699L258.833 125.329V139C258.833 139.552 259.281 140 259.833 140C260.386 140 260.833 139.552 260.833 139V125.335L266.118 130.699C266.506 131.093 267.139 131.097 267.532 130.71C267.926 130.322 267.93 129.689 267.543 129.295L260.72 122.371C260.231 121.874 259.429 121.874 258.94 122.371L252.117 129.295Z" fill="#00F562"/>
<g clip-path="url(#clip1_1_2826)">
<g opacity="0.2" clip-path="url(#clip2_1_2826)">
<path d="M310.797 211.036C318.565 211.036 318.565 197.919 326.333 197.919V290.5H-217.425V281.775C-209.01 281.775 -209.657 286.6 -201.889 286.6C-194.121 286.6 -194.121 272.897 -186.353 272.897C-178.585 272.897 -179.88 277.114 -170.817 277.114C-161.755 277.114 -164.344 285.007 -155.281 285.007C-146.219 285.007 -148.161 282.009 -139.745 282.009C-131.33 282.009 -132.948 267.721 -124.209 267.721C-115.47 267.721 -117.736 272.382 -108.673 272.382C-99.6107 272.382 -101.229 278.8 -93.1374 278.8C-85.0457 278.8 -86.3404 257.485 -77.6014 257.485C-68.8625 257.485 -69.8335 264.863 -62.0655 264.863C-54.2975 264.863 -55.5922 254.533 -46.5295 254.533C-37.4669 254.533 -39.4089 261.139 -30.9936 261.139C-22.5783 261.139 -23.873 234.132 -15.4576 234.132C-7.04233 234.132 -8.66068 241.65 0.0783081 241.65C8.81729 241.65 6.55164 246.616 15.6143 246.616C24.6769 246.616 22.4112 233.733 31.1502 233.733C39.8892 233.733 37.6235 240.058 46.6862 240.058C55.7488 240.058 54.1305 229.634 62.2221 229.634C70.3138 229.634 69.3427 212.207 77.7581 212.207C86.1734 212.207 84.8787 241.369 93.294 241.369C101.709 241.369 100.738 220.944 108.83 220.944C116.922 220.944 115.303 229.892 124.366 229.892C133.429 229.892 131.487 237.926 139.902 237.926C148.317 237.926 147.346 224.622 155.438 224.622C163.529 224.622 162.882 237.27 170.974 237.27C179.065 237.27 178.094 231.649 186.51 231.649C194.925 231.649 193.63 220.054 202.046 220.054C210.461 220.054 209.166 224.692 217.582 224.692C225.997 224.692 225.35 207.757 233.118 207.757C240.886 207.757 239.591 230.969 248.654 230.969C257.716 230.969 255.45 215.205 264.189 215.205C272.928 215.205 271.634 221.694 279.725 221.694C287.817 221.694 287.17 205.532 295.261 205.532C303.353 205.532 303.029 211.036 310.797 211.036Z" fill="#F5C324"/>
</g>
<g clip-path="url(#clip3_1_2826)">
<path d="M326.333 197.918C318.565 197.918 318.565 211.035 310.797 211.035C303.029 211.035 303.353 205.53 295.261 205.53C287.17 205.53 287.817 221.692 279.725 221.692C271.634 221.692 272.928 215.204 264.189 215.204C255.45 215.204 257.716 230.968 248.654 230.968C239.591 230.968 240.886 207.755 233.118 207.755C225.35 207.755 225.997 224.691 217.582 224.691C209.166 224.691 210.461 220.053 202.046 220.053C193.63 220.053 194.925 231.647 186.51 231.647C178.094 231.647 179.065 237.269 170.974 237.269C162.882 237.269 163.529 224.62 155.438 224.62C147.346 224.62 148.317 237.925 139.902 237.925C131.487 237.925 133.429 229.891 124.366 229.891C115.303 229.891 116.922 220.943 108.83 220.943C100.738 220.943 101.709 241.368 93.294 241.368C84.8787 241.368 86.1734 212.206 77.7581 212.206C69.3428 212.206 70.3137 229.633 62.2221 229.633C54.1305 229.633 55.7488 240.056 46.6862 240.056C37.6235 240.056 39.8892 233.732 31.1502 233.732C22.4112 233.732 24.6769 246.615 15.6143 246.615C6.55162 246.615 8.81728 241.649 0.0783081 241.649C-8.66066 241.649 -7.04234 234.13 -15.4576 234.13C-23.8729 234.13 -22.5783 261.137 -30.9936 261.137C-39.4089 261.137 -37.4669 254.532 -46.5295 254.532C-55.5922 254.532 -54.2975 264.862 -62.0655 264.862C-69.8335 264.862 -68.8625 257.483 -77.6014 257.483C-86.3404 257.483 -85.0457 278.799 -93.1374 278.799C-101.229 278.799 -99.6107 272.381 -108.673 272.381C-117.736 272.381 -115.47 267.719 -124.209 267.719C-132.948 267.719 -131.33 282.008 -139.745 282.008C-148.161 282.008 -146.219 285.006 -155.281 285.006C-164.344 285.006 -161.755 277.112 -170.817 277.112C-179.88 277.112 -178.585 272.896 -186.353 272.896C-194.121 272.896 -194.121 286.599 -201.889 286.599C-209.657 286.599 -209.01 281.773 -217.425 281.773" stroke="#F5C324" stroke-width="0.647331"/>
</g>
<rect x="0.323666" y="-0.323666" width="5.50889" height="5.50889" rx="2.75444" transform="matrix(-1 0 0 1 314.023 208.275)" fill="#F5C324" stroke="#F5C324" stroke-width="0.647331"/>
<rect x="0.323666" y="-0.323666" width="5.50889" height="5.50889" rx="2.75444" transform="matrix(-1 0 0 1 298.487 202.75)" fill="#F5C324" stroke="#F5C324" stroke-width="0.647331"/>
<rect x="0.323666" y="-0.323666" width="5.50889" height="5.50889" rx="2.75444" transform="matrix(-1 0 0 1 282.952 219)" fill="#F5C324" stroke="#F5C324" stroke-width="0.647331"/>
<rect x="0.323666" y="-0.323666" width="5.50889" height="5.50889" rx="2.75444" transform="matrix(-1 0 0 1 267.416 212.5)" fill="#F5C324" stroke="#F5C324" stroke-width="0.647331"/>
<rect x="0.323666" y="-0.323666" width="5.50889" height="5.50889" rx="2.75444" transform="matrix(-1 0 0 1 329.559 194.95)" fill="#F5C324" stroke="#F5C324" stroke-width="0.647331"/>
<rect x="0.323666" y="-0.323666" width="5.50889" height="5.50889" rx="2.75444" transform="matrix(-1 0 0 1 236.344 205.025)" fill="#F5C324" stroke="#F5C324" stroke-width="0.647331"/>
<rect x="0.323666" y="-0.323666" width="5.50889" height="5.50889" rx="2.75444" transform="matrix(-1 0 0 1 220.808 222.25)" fill="#F5C324" stroke="#F5C324" stroke-width="0.647331"/>
<rect x="0.323666" y="-0.323666" width="5.50889" height="5.50889" rx="2.75444" transform="matrix(-1 0 0 1 205.272 217.7)" fill="#F5C324" stroke="#F5C324" stroke-width="0.647331"/>
<rect x="0.323666" y="-0.323666" width="5.50889" height="5.50889" rx="2.75444" transform="matrix(-1 0 0 1 189.736 229.075)" fill="#F5C324" stroke="#F5C324" stroke-width="0.647331"/>
<rect x="0.323666" y="-0.323666" width="5.50889" height="5.50889" rx="2.75444" transform="matrix(-1 0 0 1 251.88 228.425)" fill="#F5C324" stroke="#F5C324" stroke-width="0.647331"/>
<rect x="0.323666" y="-0.323666" width="5.50889" height="5.50889" rx="2.75444" transform="matrix(-1 0 0 1 158.664 221.925)" fill="#F5C324" stroke="#F5C324" stroke-width="0.647331"/>
<rect x="0.323666" y="-0.323666" width="5.50889" height="5.50889" rx="2.75444" transform="matrix(-1 0 0 1 143.128 235.25)" fill="#F5C324" stroke="#F5C324" stroke-width="0.647331"/>
<rect x="0.323666" y="-0.323666" width="5.50889" height="5.50889" rx="2.75444" transform="matrix(-1 0 0 1 127.592 227.45)" fill="#F5C324" stroke="#F5C324" stroke-width="0.647331"/>
<rect x="0.323666" y="-0.323666" width="5.50889" height="5.50889" rx="2.75444" transform="matrix(-1 0 0 1 112.056 218.35)" fill="#F5C324" stroke="#F5C324" stroke-width="0.647331"/>
<rect x="0.323666" y="-0.323666" width="5.50889" height="5.50889" rx="2.75444" transform="matrix(-1 0 0 1 96.5201 238.825)" fill="#F5C324" stroke="#F5C324" stroke-width="0.647331"/>
<rect x="0.323666" y="-0.323666" width="5.50889" height="5.50889" rx="2.75444" transform="matrix(-1 0 0 1 174.2 234.925)" fill="#F5C324" stroke="#F5C324" stroke-width="0.647331"/>
<rect x="0.323666" y="-0.323666" width="5.50889" height="5.50889" rx="2.75444" transform="matrix(-1 0 0 1 65.4481 227.125)" fill="#F5C324" stroke="#F5C324" stroke-width="0.647331"/>
<rect x="0.323666" y="-0.323666" width="5.50889" height="5.50889" rx="2.75444" transform="matrix(-1 0 0 1 49.9122 237.525)" fill="#F5C324" stroke="#F5C324" stroke-width="0.647331"/>
<rect x="0.323666" y="-0.323666" width="5.50889" height="5.50889" rx="2.75444" transform="matrix(-1 0 0 1 34.3763 231.025)" fill="#F5C324" stroke="#F5C324" stroke-width="0.647331"/>
<rect x="0.323666" y="-0.323666" width="5.50889" height="5.50889" rx="2.75444" transform="matrix(-1 0 0 1 18.8404 244.025)" fill="#F5C324" stroke="#F5C324" stroke-width="0.647331"/>
<rect x="0.323666" y="-0.323666" width="5.50889" height="5.50889" rx="2.75444" transform="matrix(-1 0 0 1 80.9842 209.575)" fill="#F5C324" stroke="#F5C324" stroke-width="0.647331"/>
<rect x="0.323666" y="-0.323666" width="5.50889" height="5.50889" rx="2.75444" transform="matrix(-1 0 0 1 3.30456 239.15)" fill="#F5C324" stroke="#F5C324" stroke-width="0.647331"/>
</g>
</g>
<defs>
<clipPath id="clip0_1_2826">
<rect x="0.833252" y="0.5" width="325" height="290" fill="white"/>
</clipPath>
<clipPath id="clip1_1_2826">
<rect width="325" height="104" fill="white" transform="matrix(-1 0 0 1 326.333 186.5)"/>
</clipPath>
<clipPath id="clip2_1_2826">
<rect width="325.133" height="92.581" fill="white" transform="matrix(-1 0 0 1 326.333 197.919)"/>
</clipPath>
<clipPath id="clip3_1_2826">
<rect width="325.133" height="92.625" fill="white" transform="matrix(-1 0 0 1 326.333 197.875)"/>
</clipPath>
</defs>
</svg>
