<svg width="371" height="290" viewBox="0 0 371 290" fill="none" xmlns="http://www.w3.org/2000/svg">
<g clip-path="url(#clip0_1_6691)">
<rect width="371" height="290" fill="#151515"/>
<path d="M29 124C29 107.431 42.4315 94 59 94H312C328.569 94 342 107.431 342 124V290H29V124Z" fill="white"/>
<path d="M68.4856 144V131.04H70.4386L74.9206 140.22L79.4026 131.04H81.3556V144H79.3306V135.693L75.3526 144H74.4886L70.5196 135.693V144H68.4856ZM86.602 144.27C85.9 144.27 85.306 144.138 84.82 143.874C84.334 143.604 83.965 143.247 83.713 142.803C83.467 142.359 83.344 141.87 83.344 141.336C83.344 140.868 83.422 140.448 83.578 140.076C83.734 139.698 83.974 139.374 84.298 139.104C84.622 138.828 85.042 138.603 85.558 138.429C85.948 138.303 86.404 138.189 86.926 138.087C87.454 137.985 88.024 137.892 88.636 137.808C89.254 137.718 89.899 137.622 90.571 137.52L89.797 137.961C89.803 137.289 89.653 136.794 89.347 136.476C89.041 136.158 88.525 135.999 87.799 135.999C87.361 135.999 86.938 136.101 86.53 136.305C86.122 136.509 85.837 136.86 85.675 137.358L83.695 136.737C83.935 135.915 84.391 135.255 85.063 134.757C85.741 134.259 86.653 134.01 87.799 134.01C88.663 134.01 89.422 134.151 90.076 134.433C90.736 134.715 91.225 135.177 91.543 135.819C91.717 136.161 91.822 136.512 91.858 136.872C91.894 137.226 91.912 137.613 91.912 138.033V144H90.013V141.894L90.328 142.236C89.89 142.938 89.377 143.454 88.789 143.784C88.207 144.108 87.478 144.27 86.602 144.27ZM87.034 142.542C87.526 142.542 87.946 142.455 88.294 142.281C88.642 142.107 88.918 141.894 89.122 141.642C89.332 141.39 89.473 141.153 89.545 140.931C89.659 140.655 89.722 140.34 89.734 139.986C89.752 139.626 89.761 139.335 89.761 139.113L90.427 139.311C89.773 139.413 89.212 139.503 88.744 139.581C88.276 139.659 87.874 139.734 87.538 139.806C87.202 139.872 86.905 139.947 86.647 140.031C86.395 140.121 86.182 140.226 86.008 140.346C85.834 140.466 85.699 140.604 85.603 140.76C85.513 140.916 85.468 141.099 85.468 141.309C85.468 141.549 85.528 141.762 85.648 141.948C85.768 142.128 85.942 142.272 86.17 142.38C86.404 142.488 86.692 142.542 87.034 142.542ZM100.978 144V139.32C100.978 139.014 100.957 138.675 100.915 138.303C100.873 137.931 100.774 137.574 100.618 137.232C100.468 136.884 100.24 136.599 99.9341 136.377C99.6341 136.155 99.2261 136.044 98.7101 136.044C98.4341 136.044 98.1611 136.089 97.8911 136.179C97.6211 136.269 97.3751 136.425 97.1531 136.647C96.9371 136.863 96.7631 137.163 96.6311 137.547C96.4991 137.925 96.4331 138.411 96.4331 139.005L95.1461 138.456C95.1461 137.628 95.3051 136.878 95.6231 136.206C95.9471 135.534 96.4211 135 97.0451 134.604C97.6691 134.202 98.4371 134.001 99.3491 134.001C100.069 134.001 100.663 134.121 101.131 134.361C101.599 134.601 101.971 134.907 102.247 135.279C102.523 135.651 102.727 136.047 102.859 136.467C102.991 136.887 103.075 137.286 103.111 137.664C103.153 138.036 103.174 138.339 103.174 138.573V144H100.978ZM94.2371 144V134.28H96.1721V137.295H96.4331V144H94.2371ZM108.241 144.27C107.539 144.27 106.945 144.138 106.459 143.874C105.973 143.604 105.604 143.247 105.352 142.803C105.106 142.359 104.983 141.87 104.983 141.336C104.983 140.868 105.061 140.448 105.217 140.076C105.373 139.698 105.613 139.374 105.937 139.104C106.261 138.828 106.681 138.603 107.197 138.429C107.587 138.303 108.043 138.189 108.565 138.087C109.093 137.985 109.663 137.892 110.275 137.808C110.893 137.718 111.538 137.622 112.21 137.52L111.436 137.961C111.442 137.289 111.292 136.794 110.986 136.476C110.68 136.158 110.164 135.999 109.438 135.999C109 135.999 108.577 136.101 108.169 136.305C107.761 136.509 107.476 136.86 107.314 137.358L105.334 136.737C105.574 135.915 106.03 135.255 106.702 134.757C107.38 134.259 108.292 134.01 109.438 134.01C110.302 134.01 111.061 134.151 111.715 134.433C112.375 134.715 112.864 135.177 113.182 135.819C113.356 136.161 113.461 136.512 113.497 136.872C113.533 137.226 113.551 137.613 113.551 138.033V144H111.652V141.894L111.967 142.236C111.529 142.938 111.016 143.454 110.428 143.784C109.846 144.108 109.117 144.27 108.241 144.27ZM108.673 142.542C109.165 142.542 109.585 142.455 109.933 142.281C110.281 142.107 110.557 141.894 110.761 141.642C110.971 141.39 111.112 141.153 111.184 140.931C111.298 140.655 111.361 140.34 111.373 139.986C111.391 139.626 111.4 139.335 111.4 139.113L112.066 139.311C111.412 139.413 110.851 139.503 110.383 139.581C109.915 139.659 109.513 139.734 109.177 139.806C108.841 139.872 108.544 139.947 108.286 140.031C108.034 140.121 107.821 140.226 107.647 140.346C107.473 140.466 107.338 140.604 107.242 140.76C107.152 140.916 107.107 141.099 107.107 141.309C107.107 141.549 107.167 141.762 107.287 141.948C107.407 142.128 107.581 142.272 107.809 142.38C108.043 142.488 108.331 142.542 108.673 142.542ZM119.98 148.59C119.44 148.59 118.921 148.506 118.423 148.338C117.931 148.17 117.487 147.927 117.091 147.609C116.695 147.297 116.371 146.919 116.119 146.475L118.117 145.485C118.303 145.839 118.564 146.1 118.9 146.268C119.242 146.442 119.605 146.529 119.989 146.529C120.439 146.529 120.841 146.448 121.195 146.286C121.549 146.13 121.822 145.896 122.014 145.584C122.212 145.278 122.305 144.894 122.293 144.432V141.669H122.563V134.28H124.462V144.468C124.462 144.714 124.45 144.948 124.426 145.17C124.408 145.398 124.375 145.62 124.327 145.836C124.183 146.466 123.907 146.982 123.499 147.384C123.091 147.792 122.584 148.095 121.978 148.293C121.378 148.491 120.712 148.59 119.98 148.59ZM119.791 144.27C118.897 144.27 118.117 144.045 117.451 143.595C116.785 143.145 116.269 142.533 115.903 141.759C115.537 140.985 115.354 140.112 115.354 139.14C115.354 138.156 115.537 137.28 115.903 136.512C116.275 135.738 116.8 135.129 117.478 134.685C118.156 134.235 118.954 134.01 119.872 134.01C120.796 134.01 121.57 134.235 122.194 134.685C122.824 135.129 123.301 135.738 123.625 136.512C123.949 137.286 124.111 138.162 124.111 139.14C124.111 140.106 123.949 140.979 123.625 141.759C123.301 142.533 122.818 143.145 122.176 143.595C121.534 144.045 120.739 144.27 119.791 144.27ZM120.124 142.326C120.706 142.326 121.174 142.194 121.528 141.93C121.888 141.66 122.149 141.285 122.311 140.805C122.479 140.325 122.563 139.77 122.563 139.14C122.563 138.504 122.479 137.949 122.311 137.475C122.149 136.995 121.894 136.623 121.546 136.359C121.198 136.089 120.748 135.954 120.196 135.954C119.614 135.954 119.134 136.098 118.756 136.386C118.378 136.668 118.099 137.052 117.919 137.538C117.739 138.018 117.649 138.552 117.649 139.14C117.649 139.734 117.736 140.274 117.91 140.76C118.09 141.24 118.363 141.621 118.729 141.903C119.095 142.185 119.56 142.326 120.124 142.326ZM131.405 144.27C130.421 144.27 129.557 144.057 128.813 143.631C128.069 143.205 127.487 142.614 127.067 141.858C126.653 141.102 126.446 140.232 126.446 139.248C126.446 138.186 126.65 137.265 127.058 136.485C127.466 135.699 128.033 135.09 128.759 134.658C129.485 134.226 130.325 134.01 131.279 134.01C132.287 134.01 133.142 134.247 133.844 134.721C134.552 135.189 135.077 135.852 135.419 136.71C135.761 137.568 135.89 138.579 135.806 139.743H133.655V138.951C133.649 137.895 133.463 137.124 133.097 136.638C132.731 136.152 132.155 135.909 131.369 135.909C130.481 135.909 129.821 136.185 129.389 136.737C128.957 137.283 128.741 138.084 128.741 139.14C128.741 140.124 128.957 140.886 129.389 141.426C129.821 141.966 130.451 142.236 131.279 142.236C131.813 142.236 132.272 142.119 132.656 141.885C133.046 141.645 133.346 141.3 133.556 140.85L135.698 141.498C135.326 142.374 134.75 143.055 133.97 143.541C133.196 144.027 132.341 144.27 131.405 144.27ZM128.057 139.743V138.105H134.744V139.743H128.057ZM142.695 148.32L144.567 143.181L144.603 144.693L140.364 134.28H142.623L145.629 141.984H145.053L147.978 134.28H150.147L144.729 148.32H142.695ZM155.431 144.27C154.459 144.27 153.61 144.051 152.884 143.613C152.158 143.175 151.594 142.572 151.192 141.804C150.796 141.03 150.598 140.142 150.598 139.14C150.598 138.12 150.802 137.226 151.21 136.458C151.618 135.69 152.185 135.09 152.911 134.658C153.637 134.226 154.477 134.01 155.431 134.01C156.409 134.01 157.261 134.229 157.987 134.667C158.713 135.105 159.277 135.711 159.679 136.485C160.081 137.253 160.282 138.138 160.282 139.14C160.282 140.148 160.078 141.039 159.67 141.813C159.268 142.581 158.704 143.184 157.978 143.622C157.252 144.054 156.403 144.27 155.431 144.27ZM155.431 142.236C156.295 142.236 156.937 141.948 157.357 141.372C157.777 140.796 157.987 140.052 157.987 139.14C157.987 138.198 157.774 137.448 157.348 136.89C156.922 136.326 156.283 136.044 155.431 136.044C154.849 136.044 154.369 136.176 153.991 136.44C153.619 136.698 153.343 137.061 153.163 137.529C152.983 137.991 152.893 138.528 152.893 139.14C152.893 140.082 153.106 140.835 153.532 141.399C153.964 141.957 154.597 142.236 155.431 142.236ZM165.91 144.279C165.19 144.279 164.596 144.159 164.128 143.919C163.66 143.679 163.288 143.373 163.012 143.001C162.736 142.629 162.532 142.233 162.4 141.813C162.268 141.393 162.181 140.997 162.139 140.625C162.103 140.247 162.085 139.941 162.085 139.707V134.28H164.281V138.96C164.281 139.26 164.302 139.599 164.344 139.977C164.386 140.349 164.482 140.709 164.632 141.057C164.788 141.399 165.016 141.681 165.316 141.903C165.622 142.125 166.033 142.236 166.549 142.236C166.825 142.236 167.098 142.191 167.368 142.101C167.638 142.011 167.881 141.858 168.097 141.642C168.319 141.42 168.496 141.117 168.628 140.733C168.76 140.349 168.826 139.863 168.826 139.275L170.113 139.824C170.113 140.652 169.951 141.402 169.627 142.074C169.309 142.746 168.838 143.283 168.214 143.685C167.59 144.081 166.822 144.279 165.91 144.279ZM169.087 144V140.985H168.826V134.28H171.004V144H169.087ZM173.532 144V134.28H175.449V136.647L175.215 136.341C175.335 136.017 175.494 135.723 175.692 135.459C175.896 135.189 176.139 134.967 176.421 134.793C176.661 134.631 176.925 134.505 177.213 134.415C177.507 134.319 177.807 134.262 178.113 134.244C178.419 134.22 178.716 134.232 179.004 134.28V136.305C178.716 136.221 178.383 136.194 178.005 136.224C177.633 136.254 177.297 136.359 176.997 136.539C176.697 136.701 176.451 136.908 176.259 137.16C176.073 137.412 175.935 137.7 175.845 138.024C175.755 138.342 175.71 138.687 175.71 139.059V144H173.532ZM188.996 144.27C188.048 144.27 187.253 144.045 186.611 143.595C185.969 143.145 185.486 142.533 185.162 141.759C184.838 140.979 184.676 140.106 184.676 139.14C184.676 138.162 184.838 137.286 185.162 136.512C185.486 135.738 185.96 135.129 186.584 134.685C187.214 134.235 187.991 134.01 188.915 134.01C189.833 134.01 190.628 134.235 191.3 134.685C191.978 135.129 192.503 135.738 192.875 136.512C193.247 137.28 193.433 138.156 193.433 139.14C193.433 140.112 193.25 140.985 192.884 141.759C192.518 142.533 192.002 143.145 191.336 143.595C190.67 144.045 189.89 144.27 188.996 144.27ZM184.307 144V131.04H186.494V137.178H186.224V144H184.307ZM188.663 142.326C189.227 142.326 189.692 142.185 190.058 141.903C190.424 141.621 190.694 141.24 190.868 140.76C191.048 140.274 191.138 139.734 191.138 139.14C191.138 138.552 191.048 138.018 190.868 137.538C190.688 137.052 190.409 136.668 190.031 136.386C189.653 136.098 189.173 135.954 188.591 135.954C188.039 135.954 187.589 136.089 187.241 136.359C186.893 136.623 186.635 136.995 186.467 137.475C186.305 137.949 186.224 138.504 186.224 139.14C186.224 139.77 186.305 140.325 186.467 140.805C186.635 141.285 186.896 141.66 187.25 141.93C187.61 142.194 188.081 142.326 188.663 142.326ZM199.062 144.279C198.342 144.279 197.748 144.159 197.28 143.919C196.812 143.679 196.44 143.373 196.164 143.001C195.888 142.629 195.684 142.233 195.552 141.813C195.42 141.393 195.333 140.997 195.291 140.625C195.255 140.247 195.237 139.941 195.237 139.707V134.28H197.433V138.96C197.433 139.26 197.454 139.599 197.496 139.977C197.538 140.349 197.634 140.709 197.784 141.057C197.94 141.399 198.168 141.681 198.468 141.903C198.774 142.125 199.185 142.236 199.701 142.236C199.977 142.236 200.25 142.191 200.52 142.101C200.79 142.011 201.033 141.858 201.249 141.642C201.471 141.42 201.648 141.117 201.78 140.733C201.912 140.349 201.978 139.863 201.978 139.275L203.265 139.824C203.265 140.652 203.103 141.402 202.779 142.074C202.461 142.746 201.99 143.283 201.366 143.685C200.742 144.081 199.974 144.279 199.062 144.279ZM202.239 144V140.985H201.978V134.28H204.156V144H202.239ZM210.438 144.27C209.238 144.27 208.263 144 207.513 143.46C206.763 142.92 206.307 142.161 206.145 141.183L208.359 140.841C208.473 141.321 208.725 141.699 209.115 141.975C209.505 142.251 209.997 142.389 210.591 142.389C211.113 142.389 211.515 142.287 211.797 142.083C212.085 141.873 212.229 141.588 212.229 141.228C212.229 141.006 212.175 140.829 212.067 140.697C211.965 140.559 211.737 140.427 211.383 140.301C211.029 140.175 210.486 140.016 209.754 139.824C208.938 139.608 208.29 139.377 207.81 139.131C207.33 138.879 206.985 138.582 206.775 138.24C206.565 137.898 206.46 137.484 206.46 136.998C206.46 136.392 206.619 135.864 206.937 135.414C207.255 134.964 207.699 134.619 208.269 134.379C208.839 134.133 209.511 134.01 210.285 134.01C211.041 134.01 211.71 134.127 212.292 134.361C212.88 134.595 213.354 134.928 213.714 135.36C214.074 135.792 214.296 136.299 214.38 136.881L212.166 137.277C212.112 136.863 211.923 136.536 211.599 136.296C211.281 136.056 210.855 135.921 210.321 135.891C209.811 135.861 209.4 135.939 209.088 136.125C208.776 136.305 208.62 136.56 208.62 136.89C208.62 137.076 208.683 137.235 208.809 137.367C208.935 137.499 209.187 137.631 209.565 137.763C209.949 137.895 210.519 138.057 211.275 138.249C212.049 138.447 212.667 138.675 213.129 138.933C213.597 139.185 213.933 139.488 214.137 139.842C214.347 140.196 214.452 140.625 214.452 141.129C214.452 142.107 214.095 142.875 213.381 143.433C212.673 143.991 211.692 144.27 210.438 144.27ZM216.603 132.804V130.815H218.772V132.804H216.603ZM216.603 144V134.28H218.772V144H216.603ZM228.191 144V139.32C228.191 139.014 228.17 138.675 228.128 138.303C228.086 137.931 227.987 137.574 227.831 137.232C227.681 136.884 227.453 136.599 227.147 136.377C226.847 136.155 226.439 136.044 225.923 136.044C225.647 136.044 225.374 136.089 225.104 136.179C224.834 136.269 224.588 136.425 224.366 136.647C224.15 136.863 223.976 137.163 223.844 137.547C223.712 137.925 223.646 138.411 223.646 139.005L222.359 138.456C222.359 137.628 222.518 136.878 222.836 136.206C223.16 135.534 223.634 135 224.258 134.604C224.882 134.202 225.65 134.001 226.562 134.001C227.282 134.001 227.876 134.121 228.344 134.361C228.812 134.601 229.184 134.907 229.46 135.279C229.736 135.651 229.94 136.047 230.072 136.467C230.204 136.887 230.288 137.286 230.324 137.664C230.366 138.036 230.387 138.339 230.387 138.573V144H228.191ZM221.45 144V134.28H223.385V137.295H223.646V144H221.45ZM236.996 144.27C236.012 144.27 235.148 144.057 234.404 143.631C233.66 143.205 233.078 142.614 232.658 141.858C232.244 141.102 232.037 140.232 232.037 139.248C232.037 138.186 232.241 137.265 232.649 136.485C233.057 135.699 233.624 135.09 234.35 134.658C235.076 134.226 235.916 134.01 236.87 134.01C237.878 134.01 238.733 134.247 239.435 134.721C240.143 135.189 240.668 135.852 241.01 136.71C241.352 137.568 241.481 138.579 241.397 139.743H239.246V138.951C239.24 137.895 239.054 137.124 238.688 136.638C238.322 136.152 237.746 135.909 236.96 135.909C236.072 135.909 235.412 136.185 234.98 136.737C234.548 137.283 234.332 138.084 234.332 139.14C234.332 140.124 234.548 140.886 234.98 141.426C235.412 141.966 236.042 142.236 236.87 142.236C237.404 142.236 237.863 142.119 238.247 141.885C238.637 141.645 238.937 141.3 239.147 140.85L241.289 141.498C240.917 142.374 240.341 143.055 239.561 143.541C238.787 144.027 237.932 144.27 236.996 144.27ZM233.648 139.743V138.105H240.335V139.743H233.648ZM247.159 144.27C245.959 144.27 244.984 144 244.234 143.46C243.484 142.92 243.028 142.161 242.866 141.183L245.08 140.841C245.194 141.321 245.446 141.699 245.836 141.975C246.226 142.251 246.718 142.389 247.312 142.389C247.834 142.389 248.236 142.287 248.518 142.083C248.806 141.873 248.95 141.588 248.95 141.228C248.95 141.006 248.896 140.829 248.788 140.697C248.686 140.559 248.458 140.427 248.104 140.301C247.75 140.175 247.207 140.016 246.475 139.824C245.659 139.608 245.011 139.377 244.531 139.131C244.051 138.879 243.706 138.582 243.496 138.24C243.286 137.898 243.181 137.484 243.181 136.998C243.181 136.392 243.34 135.864 243.658 135.414C243.976 134.964 244.42 134.619 244.99 134.379C245.56 134.133 246.232 134.01 247.006 134.01C247.762 134.01 248.431 134.127 249.013 134.361C249.601 134.595 250.075 134.928 250.435 135.36C250.795 135.792 251.017 136.299 251.101 136.881L248.887 137.277C248.833 136.863 248.644 136.536 248.32 136.296C248.002 136.056 247.576 135.921 247.042 135.891C246.532 135.861 246.121 135.939 245.809 136.125C245.497 136.305 245.341 136.56 245.341 136.89C245.341 137.076 245.404 137.235 245.53 137.367C245.656 137.499 245.908 137.631 246.286 137.763C246.67 137.895 247.24 138.057 247.996 138.249C248.77 138.447 249.388 138.675 249.85 138.933C250.318 139.185 250.654 139.488 250.858 139.842C251.068 140.196 251.173 140.625 251.173 141.129C251.173 142.107 250.816 142.875 250.102 143.433C249.394 143.991 248.413 144.27 247.159 144.27ZM256.897 144.27C255.697 144.27 254.722 144 253.972 143.46C253.222 142.92 252.766 142.161 252.604 141.183L254.818 140.841C254.932 141.321 255.184 141.699 255.574 141.975C255.964 142.251 256.456 142.389 257.05 142.389C257.572 142.389 257.974 142.287 258.256 142.083C258.544 141.873 258.688 141.588 258.688 141.228C258.688 141.006 258.634 140.829 258.526 140.697C258.424 140.559 258.196 140.427 257.842 140.301C257.488 140.175 256.945 140.016 256.213 139.824C255.397 139.608 254.749 139.377 254.269 139.131C253.789 138.879 253.444 138.582 253.234 138.24C253.024 137.898 252.919 137.484 252.919 136.998C252.919 136.392 253.078 135.864 253.396 135.414C253.714 134.964 254.158 134.619 254.728 134.379C255.298 134.133 255.97 134.01 256.744 134.01C257.5 134.01 258.169 134.127 258.751 134.361C259.339 134.595 259.813 134.928 260.173 135.36C260.533 135.792 260.755 136.299 260.839 136.881L258.625 137.277C258.571 136.863 258.382 136.536 258.058 136.296C257.74 136.056 257.314 135.921 256.78 135.891C256.27 135.861 255.859 135.939 255.547 136.125C255.235 136.305 255.079 136.56 255.079 136.89C255.079 137.076 255.142 137.235 255.268 137.367C255.394 137.499 255.646 137.631 256.024 137.763C256.408 137.895 256.978 138.057 257.734 138.249C258.508 138.447 259.126 138.675 259.588 138.933C260.056 139.185 260.392 139.488 260.596 139.842C260.806 140.196 260.911 140.625 260.911 141.129C260.911 142.107 260.554 142.875 259.84 143.433C259.132 143.991 258.151 144.27 256.897 144.27ZM268.556 144L265.586 134.262L267.71 134.28L269.609 140.517L271.535 134.28H273.362L275.279 140.517L277.187 134.28H279.311L276.341 144H274.649L272.444 137.313L270.248 144H268.556ZM281.115 132.804V130.815H283.284V132.804H281.115ZM281.115 144V134.28H283.284V144H281.115ZM291.677 144C291.035 144.12 290.405 144.171 289.787 144.153C289.175 144.141 288.626 144.03 288.14 143.82C287.654 143.604 287.285 143.265 287.033 142.803C286.811 142.383 286.694 141.954 286.682 141.516C286.67 141.078 286.664 140.583 286.664 140.031V131.58H288.824V139.905C288.824 140.295 288.827 140.637 288.833 140.931C288.845 141.225 288.908 141.465 289.022 141.651C289.238 142.011 289.583 142.212 290.057 142.254C290.531 142.296 291.071 142.272 291.677 142.182V144ZM284.9 135.981V134.28H291.677V135.981H284.9ZM300.49 144V139.32C300.49 139.014 300.469 138.675 300.427 138.303C300.385 137.931 300.286 137.574 300.13 137.232C299.98 136.884 299.752 136.599 299.446 136.377C299.146 136.155 298.738 136.044 298.222 136.044C297.946 136.044 297.673 136.089 297.403 136.179C297.133 136.269 296.887 136.425 296.665 136.647C296.449 136.863 296.275 137.163 296.143 137.547C296.011 137.925 295.945 138.411 295.945 139.005L294.658 138.456C294.658 137.628 294.817 136.878 295.135 136.206C295.459 135.534 295.933 135 296.557 134.604C297.181 134.202 297.949 134.001 298.861 134.001C299.581 134.001 300.175 134.121 300.643 134.361C301.111 134.601 301.483 134.907 301.759 135.279C302.035 135.651 302.239 136.047 302.371 136.467C302.503 136.887 302.587 137.286 302.623 137.664C302.665 138.036 302.686 138.339 302.686 138.573V144H300.49ZM293.749 144V131.04H295.684V137.862H295.945V144H293.749ZM120.248 168.27C119.3 168.27 118.505 168.045 117.863 167.595C117.221 167.145 116.738 166.533 116.414 165.759C116.09 164.979 115.928 164.106 115.928 163.14C115.928 162.162 116.09 161.286 116.414 160.512C116.738 159.738 117.212 159.129 117.836 158.685C118.466 158.235 119.243 158.01 120.167 158.01C121.085 158.01 121.88 158.235 122.552 158.685C123.23 159.129 123.755 159.738 124.127 160.512C124.499 161.28 124.685 162.156 124.685 163.14C124.685 164.112 124.502 164.985 124.136 165.759C123.77 166.533 123.254 167.145 122.588 167.595C121.922 168.045 121.142 168.27 120.248 168.27ZM115.559 168V155.04H117.746V161.178H117.476V168H115.559ZM119.915 166.326C120.479 166.326 120.944 166.185 121.31 165.903C121.676 165.621 121.946 165.24 122.12 164.76C122.3 164.274 122.39 163.734 122.39 163.14C122.39 162.552 122.3 162.018 122.12 161.538C121.94 161.052 121.661 160.668 121.283 160.386C120.905 160.098 120.425 159.954 119.843 159.954C119.291 159.954 118.841 160.089 118.493 160.359C118.145 160.623 117.887 160.995 117.719 161.475C117.557 161.949 117.476 162.504 117.476 163.14C117.476 163.77 117.557 164.325 117.719 164.805C117.887 165.285 118.148 165.66 118.502 165.93C118.862 166.194 119.333 166.326 119.915 166.326ZM131.088 168.27C130.104 168.27 129.24 168.057 128.496 167.631C127.752 167.205 127.17 166.614 126.75 165.858C126.336 165.102 126.129 164.232 126.129 163.248C126.129 162.186 126.333 161.265 126.741 160.485C127.149 159.699 127.716 159.09 128.442 158.658C129.168 158.226 130.008 158.01 130.962 158.01C131.97 158.01 132.825 158.247 133.527 158.721C134.235 159.189 134.76 159.852 135.102 160.71C135.444 161.568 135.573 162.579 135.489 163.743H133.338V162.951C133.332 161.895 133.146 161.124 132.78 160.638C132.414 160.152 131.838 159.909 131.052 159.909C130.164 159.909 129.504 160.185 129.072 160.737C128.64 161.283 128.424 162.084 128.424 163.14C128.424 164.124 128.64 164.886 129.072 165.426C129.504 165.966 130.134 166.236 130.962 166.236C131.496 166.236 131.955 166.119 132.339 165.885C132.729 165.645 133.029 165.3 133.239 164.85L135.381 165.498C135.009 166.374 134.433 167.055 133.653 167.541C132.879 168.027 132.024 168.27 131.088 168.27ZM127.74 163.743V162.105H134.427V163.743H127.74ZM141.25 168.27C140.05 168.27 139.075 168 138.325 167.46C137.575 166.92 137.119 166.161 136.957 165.183L139.171 164.841C139.285 165.321 139.537 165.699 139.927 165.975C140.317 166.251 140.809 166.389 141.403 166.389C141.925 166.389 142.327 166.287 142.609 166.083C142.897 165.873 143.041 165.588 143.041 165.228C143.041 165.006 142.987 164.829 142.879 164.697C142.777 164.559 142.549 164.427 142.195 164.301C141.841 164.175 141.298 164.016 140.566 163.824C139.75 163.608 139.102 163.377 138.622 163.131C138.142 162.879 137.797 162.582 137.587 162.24C137.377 161.898 137.272 161.484 137.272 160.998C137.272 160.392 137.431 159.864 137.749 159.414C138.067 158.964 138.511 158.619 139.081 158.379C139.651 158.133 140.323 158.01 141.097 158.01C141.853 158.01 142.522 158.127 143.104 158.361C143.692 158.595 144.166 158.928 144.526 159.36C144.886 159.792 145.108 160.299 145.192 160.881L142.978 161.277C142.924 160.863 142.735 160.536 142.411 160.296C142.093 160.056 141.667 159.921 141.133 159.891C140.623 159.861 140.212 159.939 139.9 160.125C139.588 160.305 139.432 160.56 139.432 160.89C139.432 161.076 139.495 161.235 139.621 161.367C139.747 161.499 139.999 161.631 140.377 161.763C140.761 161.895 141.331 162.057 142.087 162.249C142.861 162.447 143.479 162.675 143.941 162.933C144.409 163.185 144.745 163.488 144.949 163.842C145.159 164.196 145.264 164.625 145.264 165.129C145.264 166.107 144.907 166.875 144.193 167.433C143.485 167.991 142.504 168.27 141.25 168.27ZM152.933 168C152.291 168.12 151.661 168.171 151.043 168.153C150.431 168.141 149.882 168.03 149.396 167.82C148.91 167.604 148.541 167.265 148.289 166.803C148.067 166.383 147.95 165.954 147.938 165.516C147.926 165.078 147.92 164.583 147.92 164.031V155.58H150.08V163.905C150.08 164.295 150.083 164.637 150.089 164.931C150.101 165.225 150.164 165.465 150.278 165.651C150.494 166.011 150.839 166.212 151.313 166.254C151.787 166.296 152.327 166.272 152.933 166.182V168ZM146.156 159.981V158.28H152.933V159.981H146.156ZM164.323 168C163.681 168.12 163.051 168.171 162.433 168.153C161.821 168.141 161.272 168.03 160.786 167.82C160.3 167.604 159.931 167.265 159.679 166.803C159.457 166.383 159.34 165.954 159.328 165.516C159.316 165.078 159.31 164.583 159.31 164.031V155.58H161.47V163.905C161.47 164.295 161.473 164.637 161.479 164.931C161.491 165.225 161.554 165.465 161.668 165.651C161.884 166.011 162.229 166.212 162.703 166.254C163.177 166.296 163.717 166.272 164.323 166.182V168ZM157.546 159.981V158.28H164.323V159.981H157.546ZM170.34 168.27C169.356 168.27 168.492 168.057 167.748 167.631C167.004 167.205 166.422 166.614 166.002 165.858C165.588 165.102 165.381 164.232 165.381 163.248C165.381 162.186 165.585 161.265 165.993 160.485C166.401 159.699 166.968 159.09 167.694 158.658C168.42 158.226 169.26 158.01 170.214 158.01C171.222 158.01 172.077 158.247 172.779 158.721C173.487 159.189 174.012 159.852 174.354 160.71C174.696 161.568 174.825 162.579 174.741 163.743H172.59V162.951C172.584 161.895 172.398 161.124 172.032 160.638C171.666 160.152 171.09 159.909 170.304 159.909C169.416 159.909 168.756 160.185 168.324 160.737C167.892 161.283 167.676 162.084 167.676 163.14C167.676 164.124 167.892 164.886 168.324 165.426C168.756 165.966 169.386 166.236 170.214 166.236C170.748 166.236 171.207 166.119 171.591 165.885C171.981 165.645 172.281 165.3 172.491 164.85L174.633 165.498C174.261 166.374 173.685 167.055 172.905 167.541C172.131 168.027 171.276 168.27 170.34 168.27ZM166.992 163.743V162.105H173.679V163.743H166.992ZM180.97 168.27C179.968 168.27 179.113 168.048 178.405 167.604C177.697 167.154 177.154 166.542 176.776 165.768C176.404 164.994 176.215 164.118 176.209 163.14C176.215 162.144 176.41 161.262 176.794 160.494C177.184 159.72 177.736 159.114 178.45 158.676C179.164 158.232 180.013 158.01 180.997 158.01C182.101 158.01 183.034 158.289 183.796 158.847C184.564 159.399 185.065 160.155 185.299 161.115L183.139 161.7C182.971 161.178 182.692 160.773 182.302 160.485C181.912 160.191 181.468 160.044 180.97 160.044C180.406 160.044 179.941 160.179 179.575 160.449C179.209 160.713 178.939 161.079 178.765 161.547C178.591 162.015 178.504 162.546 178.504 163.14C178.504 164.064 178.711 164.811 179.125 165.381C179.539 165.951 180.154 166.236 180.97 166.236C181.546 166.236 181.999 166.104 182.329 165.84C182.665 165.576 182.917 165.195 183.085 164.697L185.299 165.192C184.999 166.182 184.474 166.944 183.724 167.478C182.974 168.006 182.056 168.27 180.97 168.27ZM193.826 168V163.32C193.826 163.014 193.805 162.675 193.763 162.303C193.721 161.931 193.622 161.574 193.466 161.232C193.316 160.884 193.088 160.599 192.782 160.377C192.482 160.155 192.074 160.044 191.558 160.044C191.282 160.044 191.009 160.089 190.739 160.179C190.469 160.269 190.223 160.425 190.001 160.647C189.785 160.863 189.611 161.163 189.479 161.547C189.347 161.925 189.281 162.411 189.281 163.005L187.994 162.456C187.994 161.628 188.153 160.878 188.471 160.206C188.795 159.534 189.269 159 189.893 158.604C190.517 158.202 191.285 158.001 192.197 158.001C192.917 158.001 193.511 158.121 193.979 158.361C194.447 158.601 194.819 158.907 195.095 159.279C195.371 159.651 195.575 160.047 195.707 160.467C195.839 160.887 195.923 161.286 195.959 161.664C196.001 162.036 196.022 162.339 196.022 162.573V168H193.826ZM187.085 168V155.04H189.02V161.862H189.281V168H187.085ZM205.093 168V163.32C205.093 163.014 205.072 162.675 205.03 162.303C204.988 161.931 204.889 161.574 204.733 161.232C204.583 160.884 204.355 160.599 204.049 160.377C203.749 160.155 203.341 160.044 202.825 160.044C202.549 160.044 202.276 160.089 202.006 160.179C201.736 160.269 201.49 160.425 201.268 160.647C201.052 160.863 200.878 161.163 200.746 161.547C200.614 161.925 200.548 162.411 200.548 163.005L199.261 162.456C199.261 161.628 199.42 160.878 199.738 160.206C200.062 159.534 200.536 159 201.16 158.604C201.784 158.202 202.552 158.001 203.464 158.001C204.184 158.001 204.778 158.121 205.246 158.361C205.714 158.601 206.086 158.907 206.362 159.279C206.638 159.651 206.842 160.047 206.974 160.467C207.106 160.887 207.19 161.286 207.226 161.664C207.268 162.036 207.289 162.339 207.289 162.573V168H205.093ZM198.352 168V158.28H200.287V161.295H200.548V168H198.352ZM213.773 168.27C212.801 168.27 211.952 168.051 211.226 167.613C210.5 167.175 209.936 166.572 209.534 165.804C209.138 165.03 208.94 164.142 208.94 163.14C208.94 162.12 209.144 161.226 209.552 160.458C209.96 159.69 210.527 159.09 211.253 158.658C211.979 158.226 212.819 158.01 213.773 158.01C214.751 158.01 215.603 158.229 216.329 158.667C217.055 159.105 217.619 159.711 218.021 160.485C218.423 161.253 218.624 162.138 218.624 163.14C218.624 164.148 218.42 165.039 218.012 165.813C217.61 166.581 217.046 167.184 216.32 167.622C215.594 168.054 214.745 168.27 213.773 168.27ZM213.773 166.236C214.637 166.236 215.279 165.948 215.699 165.372C216.119 164.796 216.329 164.052 216.329 163.14C216.329 162.198 216.116 161.448 215.69 160.89C215.264 160.326 214.625 160.044 213.773 160.044C213.191 160.044 212.711 160.176 212.333 160.44C211.961 160.698 211.685 161.061 211.505 161.529C211.325 161.991 211.235 162.528 211.235 163.14C211.235 164.082 211.448 164.835 211.874 165.399C212.306 165.957 212.939 166.236 213.773 166.236ZM220.787 168V154.77H222.956V168H220.787ZM229.945 168.27C228.973 168.27 228.124 168.051 227.398 167.613C226.672 167.175 226.108 166.572 225.706 165.804C225.31 165.03 225.112 164.142 225.112 163.14C225.112 162.12 225.316 161.226 225.724 160.458C226.132 159.69 226.699 159.09 227.425 158.658C228.151 158.226 228.991 158.01 229.945 158.01C230.923 158.01 231.775 158.229 232.501 158.667C233.227 159.105 233.791 159.711 234.193 160.485C234.595 161.253 234.796 162.138 234.796 163.14C234.796 164.148 234.592 165.039 234.184 165.813C233.782 166.581 233.218 167.184 232.492 167.622C231.766 168.054 230.917 168.27 229.945 168.27ZM229.945 166.236C230.809 166.236 231.451 165.948 231.871 165.372C232.291 164.796 232.501 164.052 232.501 163.14C232.501 162.198 232.288 161.448 231.862 160.89C231.436 160.326 230.797 160.044 229.945 160.044C229.363 160.044 228.883 160.176 228.505 160.44C228.133 160.698 227.857 161.061 227.677 161.529C227.497 161.991 227.407 162.528 227.407 163.14C227.407 164.082 227.62 164.835 228.046 165.399C228.478 165.957 229.111 166.236 229.945 166.236ZM240.865 172.59C240.325 172.59 239.806 172.506 239.308 172.338C238.816 172.17 238.372 171.927 237.976 171.609C237.58 171.297 237.256 170.919 237.004 170.475L239.002 169.485C239.188 169.839 239.449 170.1 239.785 170.268C240.127 170.442 240.49 170.529 240.874 170.529C241.324 170.529 241.726 170.448 242.08 170.286C242.434 170.13 242.707 169.896 242.899 169.584C243.097 169.278 243.19 168.894 243.178 168.432V165.669H243.448V158.28H245.347V168.468C245.347 168.714 245.335 168.948 245.311 169.17C245.293 169.398 245.26 169.62 245.212 169.836C245.068 170.466 244.792 170.982 244.384 171.384C243.976 171.792 243.469 172.095 242.863 172.293C242.263 172.491 241.597 172.59 240.865 172.59ZM240.676 168.27C239.782 168.27 239.002 168.045 238.336 167.595C237.67 167.145 237.154 166.533 236.788 165.759C236.422 164.985 236.239 164.112 236.239 163.14C236.239 162.156 236.422 161.28 236.788 160.512C237.16 159.738 237.685 159.129 238.363 158.685C239.041 158.235 239.839 158.01 240.757 158.01C241.681 158.01 242.455 158.235 243.079 158.685C243.709 159.129 244.186 159.738 244.51 160.512C244.834 161.286 244.996 162.162 244.996 163.14C244.996 164.106 244.834 164.979 244.51 165.759C244.186 166.533 243.703 167.145 243.061 167.595C242.419 168.045 241.624 168.27 240.676 168.27ZM241.009 166.326C241.591 166.326 242.059 166.194 242.413 165.93C242.773 165.66 243.034 165.285 243.196 164.805C243.364 164.325 243.448 163.77 243.448 163.14C243.448 162.504 243.364 161.949 243.196 161.475C243.034 160.995 242.779 160.623 242.431 160.359C242.083 160.089 241.633 159.954 241.081 159.954C240.499 159.954 240.019 160.098 239.641 160.386C239.263 160.668 238.984 161.052 238.804 161.538C238.624 162.018 238.534 162.552 238.534 163.14C238.534 163.734 238.621 164.274 238.795 164.76C238.975 165.24 239.248 165.621 239.614 165.903C239.98 166.185 240.445 166.326 241.009 166.326ZM249.148 172.32L251.02 167.181L251.056 168.693L246.817 158.28H249.076L252.082 165.984H251.506L254.431 158.28H256.6L251.182 172.32H249.148Z" fill="#151515"/>
<path d="M75.9922 201.21C74.9888 201.21 74.1372 200.988 73.4372 200.545C72.7372 200.102 72.2028 199.486 71.8342 198.697C71.4702 197.908 71.2882 196.996 71.2882 195.96C71.2882 194.924 71.4702 194.012 71.8342 193.223C72.2028 192.434 72.7372 191.818 73.4372 191.375C74.1372 190.932 74.9888 190.71 75.9922 190.71C77.1588 190.71 78.1178 191.006 78.8692 191.599C79.6252 192.192 80.1455 192.99 80.4302 193.993L79.1632 194.329C78.9578 193.578 78.5915 192.985 78.0642 192.551C77.5368 192.117 76.8462 191.9 75.9922 191.9C75.2408 191.9 74.6155 192.07 74.1162 192.411C73.6168 192.752 73.2412 193.228 72.9892 193.839C72.7372 194.446 72.6088 195.153 72.6042 195.96C72.5995 196.763 72.7232 197.47 72.9752 198.081C73.2272 198.688 73.6052 199.164 74.1092 199.509C74.6132 199.85 75.2408 200.02 75.9922 200.02C76.8462 200.02 77.5368 199.803 78.0642 199.369C78.5915 198.93 78.9578 198.338 79.1632 197.591L80.4302 197.927C80.1455 198.926 79.6252 199.724 78.8692 200.321C78.1178 200.914 77.1588 201.21 75.9922 201.21ZM81.9654 201V193.44H83.0784V195.267L82.8964 195.029C82.985 194.796 83.0994 194.581 83.2394 194.385C83.384 194.189 83.545 194.028 83.7224 193.902C83.9184 193.743 84.14 193.622 84.3874 193.538C84.6347 193.454 84.8867 193.405 85.1434 193.391C85.4 193.372 85.6404 193.389 85.8644 193.44V194.609C85.603 194.539 85.316 194.52 85.0034 194.553C84.6907 194.586 84.4014 194.7 84.1354 194.896C83.8927 195.069 83.7037 195.279 83.5684 195.526C83.4377 195.773 83.3467 196.042 83.2954 196.331C83.244 196.616 83.2184 196.907 83.2184 197.206V201H81.9654ZM90.3273 201.21C89.5853 201.21 88.9366 201.047 88.3813 200.72C87.8306 200.389 87.4013 199.929 87.0933 199.341C86.7853 198.748 86.6313 198.058 86.6313 197.269C86.6313 196.443 86.783 195.729 87.0863 195.127C87.3896 194.52 87.812 194.054 88.3533 193.727C88.8993 193.396 89.5386 193.23 90.2713 193.23C91.032 193.23 91.6783 193.405 92.2103 193.755C92.747 194.105 93.1483 194.604 93.4143 195.253C93.685 195.902 93.8016 196.674 93.7643 197.57H92.5043V197.122C92.4903 196.193 92.3013 195.5 91.9373 195.043C91.5733 194.581 91.032 194.35 90.3133 194.35C89.5433 194.35 88.9576 194.597 88.5563 195.092C88.155 195.587 87.9543 196.296 87.9543 197.22C87.9543 198.111 88.155 198.802 88.5563 199.292C88.9576 199.782 89.5293 200.027 90.2713 200.027C90.7706 200.027 91.2046 199.913 91.5733 199.684C91.942 199.455 92.2313 199.126 92.4413 198.697L93.6383 199.11C93.3443 199.777 92.901 200.295 92.3083 200.664C91.7203 201.028 91.06 201.21 90.3273 201.21ZM87.5343 197.57V196.569H93.1203V197.57H87.5343ZM97.3351 201.21C96.7704 201.21 96.2967 201.107 95.9141 200.902C95.5361 200.692 95.2491 200.417 95.0531 200.076C94.8617 199.735 94.7661 199.362 94.7661 198.956C94.7661 198.559 94.8407 198.216 94.9901 197.927C95.1441 197.633 95.3587 197.39 95.6341 197.199C95.9094 197.003 96.2384 196.849 96.6211 196.737C96.9804 196.639 97.3817 196.555 97.8251 196.485C98.2731 196.41 98.7257 196.343 99.1831 196.282C99.6404 196.221 100.067 196.163 100.464 196.107L100.016 196.366C100.03 195.694 99.8947 195.197 99.6101 194.875C99.3301 194.553 98.8447 194.392 98.1541 194.392C97.6967 194.392 97.2954 194.497 96.9501 194.707C96.6094 194.912 96.3691 195.248 96.2291 195.715L95.0461 195.358C95.2281 194.695 95.5804 194.175 96.1031 193.797C96.6257 193.419 97.3141 193.23 98.1681 193.23C98.8541 193.23 99.4421 193.354 99.9321 193.601C100.427 193.844 100.781 194.212 100.996 194.707C101.103 194.94 101.171 195.195 101.199 195.47C101.227 195.741 101.241 196.025 101.241 196.324V201H100.135V199.187L100.394 199.355C100.109 199.966 99.7104 200.428 99.1971 200.741C98.6884 201.054 98.0677 201.21 97.3351 201.21ZM97.5241 200.167C97.9721 200.167 98.3594 200.088 98.6861 199.929C99.0174 199.766 99.2834 199.553 99.4841 199.292C99.6847 199.026 99.8154 198.737 99.8761 198.424C99.9461 198.191 99.9834 197.932 99.9881 197.647C99.9974 197.358 100.002 197.136 100.002 196.982L100.436 197.171C100.03 197.227 99.6311 197.281 99.2391 197.332C98.8471 197.383 98.4761 197.439 98.1261 197.5C97.7761 197.556 97.4611 197.624 97.1811 197.703C96.9757 197.768 96.7821 197.852 96.6001 197.955C96.4227 198.058 96.2781 198.191 96.1661 198.354C96.0587 198.513 96.0051 198.711 96.0051 198.949C96.0051 199.154 96.0564 199.35 96.1591 199.537C96.2664 199.724 96.4297 199.875 96.6491 199.992C96.8731 200.109 97.1647 200.167 97.5241 200.167ZM107.282 201C106.834 201.089 106.391 201.124 105.952 201.105C105.518 201.091 105.131 201.005 104.79 200.846C104.449 200.683 104.19 200.431 104.013 200.09C103.864 199.791 103.782 199.49 103.768 199.187C103.759 198.879 103.754 198.531 103.754 198.144V191.34H105V198.088C105 198.396 105.002 198.66 105.007 198.879C105.016 199.098 105.065 199.287 105.154 199.446C105.322 199.745 105.588 199.92 105.952 199.971C106.321 200.022 106.764 200.008 107.282 199.929V201ZM102.221 194.469V193.44H107.282V194.469H102.221ZM111.778 201.21C111.036 201.21 110.388 201.047 109.832 200.72C109.282 200.389 108.852 199.929 108.544 199.341C108.236 198.748 108.082 198.058 108.082 197.269C108.082 196.443 108.234 195.729 108.537 195.127C108.841 194.52 109.263 194.054 109.804 193.727C110.35 193.396 110.99 193.23 111.722 193.23C112.483 193.23 113.129 193.405 113.661 193.755C114.198 194.105 114.599 194.604 114.865 195.253C115.136 195.902 115.253 196.674 115.215 197.57H113.955V197.122C113.941 196.193 113.752 195.5 113.388 195.043C113.024 194.581 112.483 194.35 111.764 194.35C110.994 194.35 110.409 194.597 110.007 195.092C109.606 195.587 109.405 196.296 109.405 197.22C109.405 198.111 109.606 198.802 110.007 199.292C110.409 199.782 110.98 200.027 111.722 200.027C112.222 200.027 112.656 199.913 113.024 199.684C113.393 199.455 113.682 199.126 113.892 198.697L115.089 199.11C114.795 199.777 114.352 200.295 113.759 200.664C113.171 201.028 112.511 201.21 111.778 201.21ZM108.985 197.57V196.569H114.571V197.57H108.985ZM121.726 201.21C121.161 201.21 120.687 201.107 120.305 200.902C119.927 200.692 119.64 200.417 119.444 200.076C119.252 199.735 119.157 199.362 119.157 198.956C119.157 198.559 119.231 198.216 119.381 197.927C119.535 197.633 119.749 197.39 120.025 197.199C120.3 197.003 120.629 196.849 121.012 196.737C121.371 196.639 121.772 196.555 122.216 196.485C122.664 196.41 123.116 196.343 123.574 196.282C124.031 196.221 124.458 196.163 124.855 196.107L124.407 196.366C124.421 195.694 124.285 195.197 124.001 194.875C123.721 194.553 123.235 194.392 122.545 194.392C122.087 194.392 121.686 194.497 121.341 194.707C121 194.912 120.76 195.248 120.62 195.715L119.437 195.358C119.619 194.695 119.971 194.175 120.494 193.797C121.016 193.419 121.705 193.23 122.559 193.23C123.245 193.23 123.833 193.354 124.323 193.601C124.817 193.844 125.172 194.212 125.387 194.707C125.494 194.94 125.562 195.195 125.59 195.47C125.618 195.741 125.632 196.025 125.632 196.324V201H124.526V199.187L124.785 199.355C124.5 199.966 124.101 200.428 123.588 200.741C123.079 201.054 122.458 201.21 121.726 201.21ZM121.915 200.167C122.363 200.167 122.75 200.088 123.077 199.929C123.408 199.766 123.674 199.553 123.875 199.292C124.075 199.026 124.206 198.737 124.267 198.424C124.337 198.191 124.374 197.932 124.379 197.647C124.388 197.358 124.393 197.136 124.393 196.982L124.827 197.171C124.421 197.227 124.022 197.281 123.63 197.332C123.238 197.383 122.867 197.439 122.517 197.5C122.167 197.556 121.852 197.624 121.572 197.703C121.366 197.768 121.173 197.852 120.991 197.955C120.813 198.058 120.669 198.191 120.557 198.354C120.449 198.513 120.396 198.711 120.396 198.949C120.396 199.154 120.447 199.35 120.55 199.537C120.657 199.724 120.82 199.875 121.04 199.992C121.264 200.109 121.555 200.167 121.915 200.167ZM132.835 201V197.213C132.835 196.854 132.802 196.508 132.737 196.177C132.676 195.846 132.566 195.549 132.408 195.288C132.254 195.022 132.044 194.812 131.778 194.658C131.516 194.504 131.185 194.427 130.784 194.427C130.471 194.427 130.186 194.481 129.93 194.588C129.678 194.691 129.461 194.849 129.279 195.064C129.097 195.279 128.954 195.549 128.852 195.876C128.754 196.198 128.705 196.578 128.705 197.017L127.886 196.765C127.886 196.032 128.016 195.405 128.278 194.882C128.544 194.355 128.915 193.951 129.391 193.671C129.871 193.386 130.436 193.244 131.085 193.244C131.575 193.244 131.992 193.321 132.338 193.475C132.683 193.629 132.97 193.834 133.199 194.091C133.427 194.343 133.607 194.628 133.738 194.945C133.868 195.258 133.959 195.577 134.011 195.904C134.067 196.226 134.095 196.532 134.095 196.821V201H132.835ZM127.445 201V193.44H128.565V195.463H128.705V201H127.445ZM141.937 201.21C141.186 201.21 140.537 201.04 139.991 200.699C139.45 200.358 139.032 199.887 138.738 199.285C138.444 198.683 138.297 197.992 138.297 197.213C138.297 196.42 138.447 195.724 138.745 195.127C139.044 194.53 139.466 194.065 140.012 193.734C140.558 193.398 141.2 193.23 141.937 193.23C142.693 193.23 143.344 193.4 143.89 193.741C144.436 194.077 144.854 194.546 145.143 195.148C145.437 195.745 145.584 196.434 145.584 197.213C145.584 198.002 145.437 198.697 145.143 199.299C144.849 199.896 144.429 200.365 143.883 200.706C143.337 201.042 142.689 201.21 141.937 201.21ZM141.937 200.027C142.721 200.027 143.305 199.766 143.687 199.243C144.07 198.72 144.261 198.044 144.261 197.213C144.261 196.359 144.068 195.68 143.68 195.176C143.293 194.667 142.712 194.413 141.937 194.413C141.41 194.413 140.976 194.532 140.635 194.77C140.295 195.008 140.04 195.337 139.872 195.757C139.704 196.177 139.62 196.662 139.62 197.213C139.62 198.062 139.816 198.744 140.208 199.257C140.6 199.77 141.177 200.027 141.937 200.027ZM152.509 201V197.213C152.509 196.854 152.476 196.508 152.411 196.177C152.35 195.846 152.24 195.549 152.082 195.288C151.928 195.022 151.718 194.812 151.452 194.658C151.19 194.504 150.859 194.427 150.458 194.427C150.145 194.427 149.86 194.481 149.604 194.588C149.352 194.691 149.135 194.849 148.953 195.064C148.771 195.279 148.628 195.549 148.526 195.876C148.428 196.198 148.379 196.578 148.379 197.017L147.56 196.765C147.56 196.032 147.69 195.405 147.952 194.882C148.218 194.355 148.589 193.951 149.065 193.671C149.545 193.386 150.11 193.244 150.759 193.244C151.249 193.244 151.666 193.321 152.012 193.475C152.357 193.629 152.644 193.834 152.873 194.091C153.101 194.343 153.281 194.628 153.412 194.945C153.542 195.258 153.633 195.577 153.685 195.904C153.741 196.226 153.769 196.532 153.769 196.821V201H152.509ZM147.119 201V193.44H148.239V195.463H148.379V201H147.119ZM155.728 201V190.71H156.974V201H155.728ZM159.215 192.103V190.815H160.461V192.103H159.215ZM159.215 201V193.44H160.461V201H159.215ZM167.944 201V197.213C167.944 196.854 167.911 196.508 167.846 196.177C167.785 195.846 167.676 195.549 167.517 195.288C167.363 195.022 167.153 194.812 166.887 194.658C166.626 194.504 166.294 194.427 165.893 194.427C165.58 194.427 165.296 194.481 165.039 194.588C164.787 194.691 164.57 194.849 164.388 195.064C164.206 195.279 164.064 195.549 163.961 195.876C163.863 196.198 163.814 196.578 163.814 197.017L162.995 196.765C162.995 196.032 163.126 195.405 163.387 194.882C163.653 194.355 164.024 193.951 164.5 193.671C164.981 193.386 165.545 193.244 166.194 193.244C166.684 193.244 167.102 193.321 167.447 193.475C167.792 193.629 168.079 193.834 168.308 194.091C168.537 194.343 168.716 194.628 168.847 194.945C168.978 195.258 169.069 195.577 169.12 195.904C169.176 196.226 169.204 196.532 169.204 196.821V201H167.944ZM162.554 201V193.44H163.674V195.463H163.814V201H162.554ZM174.232 201.21C173.49 201.21 172.841 201.047 172.286 200.72C171.735 200.389 171.306 199.929 170.998 199.341C170.69 198.748 170.536 198.058 170.536 197.269C170.536 196.443 170.687 195.729 170.991 195.127C171.294 194.52 171.716 194.054 172.258 193.727C172.804 193.396 173.443 193.23 174.176 193.23C174.936 193.23 175.583 193.405 176.115 193.755C176.651 194.105 177.053 194.604 177.319 195.253C177.589 195.902 177.706 196.674 177.669 197.57H176.409V197.122C176.395 196.193 176.206 195.5 175.842 195.043C175.478 194.581 174.936 194.35 174.218 194.35C173.448 194.35 172.862 194.597 172.461 195.092C172.059 195.587 171.859 196.296 171.859 197.22C171.859 198.111 172.059 198.802 172.461 199.292C172.862 199.782 173.434 200.027 174.176 200.027C174.675 200.027 175.109 199.913 175.478 199.684C175.846 199.455 176.136 199.126 176.346 198.697L177.543 199.11C177.249 199.777 176.805 200.295 176.213 200.664C175.625 201.028 174.964 201.21 174.232 201.21ZM171.439 197.57V196.569H177.025V197.57H171.439ZM184.886 201.203C183.985 201.203 183.245 201.007 182.667 200.615C182.093 200.218 181.74 199.665 181.61 198.956L182.884 198.753C182.986 199.164 183.222 199.49 183.591 199.733C183.959 199.971 184.417 200.09 184.963 200.09C185.481 200.09 185.887 199.983 186.181 199.768C186.475 199.553 186.622 199.262 186.622 198.893C186.622 198.678 186.573 198.506 186.475 198.375C186.377 198.24 186.174 198.114 185.866 197.997C185.562 197.88 185.103 197.74 184.487 197.577C183.819 197.4 183.294 197.215 182.912 197.024C182.529 196.833 182.256 196.611 182.093 196.359C181.929 196.107 181.848 195.801 181.848 195.442C181.848 194.999 181.969 194.611 182.212 194.28C182.454 193.944 182.793 193.685 183.227 193.503C183.665 193.321 184.174 193.23 184.753 193.23C185.327 193.23 185.84 193.321 186.293 193.503C186.745 193.685 187.109 193.944 187.385 194.28C187.665 194.611 187.83 194.999 187.882 195.442L186.608 195.673C186.547 195.267 186.351 194.947 186.02 194.714C185.693 194.481 185.271 194.357 184.753 194.343C184.263 194.324 183.864 194.411 183.556 194.602C183.252 194.793 183.101 195.052 183.101 195.379C183.101 195.561 183.157 195.717 183.269 195.848C183.385 195.979 183.598 196.102 183.906 196.219C184.218 196.336 184.671 196.469 185.264 196.618C185.931 196.786 186.456 196.97 186.839 197.171C187.226 197.367 187.501 197.6 187.665 197.871C187.828 198.137 187.91 198.466 187.91 198.858C187.91 199.586 187.641 200.16 187.105 200.58C186.568 200.995 185.828 201.203 184.886 201.203ZM193.675 201C193.227 201.089 192.783 201.124 192.345 201.105C191.911 201.091 191.523 201.005 191.183 200.846C190.842 200.683 190.583 200.431 190.406 200.09C190.256 199.791 190.175 199.49 190.161 199.187C190.151 198.879 190.147 198.531 190.147 198.144V191.34H191.393V198.088C191.393 198.396 191.395 198.66 191.4 198.879C191.409 199.098 191.458 199.287 191.547 199.446C191.715 199.745 191.981 199.92 192.345 199.971C192.713 200.022 193.157 200.008 193.675 199.929V201ZM188.614 194.469V193.44H193.675V194.469H188.614ZM198.115 201.21C197.364 201.21 196.715 201.04 196.169 200.699C195.628 200.358 195.21 199.887 194.916 199.285C194.622 198.683 194.475 197.992 194.475 197.213C194.475 196.42 194.624 195.724 194.923 195.127C195.222 194.53 195.644 194.065 196.19 193.734C196.736 193.398 197.378 193.23 198.115 193.23C198.871 193.23 199.522 193.4 200.068 193.741C200.614 194.077 201.032 194.546 201.321 195.148C201.615 195.745 201.762 196.434 201.762 197.213C201.762 198.002 201.615 198.697 201.321 199.299C201.027 199.896 200.607 200.365 200.061 200.706C199.515 201.042 198.866 201.21 198.115 201.21ZM198.115 200.027C198.899 200.027 199.482 199.766 199.865 199.243C200.248 198.72 200.439 198.044 200.439 197.213C200.439 196.359 200.245 195.68 199.858 195.176C199.471 194.667 198.89 194.413 198.115 194.413C197.588 194.413 197.154 194.532 196.813 194.77C196.472 195.008 196.218 195.337 196.05 195.757C195.882 196.177 195.798 196.662 195.798 197.213C195.798 198.062 195.994 198.744 196.386 199.257C196.778 199.77 197.354 200.027 198.115 200.027ZM203.303 201V193.44H204.416V195.267L204.234 195.029C204.323 194.796 204.437 194.581 204.577 194.385C204.722 194.189 204.883 194.028 205.06 193.902C205.256 193.743 205.478 193.622 205.725 193.538C205.973 193.454 206.225 193.405 206.481 193.391C206.738 193.372 206.978 193.389 207.202 193.44V194.609C206.941 194.539 206.654 194.52 206.341 194.553C206.029 194.586 205.739 194.7 205.473 194.896C205.231 195.069 205.042 195.279 204.906 195.526C204.776 195.773 204.685 196.042 204.633 196.331C204.582 196.616 204.556 196.907 204.556 197.206V201H203.303ZM211.665 201.21C210.923 201.21 210.275 201.047 209.719 200.72C209.169 200.389 208.739 199.929 208.431 199.341C208.123 198.748 207.969 198.058 207.969 197.269C207.969 196.443 208.121 195.729 208.424 195.127C208.728 194.52 209.15 194.054 209.691 193.727C210.237 193.396 210.877 193.23 211.609 193.23C212.37 193.23 213.016 193.405 213.548 193.755C214.085 194.105 214.486 194.604 214.752 195.253C215.023 195.902 215.14 196.674 215.102 197.57H213.842V197.122C213.828 196.193 213.639 195.5 213.275 195.043C212.911 194.581 212.37 194.35 211.651 194.35C210.881 194.35 210.296 194.597 209.894 195.092C209.493 195.587 209.292 196.296 209.292 197.22C209.292 198.111 209.493 198.802 209.894 199.292C210.296 199.782 210.867 200.027 211.609 200.027C212.109 200.027 212.543 199.913 212.911 199.684C213.28 199.455 213.569 199.126 213.779 198.697L214.976 199.11C214.682 199.777 214.239 200.295 213.646 200.664C213.058 201.028 212.398 201.21 211.665 201.21ZM208.872 197.57V196.569H214.458V197.57H208.872ZM219.603 192.103V190.815H220.849V192.103H219.603ZM219.603 201V193.44H220.849V201H219.603ZM228.333 201V197.213C228.333 196.854 228.3 196.508 228.235 196.177C228.174 195.846 228.064 195.549 227.906 195.288C227.752 195.022 227.542 194.812 227.276 194.658C227.014 194.504 226.683 194.427 226.282 194.427C225.969 194.427 225.684 194.481 225.428 194.588C225.176 194.691 224.959 194.849 224.777 195.064C224.595 195.279 224.452 195.549 224.35 195.876C224.252 196.198 224.203 196.578 224.203 197.017L223.384 196.765C223.384 196.032 223.514 195.405 223.776 194.882C224.042 194.355 224.413 193.951 224.889 193.671C225.369 193.386 225.934 193.244 226.583 193.244C227.073 193.244 227.49 193.321 227.836 193.475C228.181 193.629 228.468 193.834 228.697 194.091C228.925 194.343 229.105 194.628 229.236 194.945C229.366 195.258 229.457 195.577 229.509 195.904C229.565 196.226 229.593 196.532 229.593 196.821V201H228.333ZM222.943 201V193.44H224.063V195.463H224.203V201H222.943ZM237.197 201.21C236.679 201.21 236.196 201.103 235.748 200.888C235.305 200.673 234.925 200.379 234.607 200.006C234.295 199.628 234.071 199.194 233.935 198.704L235.132 198.382C235.216 198.713 235.366 199 235.58 199.243C235.795 199.481 236.045 199.668 236.329 199.803C236.619 199.934 236.92 199.999 237.232 199.999C237.643 199.999 238.012 199.901 238.338 199.705C238.67 199.504 238.931 199.241 239.122 198.914C239.314 198.583 239.409 198.221 239.409 197.829C239.409 197.423 239.309 197.057 239.108 196.73C238.912 196.399 238.649 196.137 238.317 195.946C237.986 195.755 237.624 195.659 237.232 195.659C236.789 195.659 236.409 195.752 236.091 195.939C235.779 196.121 235.531 196.345 235.349 196.611L234.243 196.191L234.551 190.92H239.962V192.103H235.153L235.706 191.585L235.447 195.806L235.174 195.449C235.454 195.15 235.788 194.919 236.175 194.756C236.567 194.593 236.966 194.511 237.372 194.511C237.998 194.511 238.558 194.658 239.052 194.952C239.547 195.241 239.939 195.638 240.228 196.142C240.518 196.641 240.662 197.204 240.662 197.829C240.662 198.45 240.504 199.017 240.186 199.53C239.869 200.039 239.447 200.447 238.919 200.755C238.397 201.058 237.823 201.21 237.197 201.21ZM247.995 201.203C247.095 201.203 246.355 201.007 245.776 200.615C245.202 200.218 244.85 199.665 244.719 198.956L245.993 198.753C246.096 199.164 246.332 199.49 246.7 199.733C247.069 199.971 247.526 200.09 248.072 200.09C248.59 200.09 248.996 199.983 249.29 199.768C249.584 199.553 249.731 199.262 249.731 198.893C249.731 198.678 249.682 198.506 249.584 198.375C249.486 198.24 249.283 198.114 248.975 197.997C248.672 197.88 248.212 197.74 247.596 197.577C246.929 197.4 246.404 197.215 246.021 197.024C245.639 196.833 245.366 196.611 245.202 196.359C245.039 196.107 244.957 195.801 244.957 195.442C244.957 194.999 245.079 194.611 245.321 194.28C245.564 193.944 245.902 193.685 246.336 193.503C246.775 193.321 247.284 193.23 247.862 193.23C248.436 193.23 248.95 193.321 249.402 193.503C249.855 193.685 250.219 193.944 250.494 194.28C250.774 194.611 250.94 194.999 250.991 195.442L249.717 195.673C249.657 195.267 249.461 194.947 249.129 194.714C248.803 194.481 248.38 194.357 247.862 194.343C247.372 194.324 246.973 194.411 246.665 194.602C246.362 194.793 246.21 195.052 246.21 195.379C246.21 195.561 246.266 195.717 246.378 195.848C246.495 195.979 246.707 196.102 247.015 196.219C247.328 196.336 247.781 196.469 248.373 196.618C249.041 196.786 249.566 196.97 249.948 197.171C250.336 197.367 250.611 197.6 250.774 197.871C250.938 198.137 251.019 198.466 251.019 198.858C251.019 199.586 250.751 200.16 250.214 200.58C249.678 200.995 248.938 201.203 247.995 201.203ZM255.839 201.21C255.097 201.21 254.448 201.047 253.893 200.72C253.342 200.389 252.913 199.929 252.605 199.341C252.297 198.748 252.143 198.058 252.143 197.269C252.143 196.443 252.295 195.729 252.598 195.127C252.901 194.52 253.324 194.054 253.865 193.727C254.411 193.396 255.05 193.23 255.783 193.23C256.544 193.23 257.19 193.405 257.722 193.755C258.259 194.105 258.66 194.604 258.926 195.253C259.197 195.902 259.313 196.674 259.276 197.57H258.016V197.122C258.002 196.193 257.813 195.5 257.449 195.043C257.085 194.581 256.544 194.35 255.825 194.35C255.055 194.35 254.469 194.597 254.068 195.092C253.667 195.587 253.466 196.296 253.466 197.22C253.466 198.111 253.667 198.802 254.068 199.292C254.469 199.782 255.041 200.027 255.783 200.027C256.282 200.027 256.716 199.913 257.085 199.684C257.454 199.455 257.743 199.126 257.953 198.697L259.15 199.11C258.856 199.777 258.413 200.295 257.82 200.664C257.232 201.028 256.572 201.21 255.839 201.21ZM253.046 197.57V196.569H258.632V197.57H253.046ZM264.019 201.21C263.254 201.21 262.603 201.04 262.066 200.699C261.534 200.354 261.128 199.88 260.848 199.278C260.568 198.676 260.424 197.99 260.414 197.22C260.424 196.431 260.571 195.738 260.855 195.141C261.145 194.539 261.558 194.07 262.094 193.734C262.631 193.398 263.277 193.23 264.033 193.23C264.831 193.23 265.517 193.426 266.091 193.818C266.67 194.21 267.057 194.747 267.253 195.428L266.021 195.799C265.863 195.36 265.604 195.02 265.244 194.777C264.89 194.534 264.481 194.413 264.019 194.413C263.501 194.413 263.074 194.534 262.738 194.777C262.402 195.015 262.153 195.346 261.989 195.771C261.826 196.191 261.742 196.674 261.737 197.22C261.747 198.06 261.94 198.739 262.318 199.257C262.701 199.77 263.268 200.027 264.019 200.027C264.514 200.027 264.925 199.915 265.251 199.691C265.578 199.462 265.825 199.133 265.993 198.704L267.253 199.033C266.992 199.738 266.584 200.277 266.028 200.65C265.473 201.023 264.803 201.21 264.019 201.21ZM271.697 201.21C270.946 201.21 270.297 201.04 269.751 200.699C269.21 200.358 268.792 199.887 268.498 199.285C268.204 198.683 268.057 197.992 268.057 197.213C268.057 196.42 268.206 195.724 268.505 195.127C268.804 194.53 269.226 194.065 269.772 193.734C270.318 193.398 270.96 193.23 271.697 193.23C272.453 193.23 273.104 193.4 273.65 193.741C274.196 194.077 274.614 194.546 274.903 195.148C275.197 195.745 275.344 196.434 275.344 197.213C275.344 198.002 275.197 198.697 274.903 199.299C274.609 199.896 274.189 200.365 273.643 200.706C273.097 201.042 272.448 201.21 271.697 201.21ZM271.697 200.027C272.481 200.027 273.064 199.766 273.447 199.243C273.83 198.72 274.021 198.044 274.021 197.213C274.021 196.359 273.827 195.68 273.44 195.176C273.053 194.667 272.472 194.413 271.697 194.413C271.17 194.413 270.736 194.532 270.395 194.77C270.054 195.008 269.8 195.337 269.632 195.757C269.464 196.177 269.38 196.662 269.38 197.213C269.38 198.062 269.576 198.744 269.968 199.257C270.36 199.77 270.936 200.027 271.697 200.027ZM282.268 201V197.213C282.268 196.854 282.236 196.508 282.17 196.177C282.11 195.846 282 195.549 281.841 195.288C281.687 195.022 281.477 194.812 281.211 194.658C280.95 194.504 280.619 194.427 280.217 194.427C279.905 194.427 279.62 194.481 279.363 194.588C279.111 194.691 278.894 194.849 278.712 195.064C278.53 195.279 278.388 195.549 278.285 195.876C278.187 196.198 278.138 196.578 278.138 197.017L277.319 196.765C277.319 196.032 277.45 195.405 277.711 194.882C277.977 194.355 278.348 193.951 278.824 193.671C279.305 193.386 279.87 193.244 280.518 193.244C281.008 193.244 281.426 193.321 281.771 193.475C282.117 193.629 282.404 193.834 282.632 194.091C282.861 194.343 283.041 194.628 283.171 194.945C283.302 195.258 283.393 195.577 283.444 195.904C283.5 196.226 283.528 196.532 283.528 196.821V201H282.268ZM276.878 201V193.44H277.998V195.463H278.138V201H276.878ZM288.248 201.21C287.543 201.21 286.939 201.035 286.435 200.685C285.931 200.33 285.541 199.852 285.266 199.25C284.995 198.648 284.86 197.969 284.86 197.213C284.86 196.457 284.995 195.778 285.266 195.176C285.541 194.574 285.931 194.1 286.435 193.755C286.939 193.405 287.541 193.23 288.241 193.23C288.955 193.23 289.554 193.403 290.04 193.748C290.525 194.093 290.891 194.567 291.139 195.169C291.391 195.771 291.517 196.452 291.517 197.213C291.517 197.964 291.391 198.643 291.139 199.25C290.891 199.852 290.525 200.33 290.04 200.685C289.554 201.035 288.957 201.21 288.248 201.21ZM288.402 200.069C288.91 200.069 289.328 199.948 289.655 199.705C289.981 199.458 290.222 199.119 290.376 198.69C290.534 198.256 290.614 197.764 290.614 197.213C290.614 196.653 290.534 196.161 290.376 195.736C290.222 195.307 289.984 194.973 289.662 194.735C289.34 194.492 288.931 194.371 288.437 194.371C287.923 194.371 287.499 194.497 287.163 194.749C286.831 195.001 286.584 195.342 286.421 195.771C286.262 196.2 286.183 196.681 286.183 197.213C286.183 197.75 286.264 198.235 286.428 198.669C286.591 199.098 286.836 199.439 287.163 199.691C287.494 199.943 287.907 200.069 288.402 200.069ZM290.614 201V195.435H290.474V190.92H291.727V201H290.614ZM296.544 201.203C295.643 201.203 294.904 201.007 294.325 200.615C293.751 200.218 293.399 199.665 293.268 198.956L294.542 198.753C294.645 199.164 294.88 199.49 295.249 199.733C295.618 199.971 296.075 200.09 296.621 200.09C297.139 200.09 297.545 199.983 297.839 199.768C298.133 199.553 298.28 199.262 298.28 198.893C298.28 198.678 298.231 198.506 298.133 198.375C298.035 198.24 297.832 198.114 297.524 197.997C297.221 197.88 296.761 197.74 296.145 197.577C295.478 197.4 294.953 197.215 294.57 197.024C294.187 196.833 293.914 196.611 293.751 196.359C293.588 196.107 293.506 195.801 293.506 195.442C293.506 194.999 293.627 194.611 293.87 194.28C294.113 193.944 294.451 193.685 294.885 193.503C295.324 193.321 295.832 193.23 296.411 193.23C296.985 193.23 297.498 193.321 297.951 193.503C298.404 193.685 298.768 193.944 299.043 194.28C299.323 194.611 299.489 194.999 299.54 195.442L298.266 195.673C298.205 195.267 298.009 194.947 297.678 194.714C297.351 194.481 296.929 194.357 296.411 194.343C295.921 194.324 295.522 194.411 295.214 194.602C294.911 194.793 294.759 195.052 294.759 195.379C294.759 195.561 294.815 195.717 294.927 195.848C295.044 195.979 295.256 196.102 295.564 196.219C295.877 196.336 296.329 196.469 296.922 196.618C297.589 196.786 298.114 196.97 298.497 197.171C298.884 197.367 299.16 197.6 299.323 197.871C299.486 198.137 299.568 198.466 299.568 198.858C299.568 199.586 299.3 200.16 298.763 200.58C298.226 200.995 297.487 201.203 296.544 201.203ZM87.5802 215.21C87.0155 215.21 86.5418 215.107 86.1592 214.902C85.7812 214.692 85.4942 214.417 85.2982 214.076C85.1068 213.735 85.0112 213.362 85.0112 212.956C85.0112 212.559 85.0858 212.216 85.2352 211.927C85.3892 211.633 85.6038 211.39 85.8792 211.199C86.1545 211.003 86.4835 210.849 86.8662 210.737C87.2255 210.639 87.6268 210.555 88.0702 210.485C88.5182 210.41 88.9708 210.343 89.4282 210.282C89.8855 210.221 90.3125 210.163 90.7092 210.107L90.2612 210.366C90.2752 209.694 90.1398 209.197 89.8552 208.875C89.5752 208.553 89.0898 208.392 88.3992 208.392C87.9418 208.392 87.5405 208.497 87.1952 208.707C86.8545 208.912 86.6142 209.248 86.4742 209.715L85.2912 209.358C85.4732 208.695 85.8255 208.175 86.3482 207.797C86.8708 207.419 87.5592 207.23 88.4132 207.23C89.0992 207.23 89.6872 207.354 90.1772 207.601C90.6718 207.844 91.0265 208.212 91.2412 208.707C91.3485 208.94 91.4162 209.195 91.4442 209.47C91.4722 209.741 91.4862 210.025 91.4862 210.324V215H90.3802V213.187L90.6392 213.355C90.3545 213.966 89.9555 214.428 89.4422 214.741C88.9335 215.054 88.3128 215.21 87.5802 215.21ZM87.7692 214.167C88.2172 214.167 88.6045 214.088 88.9312 213.929C89.2625 213.766 89.5285 213.553 89.7292 213.292C89.9298 213.026 90.0605 212.737 90.1212 212.424C90.1912 212.191 90.2285 211.932 90.2332 211.647C90.2425 211.358 90.2472 211.136 90.2472 210.982L90.6812 211.171C90.2752 211.227 89.8762 211.281 89.4842 211.332C89.0922 211.383 88.7212 211.439 88.3712 211.5C88.0212 211.556 87.7062 211.624 87.4262 211.703C87.2208 211.768 87.0272 211.852 86.8452 211.955C86.6678 212.058 86.5232 212.191 86.4112 212.354C86.3038 212.513 86.2502 212.711 86.2502 212.949C86.2502 213.154 86.3015 213.35 86.4042 213.537C86.5115 213.724 86.6748 213.875 86.8942 213.992C87.1182 214.109 87.4098 214.167 87.7692 214.167ZM98.6892 215V211.213C98.6892 210.854 98.6565 210.508 98.5912 210.177C98.5305 209.846 98.4208 209.549 98.2622 209.288C98.1082 209.022 97.8982 208.812 97.6322 208.658C97.3708 208.504 97.0395 208.427 96.6382 208.427C96.3255 208.427 96.0408 208.481 95.7842 208.588C95.5322 208.691 95.3152 208.849 95.1332 209.064C94.9512 209.279 94.8088 209.549 94.7062 209.876C94.6082 210.198 94.5592 210.578 94.5592 211.017L93.7402 210.765C93.7402 210.032 93.8708 209.405 94.1322 208.882C94.3982 208.355 94.7692 207.951 95.2452 207.671C95.7258 207.386 96.2905 207.244 96.9392 207.244C97.4292 207.244 97.8468 207.321 98.1922 207.475C98.5375 207.629 98.8245 207.834 99.0532 208.091C99.2818 208.343 99.4615 208.628 99.5922 208.945C99.7228 209.258 99.8138 209.577 99.8652 209.904C99.9212 210.226 99.9492 210.532 99.9492 210.821V215H98.6892ZM93.2992 215V207.44H94.4192V209.463H94.5592V215H93.2992ZM104.669 215.21C103.964 215.21 103.36 215.035 102.856 214.685C102.352 214.33 101.962 213.852 101.687 213.25C101.416 212.648 101.281 211.969 101.281 211.213C101.281 210.457 101.416 209.778 101.687 209.176C101.962 208.574 102.352 208.1 102.856 207.755C103.36 207.405 103.962 207.23 104.662 207.23C105.376 207.23 105.975 207.403 106.461 207.748C106.946 208.093 107.312 208.567 107.56 209.169C107.812 209.771 107.938 210.452 107.938 211.213C107.938 211.964 107.812 212.643 107.56 213.25C107.312 213.852 106.946 214.33 106.461 214.685C105.975 215.035 105.378 215.21 104.669 215.21ZM104.823 214.069C105.331 214.069 105.749 213.948 106.076 213.705C106.402 213.458 106.643 213.119 106.797 212.69C106.955 212.256 107.035 211.764 107.035 211.213C107.035 210.653 106.955 210.161 106.797 209.736C106.643 209.307 106.405 208.973 106.083 208.735C105.761 208.492 105.352 208.371 104.858 208.371C104.344 208.371 103.92 208.497 103.584 208.749C103.252 209.001 103.005 209.342 102.842 209.771C102.683 210.2 102.604 210.681 102.604 211.213C102.604 211.75 102.685 212.235 102.849 212.669C103.012 213.098 103.257 213.439 103.584 213.691C103.915 213.943 104.328 214.069 104.823 214.069ZM107.035 215V209.435H106.895V204.92H108.148V215H107.035ZM116.188 215.21C115.446 215.21 114.797 215.047 114.242 214.72C113.691 214.389 113.262 213.929 112.954 213.341C112.646 212.748 112.492 212.058 112.492 211.269C112.492 210.443 112.643 209.729 112.947 209.127C113.25 208.52 113.672 208.054 114.214 207.727C114.76 207.396 115.399 207.23 116.132 207.23C116.892 207.23 117.539 207.405 118.071 207.755C118.607 208.105 119.009 208.604 119.275 209.253C119.545 209.902 119.662 210.674 119.625 211.57H118.365V211.122C118.351 210.193 118.162 209.5 117.798 209.043C117.434 208.581 116.892 208.35 116.174 208.35C115.404 208.35 114.818 208.597 114.417 209.092C114.015 209.587 113.815 210.296 113.815 211.22C113.815 212.111 114.015 212.802 114.417 213.292C114.818 213.782 115.39 214.027 116.132 214.027C116.631 214.027 117.065 213.913 117.434 213.684C117.802 213.455 118.092 213.126 118.302 212.697L119.499 213.11C119.205 213.777 118.761 214.295 118.169 214.664C117.581 215.028 116.92 215.21 116.188 215.21ZM113.395 211.57V210.569H118.981V211.57H113.395ZM123.195 215.21C122.631 215.21 122.157 215.107 121.774 214.902C121.396 214.692 121.109 214.417 120.913 214.076C120.722 213.735 120.626 213.362 120.626 212.956C120.626 212.559 120.701 212.216 120.85 211.927C121.004 211.633 121.219 211.39 121.494 211.199C121.77 211.003 122.099 210.849 122.481 210.737C122.841 210.639 123.242 210.555 123.685 210.485C124.133 210.41 124.586 210.343 125.043 210.282C125.501 210.221 125.928 210.163 126.324 210.107L125.876 210.366C125.89 209.694 125.755 209.197 125.47 208.875C125.19 208.553 124.705 208.392 124.014 208.392C123.557 208.392 123.156 208.497 122.81 208.707C122.47 208.912 122.229 209.248 122.089 209.715L120.906 209.358C121.088 208.695 121.441 208.175 121.963 207.797C122.486 207.419 123.174 207.23 124.028 207.23C124.714 207.23 125.302 207.354 125.792 207.601C126.287 207.844 126.642 208.212 126.856 208.707C126.964 208.94 127.031 209.195 127.059 209.47C127.087 209.741 127.101 210.025 127.101 210.324V215H125.995V213.187L126.254 213.355C125.97 213.966 125.571 214.428 125.057 214.741C124.549 215.054 123.928 215.21 123.195 215.21ZM123.384 214.167C123.832 214.167 124.22 214.088 124.546 213.929C124.878 213.766 125.144 213.553 125.344 213.292C125.545 213.026 125.676 212.737 125.736 212.424C125.806 212.191 125.844 211.932 125.848 211.647C125.858 211.358 125.862 211.136 125.862 210.982L126.296 211.171C125.89 211.227 125.491 211.281 125.099 211.332C124.707 211.383 124.336 211.439 123.986 211.5C123.636 211.556 123.321 211.624 123.041 211.703C122.836 211.768 122.642 211.852 122.46 211.955C122.283 212.058 122.138 212.191 122.026 212.354C121.919 212.513 121.865 212.711 121.865 212.949C121.865 213.154 121.917 213.35 122.019 213.537C122.127 213.724 122.29 213.875 122.509 213.992C122.733 214.109 123.025 214.167 123.384 214.167ZM131.777 215.203C130.877 215.203 130.137 215.007 129.558 214.615C128.984 214.218 128.632 213.665 128.501 212.956L129.775 212.753C129.878 213.164 130.114 213.49 130.482 213.733C130.851 213.971 131.308 214.09 131.854 214.09C132.372 214.09 132.778 213.983 133.072 213.768C133.366 213.553 133.513 213.262 133.513 212.893C133.513 212.678 133.464 212.506 133.366 212.375C133.268 212.24 133.065 212.114 132.757 211.997C132.454 211.88 131.994 211.74 131.378 211.577C130.711 211.4 130.186 211.215 129.803 211.024C129.421 210.833 129.148 210.611 128.984 210.359C128.821 210.107 128.739 209.801 128.739 209.442C128.739 208.999 128.861 208.611 129.103 208.28C129.346 207.944 129.684 207.685 130.118 207.503C130.557 207.321 131.066 207.23 131.644 207.23C132.218 207.23 132.732 207.321 133.184 207.503C133.637 207.685 134.001 207.944 134.276 208.28C134.556 208.611 134.722 208.999 134.773 209.442L133.499 209.673C133.439 209.267 133.243 208.947 132.911 208.714C132.585 208.481 132.162 208.357 131.644 208.343C131.154 208.324 130.755 208.411 130.447 208.602C130.144 208.793 129.992 209.052 129.992 209.379C129.992 209.561 130.048 209.717 130.16 209.848C130.277 209.979 130.489 210.102 130.797 210.219C131.11 210.336 131.563 210.469 132.155 210.618C132.823 210.786 133.348 210.97 133.73 211.171C134.118 211.367 134.393 211.6 134.556 211.871C134.72 212.137 134.801 212.466 134.801 212.858C134.801 213.586 134.533 214.16 133.996 214.58C133.46 214.995 132.72 215.203 131.777 215.203ZM136.485 206.103V204.815H137.731V206.103H136.485ZM136.485 215V207.44H137.731V215H136.485ZM139.972 215V204.71H141.218V215H139.972ZM144.368 218.36L145.831 214.384L145.852 215.56L142.548 207.44H143.857L146.447 213.971H145.999L148.428 207.44H149.695L145.579 218.36H144.368ZM156.51 215.203C155.609 215.203 154.869 215.007 154.291 214.615C153.717 214.218 153.364 213.665 153.234 212.956L154.508 212.753C154.61 213.164 154.846 213.49 155.215 213.733C155.583 213.971 156.041 214.09 156.587 214.09C157.105 214.09 157.511 213.983 157.805 213.768C158.099 213.553 158.246 213.262 158.246 212.893C158.246 212.678 158.197 212.506 158.099 212.375C158.001 212.24 157.798 212.114 157.49 211.997C157.186 211.88 156.727 211.74 156.111 211.577C155.443 211.4 154.918 211.215 154.536 211.024C154.153 210.833 153.88 210.611 153.717 210.359C153.553 210.107 153.472 209.801 153.472 209.442C153.472 208.999 153.593 208.611 153.836 208.28C154.078 207.944 154.417 207.685 154.851 207.503C155.289 207.321 155.798 207.23 156.377 207.23C156.951 207.23 157.464 207.321 157.917 207.503C158.369 207.685 158.733 207.944 159.009 208.28C159.289 208.611 159.454 208.999 159.506 209.442L158.232 209.673C158.171 209.267 157.975 208.947 157.644 208.714C157.317 208.481 156.895 208.357 156.377 208.343C155.887 208.324 155.488 208.411 155.18 208.602C154.876 208.793 154.725 209.052 154.725 209.379C154.725 209.561 154.781 209.717 154.893 209.848C155.009 209.979 155.222 210.102 155.53 210.219C155.842 210.336 156.295 210.469 156.888 210.618C157.555 210.786 158.08 210.97 158.463 211.171C158.85 211.367 159.125 211.6 159.289 211.871C159.452 212.137 159.534 212.466 159.534 212.858C159.534 213.586 159.265 214.16 158.729 214.58C158.192 214.995 157.452 215.203 156.51 215.203ZM161.854 218.36L163.317 214.384L163.338 215.56L160.034 207.44H161.343L163.933 213.971H163.485L165.914 207.44H167.181L163.065 218.36H161.854ZM173.72 215V211.213C173.72 210.854 173.688 210.508 173.622 210.177C173.562 209.846 173.452 209.549 173.293 209.288C173.139 209.022 172.929 208.812 172.663 208.658C172.402 208.504 172.071 208.427 171.669 208.427C171.357 208.427 171.072 208.481 170.815 208.588C170.563 208.691 170.346 208.849 170.164 209.064C169.982 209.279 169.84 209.549 169.737 209.876C169.639 210.198 169.59 210.578 169.59 211.017L168.771 210.765C168.771 210.032 168.902 209.405 169.163 208.882C169.429 208.355 169.8 207.951 170.276 207.671C170.757 207.386 171.322 207.244 171.97 207.244C172.46 207.244 172.878 207.321 173.223 207.475C173.569 207.629 173.856 207.834 174.084 208.091C174.313 208.343 174.493 208.628 174.623 208.945C174.754 209.258 174.845 209.577 174.896 209.904C174.952 210.226 174.98 210.532 174.98 210.821V215H173.72ZM168.33 215V207.44H169.45V209.463H169.59V215H168.33ZM179.917 215.21C179.152 215.21 178.501 215.04 177.964 214.699C177.432 214.354 177.026 213.88 176.746 213.278C176.466 212.676 176.321 211.99 176.312 211.22C176.321 210.431 176.468 209.738 176.753 209.141C177.042 208.539 177.455 208.07 177.992 207.734C178.529 207.398 179.175 207.23 179.931 207.23C180.729 207.23 181.415 207.426 181.989 207.818C182.568 208.21 182.955 208.747 183.151 209.428L181.919 209.799C181.76 209.36 181.501 209.02 181.142 208.777C180.787 208.534 180.379 208.413 179.917 208.413C179.399 208.413 178.972 208.534 178.636 208.777C178.3 209.015 178.05 209.346 177.887 209.771C177.724 210.191 177.64 210.674 177.635 211.22C177.644 212.06 177.838 212.739 178.216 213.257C178.599 213.77 179.166 214.027 179.917 214.027C180.412 214.027 180.822 213.915 181.149 213.691C181.476 213.462 181.723 213.133 181.891 212.704L183.151 213.033C182.89 213.738 182.481 214.277 181.926 214.65C181.371 215.023 180.701 215.21 179.917 215.21ZM188.432 218.36L189.895 214.384L189.916 215.56L186.612 207.44H187.921L190.511 213.971H190.063L192.492 207.44H193.759L189.643 218.36H188.432ZM197.862 215.21C197.111 215.21 196.462 215.04 195.916 214.699C195.375 214.358 194.957 213.887 194.663 213.285C194.369 212.683 194.222 211.992 194.222 211.213C194.222 210.42 194.371 209.724 194.67 209.127C194.969 208.53 195.391 208.065 195.937 207.734C196.483 207.398 197.125 207.23 197.862 207.23C198.618 207.23 199.269 207.4 199.815 207.741C200.361 208.077 200.779 208.546 201.068 209.148C201.362 209.745 201.509 210.434 201.509 211.213C201.509 212.002 201.362 212.697 201.068 213.299C200.774 213.896 200.354 214.365 199.808 214.706C199.262 215.042 198.613 215.21 197.862 215.21ZM197.862 214.027C198.646 214.027 199.229 213.766 199.612 213.243C199.995 212.72 200.186 212.044 200.186 211.213C200.186 210.359 199.992 209.68 199.605 209.176C199.218 208.667 198.637 208.413 197.862 208.413C197.335 208.413 196.901 208.532 196.56 208.77C196.219 209.008 195.965 209.337 195.797 209.757C195.629 210.177 195.545 210.662 195.545 211.213C195.545 212.062 195.741 212.744 196.133 213.257C196.525 213.77 197.101 214.027 197.862 214.027ZM205.92 215.196C205.435 215.196 205.017 215.119 204.667 214.965C204.322 214.811 204.035 214.606 203.806 214.349C203.578 214.092 203.398 213.808 203.267 213.495C203.137 213.182 203.043 212.863 202.987 212.536C202.936 212.209 202.91 211.904 202.91 211.619V207.44H204.17V211.227C204.17 211.582 204.203 211.925 204.268 212.256C204.334 212.587 204.443 212.886 204.597 213.152C204.756 213.418 204.966 213.628 205.227 213.782C205.493 213.936 205.825 214.013 206.221 214.013C206.534 214.013 206.819 213.959 207.075 213.852C207.332 213.745 207.551 213.586 207.733 213.376C207.915 213.161 208.055 212.891 208.153 212.564C208.251 212.237 208.3 211.857 208.3 211.423L209.119 211.675C209.119 212.403 208.986 213.031 208.72 213.558C208.459 214.085 208.088 214.491 207.607 214.776C207.131 215.056 206.569 215.196 205.92 215.196ZM208.44 215V212.977H208.3V207.44H209.553V215H208.44ZM211.513 215V207.44H212.626V209.267L212.444 209.029C212.533 208.796 212.647 208.581 212.787 208.385C212.932 208.189 213.093 208.028 213.27 207.902C213.466 207.743 213.688 207.622 213.935 207.538C214.183 207.454 214.435 207.405 214.691 207.391C214.948 207.372 215.188 207.389 215.412 207.44V208.609C215.151 208.539 214.864 208.52 214.551 208.553C214.239 208.586 213.949 208.7 213.683 208.896C213.441 209.069 213.252 209.279 213.116 209.526C212.986 209.773 212.895 210.042 212.843 210.331C212.792 210.616 212.766 210.907 212.766 211.206V215H211.513ZM222.759 215.21C222.007 215.21 221.359 215.04 220.813 214.699C220.271 214.358 219.854 213.887 219.56 213.285C219.266 212.683 219.119 211.992 219.119 211.213C219.119 210.42 219.268 209.724 219.567 209.127C219.865 208.53 220.288 208.065 220.834 207.734C221.38 207.398 222.021 207.23 222.759 207.23C223.515 207.23 224.166 207.4 224.712 207.741C225.258 208.077 225.675 208.546 225.965 209.148C226.259 209.745 226.406 210.434 226.406 211.213C226.406 212.002 226.259 212.697 225.965 213.299C225.671 213.896 225.251 214.365 224.705 214.706C224.159 215.042 223.51 215.21 222.759 215.21ZM222.759 214.027C223.543 214.027 224.126 213.766 224.509 213.243C224.891 212.72 225.083 212.044 225.083 211.213C225.083 210.359 224.889 209.68 224.502 209.176C224.114 208.667 223.533 208.413 222.759 208.413C222.231 208.413 221.797 208.532 221.457 208.77C221.116 209.008 220.862 209.337 220.694 209.757C220.526 210.177 220.442 210.662 220.442 211.213C220.442 212.062 220.638 212.744 221.03 213.257C221.422 213.77 221.998 214.027 222.759 214.027ZM233.33 215V211.213C233.33 210.854 233.297 210.508 233.232 210.177C233.171 209.846 233.061 209.549 232.903 209.288C232.749 209.022 232.539 208.812 232.273 208.658C232.011 208.504 231.68 208.427 231.279 208.427C230.966 208.427 230.681 208.481 230.425 208.588C230.173 208.691 229.956 208.849 229.774 209.064C229.592 209.279 229.449 209.549 229.347 209.876C229.249 210.198 229.2 210.578 229.2 211.017L228.381 210.765C228.381 210.032 228.511 209.405 228.773 208.882C229.039 208.355 229.41 207.951 229.886 207.671C230.366 207.386 230.931 207.244 231.58 207.244C232.07 207.244 232.487 207.321 232.833 207.475C233.178 207.629 233.465 207.834 233.694 208.091C233.922 208.343 234.102 208.628 234.233 208.945C234.363 209.258 234.454 209.577 234.506 209.904C234.562 210.226 234.59 210.532 234.59 210.821V215H233.33ZM227.94 215V207.44H229.06V209.463H229.2V215H227.94ZM236.55 215V204.71H237.796V215H236.55ZM240.036 206.103V204.815H241.282V206.103H240.036ZM240.036 215V207.44H241.282V215H240.036ZM248.765 215V211.213C248.765 210.854 248.733 210.508 248.667 210.177C248.607 209.846 248.497 209.549 248.338 209.288C248.184 209.022 247.974 208.812 247.708 208.658C247.447 208.504 247.116 208.427 246.714 208.427C246.402 208.427 246.117 208.481 245.86 208.588C245.608 208.691 245.391 208.849 245.209 209.064C245.027 209.279 244.885 209.549 244.782 209.876C244.684 210.198 244.635 210.578 244.635 211.017L243.816 210.765C243.816 210.032 243.947 209.405 244.208 208.882C244.474 208.355 244.845 207.951 245.321 207.671C245.802 207.386 246.367 207.244 247.015 207.244C247.505 207.244 247.923 207.321 248.268 207.475C248.614 207.629 248.901 207.834 249.129 208.091C249.358 208.343 249.538 208.628 249.668 208.945C249.799 209.258 249.89 209.577 249.941 209.904C249.997 210.226 250.025 210.532 250.025 210.821V215H248.765ZM243.375 215V207.44H244.495V209.463H244.635V215H243.375ZM255.053 215.21C254.311 215.21 253.662 215.047 253.107 214.72C252.556 214.389 252.127 213.929 251.819 213.341C251.511 212.748 251.357 212.058 251.357 211.269C251.357 210.443 251.509 209.729 251.812 209.127C252.115 208.52 252.538 208.054 253.079 207.727C253.625 207.396 254.264 207.23 254.997 207.23C255.758 207.23 256.404 207.405 256.936 207.755C257.473 208.105 257.874 208.604 258.14 209.253C258.411 209.902 258.527 210.674 258.49 211.57H257.23V211.122C257.216 210.193 257.027 209.5 256.663 209.043C256.299 208.581 255.758 208.35 255.039 208.35C254.269 208.35 253.683 208.597 253.282 209.092C252.881 209.587 252.68 210.296 252.68 211.22C252.68 212.111 252.881 212.802 253.282 213.292C253.683 213.782 254.255 214.027 254.997 214.027C255.496 214.027 255.93 213.913 256.299 213.684C256.668 213.455 256.957 213.126 257.167 212.697L258.364 213.11C258.07 213.777 257.627 214.295 257.034 214.664C256.446 215.028 255.786 215.21 255.053 215.21ZM252.26 211.57V210.569H257.846V211.57H252.26ZM265 215.21C264.435 215.21 263.962 215.107 263.579 214.902C263.201 214.692 262.914 214.417 262.718 214.076C262.527 213.735 262.431 213.362 262.431 212.956C262.431 212.559 262.506 212.216 262.655 211.927C262.809 211.633 263.024 211.39 263.299 211.199C263.574 211.003 263.903 210.849 264.286 210.737C264.645 210.639 265.047 210.555 265.49 210.485C265.938 210.41 266.391 210.343 266.848 210.282C267.305 210.221 267.732 210.163 268.129 210.107L267.681 210.366C267.695 209.694 267.56 209.197 267.275 208.875C266.995 208.553 266.51 208.392 265.819 208.392C265.362 208.392 264.96 208.497 264.615 208.707C264.274 208.912 264.034 209.248 263.894 209.715L262.711 209.358C262.893 208.695 263.245 208.175 263.768 207.797C264.291 207.419 264.979 207.23 265.833 207.23C266.519 207.23 267.107 207.354 267.597 207.601C268.092 207.844 268.446 208.212 268.661 208.707C268.768 208.94 268.836 209.195 268.864 209.47C268.892 209.741 268.906 210.025 268.906 210.324V215H267.8V213.187L268.059 213.355C267.774 213.966 267.375 214.428 266.862 214.741C266.353 215.054 265.733 215.21 265 215.21ZM265.189 214.167C265.637 214.167 266.024 214.088 266.351 213.929C266.682 213.766 266.948 213.553 267.149 213.292C267.35 213.026 267.48 212.737 267.541 212.424C267.611 212.191 267.648 211.932 267.653 211.647C267.662 211.358 267.667 211.136 267.667 210.982L268.101 211.171C267.695 211.227 267.296 211.281 266.904 211.332C266.512 211.383 266.141 211.439 265.791 211.5C265.441 211.556 265.126 211.624 264.846 211.703C264.641 211.768 264.447 211.852 264.265 211.955C264.088 212.058 263.943 212.191 263.831 212.354C263.724 212.513 263.67 212.711 263.67 212.949C263.67 213.154 263.721 213.35 263.824 213.537C263.931 213.724 264.095 213.875 264.314 213.992C264.538 214.109 264.83 214.167 265.189 214.167ZM276.109 215V211.213C276.109 210.854 276.076 210.508 276.011 210.177C275.95 209.846 275.841 209.549 275.682 209.288C275.528 209.022 275.318 208.812 275.052 208.658C274.791 208.504 274.459 208.427 274.058 208.427C273.745 208.427 273.461 208.481 273.204 208.588C272.952 208.691 272.735 208.849 272.553 209.064C272.371 209.279 272.229 209.549 272.126 209.876C272.028 210.198 271.979 210.578 271.979 211.017L271.16 210.765C271.16 210.032 271.291 209.405 271.552 208.882C271.818 208.355 272.189 207.951 272.665 207.671C273.146 207.386 273.71 207.244 274.359 207.244C274.849 207.244 275.267 207.321 275.612 207.475C275.957 207.629 276.244 207.834 276.473 208.091C276.702 208.343 276.881 208.628 277.012 208.945C277.143 209.258 277.234 209.577 277.285 209.904C277.341 210.226 277.369 210.532 277.369 210.821V215H276.109ZM270.719 215V207.44H271.839V209.463H271.979V215H270.719ZM282.089 215.21C281.384 215.21 280.78 215.035 280.276 214.685C279.772 214.33 279.382 213.852 279.107 213.25C278.836 212.648 278.701 211.969 278.701 211.213C278.701 210.457 278.836 209.778 279.107 209.176C279.382 208.574 279.772 208.1 280.276 207.755C280.78 207.405 281.382 207.23 282.082 207.23C282.796 207.23 283.395 207.403 283.881 207.748C284.366 208.093 284.732 208.567 284.98 209.169C285.232 209.771 285.358 210.452 285.358 211.213C285.358 211.964 285.232 212.643 284.98 213.25C284.732 213.852 284.366 214.33 283.881 214.685C283.395 215.035 282.798 215.21 282.089 215.21ZM282.243 214.069C282.751 214.069 283.169 213.948 283.496 213.705C283.822 213.458 284.063 213.119 284.217 212.69C284.375 212.256 284.455 211.764 284.455 211.213C284.455 210.653 284.375 210.161 284.217 209.736C284.063 209.307 283.825 208.973 283.503 208.735C283.181 208.492 282.772 208.371 282.278 208.371C281.764 208.371 281.34 208.497 281.004 208.749C280.672 209.001 280.425 209.342 280.262 209.771C280.103 210.2 280.024 210.681 280.024 211.213C280.024 211.75 280.105 212.235 280.269 212.669C280.432 213.098 280.677 213.439 281.004 213.691C281.335 213.943 281.748 214.069 282.243 214.069ZM284.455 215V209.435H284.315V204.92H285.568V215H284.455ZM148.206 229.21C147.455 229.21 146.806 229.04 146.26 228.699C145.719 228.358 145.301 227.887 145.007 227.285C144.713 226.683 144.566 225.992 144.566 225.213C144.566 224.42 144.715 223.724 145.014 223.127C145.313 222.53 145.735 222.065 146.281 221.734C146.827 221.398 147.469 221.23 148.206 221.23C148.962 221.23 149.613 221.4 150.159 221.741C150.705 222.077 151.123 222.546 151.412 223.148C151.706 223.745 151.853 224.434 151.853 225.213C151.853 226.002 151.706 226.697 151.412 227.299C151.118 227.896 150.698 228.365 150.152 228.706C149.606 229.042 148.957 229.21 148.206 229.21ZM148.206 228.027C148.99 228.027 149.573 227.766 149.956 227.243C150.339 226.72 150.53 226.044 150.53 225.213C150.53 224.359 150.336 223.68 149.949 223.176C149.562 222.667 148.981 222.413 148.206 222.413C147.679 222.413 147.245 222.532 146.904 222.77C146.563 223.008 146.309 223.337 146.141 223.757C145.973 224.177 145.889 224.662 145.889 225.213C145.889 226.062 146.085 226.744 146.477 227.257C146.869 227.77 147.445 228.027 148.206 228.027ZM161.612 222.469V221.44H163.642V222.469H161.612ZM158.56 229V221.027C158.56 220.831 158.569 220.633 158.588 220.432C158.607 220.227 158.649 220.028 158.714 219.837C158.779 219.641 158.887 219.461 159.036 219.298C159.209 219.107 159.398 218.971 159.603 218.892C159.808 218.808 160.016 218.757 160.226 218.738C160.441 218.719 160.644 218.71 160.835 218.71H161.794V219.746H160.905C160.536 219.746 160.261 219.837 160.079 220.019C159.897 220.196 159.806 220.467 159.806 220.831V229H158.56ZM157.279 222.469V221.44H161.794V222.469H157.279ZM163.537 229V218.71H164.783V229H163.537ZM154.115 229V221.027C154.115 220.831 154.124 220.633 154.143 220.432C154.162 220.227 154.204 220.028 154.269 219.837C154.334 219.641 154.442 219.461 154.591 219.298C154.764 219.107 154.953 218.971 155.158 218.892C155.363 218.808 155.571 218.757 155.781 218.738C155.996 218.719 156.199 218.71 156.39 218.71H157.349V219.746H156.46C156.091 219.746 155.816 219.837 155.634 220.019C155.452 220.196 155.361 220.467 155.361 220.831V229H154.115ZM152.834 222.469V221.44H157.349V222.469H152.834ZM167.028 220.103V218.815H168.274V220.103H167.028ZM167.028 229V221.44H168.274V229H167.028ZM175.758 229V225.213C175.758 224.854 175.725 224.508 175.66 224.177C175.599 223.846 175.489 223.549 175.331 223.288C175.177 223.022 174.967 222.812 174.701 222.658C174.439 222.504 174.108 222.427 173.707 222.427C173.394 222.427 173.109 222.481 172.853 222.588C172.601 222.691 172.384 222.849 172.202 223.064C172.02 223.279 171.877 223.549 171.775 223.876C171.677 224.198 171.628 224.578 171.628 225.017L170.809 224.765C170.809 224.032 170.939 223.405 171.201 222.882C171.467 222.355 171.838 221.951 172.314 221.671C172.794 221.386 173.359 221.244 174.008 221.244C174.498 221.244 174.915 221.321 175.261 221.475C175.606 221.629 175.893 221.834 176.122 222.091C176.35 222.343 176.53 222.628 176.661 222.945C176.791 223.258 176.882 223.577 176.934 223.904C176.99 224.226 177.018 224.532 177.018 224.821V229H175.758ZM170.368 229V221.44H171.488V223.463H171.628V229H170.368ZM182.045 229.21C181.303 229.21 180.654 229.047 180.099 228.72C179.548 228.389 179.119 227.929 178.811 227.341C178.503 226.748 178.349 226.058 178.349 225.269C178.349 224.443 178.501 223.729 178.804 223.127C179.107 222.52 179.53 222.054 180.071 221.727C180.617 221.396 181.256 221.23 181.989 221.23C182.75 221.23 183.396 221.405 183.928 221.755C184.465 222.105 184.866 222.604 185.132 223.253C185.403 223.902 185.519 224.674 185.482 225.57H184.222V225.122C184.208 224.193 184.019 223.5 183.655 223.043C183.291 222.581 182.75 222.35 182.031 222.35C181.261 222.35 180.675 222.597 180.274 223.092C179.873 223.587 179.672 224.296 179.672 225.22C179.672 226.111 179.873 226.802 180.274 227.292C180.675 227.782 181.247 228.027 181.989 228.027C182.488 228.027 182.922 227.913 183.291 227.684C183.66 227.455 183.949 227.126 184.159 226.697L185.356 227.11C185.062 227.777 184.619 228.295 184.026 228.664C183.438 229.028 182.778 229.21 182.045 229.21ZM179.252 225.57V224.569H184.838V225.57H179.252ZM192.699 229.203C191.799 229.203 191.059 229.007 190.48 228.615C189.906 228.218 189.554 227.665 189.423 226.956L190.697 226.753C190.8 227.164 191.036 227.49 191.404 227.733C191.773 227.971 192.23 228.09 192.776 228.09C193.294 228.09 193.7 227.983 193.994 227.768C194.288 227.553 194.435 227.262 194.435 226.893C194.435 226.678 194.386 226.506 194.288 226.375C194.19 226.24 193.987 226.114 193.679 225.997C193.376 225.88 192.916 225.74 192.3 225.577C191.633 225.4 191.108 225.215 190.725 225.024C190.343 224.833 190.07 224.611 189.906 224.359C189.743 224.107 189.661 223.801 189.661 223.442C189.661 222.999 189.783 222.611 190.025 222.28C190.268 221.944 190.606 221.685 191.04 221.503C191.479 221.321 191.988 221.23 192.566 221.23C193.14 221.23 193.654 221.321 194.106 221.503C194.559 221.685 194.923 221.944 195.198 222.28C195.478 222.611 195.644 222.999 195.695 223.442L194.421 223.673C194.361 223.267 194.165 222.947 193.833 222.714C193.507 222.481 193.084 222.357 192.566 222.343C192.076 222.324 191.677 222.411 191.369 222.602C191.066 222.793 190.914 223.052 190.914 223.379C190.914 223.561 190.97 223.717 191.082 223.848C191.199 223.979 191.411 224.102 191.719 224.219C192.032 224.336 192.485 224.469 193.077 224.618C193.745 224.786 194.27 224.97 194.652 225.171C195.04 225.367 195.315 225.6 195.478 225.871C195.642 226.137 195.723 226.466 195.723 226.858C195.723 227.586 195.455 228.16 194.918 228.58C194.382 228.995 193.642 229.203 192.699 229.203ZM201.488 229C201.04 229.089 200.597 229.124 200.158 229.105C199.724 229.091 199.337 229.005 198.996 228.846C198.655 228.683 198.396 228.431 198.219 228.09C198.07 227.791 197.988 227.49 197.974 227.187C197.965 226.879 197.96 226.531 197.96 226.144V219.34H199.206V226.088C199.206 226.396 199.208 226.66 199.213 226.879C199.222 227.098 199.271 227.287 199.36 227.446C199.528 227.745 199.794 227.92 200.158 227.971C200.527 228.022 200.97 228.008 201.488 227.929V229ZM196.427 222.469V221.44H201.488V222.469H196.427ZM205.929 229.21C205.177 229.21 204.529 229.04 203.983 228.699C203.441 228.358 203.024 227.887 202.73 227.285C202.436 226.683 202.289 225.992 202.289 225.213C202.289 224.42 202.438 223.724 202.737 223.127C203.035 222.53 203.458 222.065 204.004 221.734C204.55 221.398 205.191 221.23 205.929 221.23C206.685 221.23 207.336 221.4 207.882 221.741C208.428 222.077 208.845 222.546 209.135 223.148C209.429 223.745 209.576 224.434 209.576 225.213C209.576 226.002 209.429 226.697 209.135 227.299C208.841 227.896 208.421 228.365 207.875 228.706C207.329 229.042 206.68 229.21 205.929 229.21ZM205.929 228.027C206.713 228.027 207.296 227.766 207.679 227.243C208.061 226.72 208.253 226.044 208.253 225.213C208.253 224.359 208.059 223.68 207.672 223.176C207.284 222.667 206.703 222.413 205.929 222.413C205.401 222.413 204.967 222.532 204.627 222.77C204.286 223.008 204.032 223.337 203.864 223.757C203.696 224.177 203.612 224.662 203.612 225.213C203.612 226.062 203.808 226.744 204.2 227.257C204.592 227.77 205.168 228.027 205.929 228.027ZM211.117 229V221.44H212.23V223.267L212.048 223.029C212.136 222.796 212.251 222.581 212.391 222.385C212.535 222.189 212.696 222.028 212.874 221.902C213.07 221.743 213.291 221.622 213.539 221.538C213.786 221.454 214.038 221.405 214.295 221.391C214.551 221.372 214.792 221.389 215.016 221.44V222.609C214.754 222.539 214.467 222.52 214.155 222.553C213.842 222.586 213.553 222.7 213.287 222.896C213.044 223.069 212.855 223.279 212.72 223.526C212.589 223.773 212.498 224.042 212.447 224.331C212.395 224.616 212.37 224.907 212.37 225.206V229H211.117ZM219.479 229.21C218.737 229.21 218.088 229.047 217.533 228.72C216.982 228.389 216.553 227.929 216.245 227.341C215.937 226.748 215.783 226.058 215.783 225.269C215.783 224.443 215.934 223.729 216.238 223.127C216.541 222.52 216.963 222.054 217.505 221.727C218.051 221.396 218.69 221.23 219.423 221.23C220.183 221.23 220.83 221.405 221.362 221.755C221.898 222.105 222.3 222.604 222.566 223.253C222.836 223.902 222.953 224.674 222.916 225.57H221.656V225.122C221.642 224.193 221.453 223.5 221.089 223.043C220.725 222.581 220.183 222.35 219.465 222.35C218.695 222.35 218.109 222.597 217.708 223.092C217.306 223.587 217.106 224.296 217.106 225.22C217.106 226.111 217.306 226.802 217.708 227.292C218.109 227.782 218.681 228.027 219.423 228.027C219.922 228.027 220.356 227.913 220.725 227.684C221.093 227.455 221.383 227.126 221.593 226.697L222.79 227.11C222.496 227.777 222.052 228.295 221.46 228.664C220.872 229.028 220.211 229.21 219.479 229.21ZM216.686 225.57V224.569H222.272V225.57H216.686ZM224.425 229V227.628H225.797V229H224.425Z" fill="#151515" fill-opacity="0.5"/>
<rect x="164" y="260" width="7" height="17" rx="3.5" fill="#151515"/>
<circle cx="180" cy="268.5" r="3" fill="#D9D9D9"/>
<circle cx="192" cy="268.5" r="3" fill="#D9D9D9"/>
<circle cx="204" cy="268.5" r="3" fill="#D9D9D9"/>
<rect opacity="0.01" width="371" height="34" fill="white"/>
<rect opacity="0.01" x="330.438" y="10.0454" width="26.712" height="15.4545" fill="white"/>
<path fill-rule="evenodd" clip-rule="evenodd" d="M351.708 13.5225H334.889C333.523 13.5225 332.416 14.3874 332.416 15.4543V20.477C332.416 21.5439 333.523 22.4088 334.889 22.4088H351.708C353.074 22.4088 354.181 21.5439 354.181 20.477V15.4543C354.181 14.3874 353.074 13.5225 351.708 13.5225ZM333.405 15.4543C333.405 14.8142 334.07 14.2952 334.889 14.2952H351.708C352.528 14.2952 353.192 14.8142 353.192 15.4543V20.4771C353.192 21.1172 352.528 21.6361 351.708 21.6361H334.889C334.07 21.6361 333.405 21.1172 333.405 20.4771V15.4543ZM356.407 17.7725C356.407 17.0574 355.91 16.4331 355.171 16.0991V19.4459C355.91 19.1118 356.407 18.4875 356.407 17.7725Z" fill="white"/>
<path fill-rule="evenodd" clip-rule="evenodd" d="M335.384 15.0679H351.213C351.76 15.0679 352.203 15.4138 352.203 15.8406V20.0906C352.203 20.5174 351.76 20.8633 351.213 20.8633H335.384C334.837 20.8633 334.395 20.5174 334.395 20.0906V15.8406C334.395 15.4138 334.837 15.0679 335.384 15.0679Z" fill="white"/>
<rect opacity="0.01" x="288.885" y="10.0454" width="19.7867" height="15.4545" fill="white"/>
<rect opacity="0.01" x="309.661" y="10.0454" width="19.7867" height="15.4545" fill="white"/>
<path fill-rule="evenodd" clip-rule="evenodd" d="M327.343 15.9942L327.336 15.8127C325.299 14.3888 322.682 13.6035 319.931 13.6035C317.173 13.6035 314.549 14.3932 312.509 15.8245L312.503 16.0058L313.709 16.9496L313.927 16.9551C315.587 15.8137 317.706 15.1856 319.931 15.1856C322.149 15.1856 324.261 15.8095 325.919 16.9438L326.137 16.9381L327.343 15.9942ZM324.692 17.8761L324.703 18.0599L323.493 19.0066L323.28 19.0159C322.33 18.4225 321.157 18.1 319.931 18.1C318.698 18.1 317.519 18.4265 316.565 19.0265L316.352 19.0175L315.143 18.0712L315.152 17.8876C316.487 17.0026 318.169 16.5178 319.931 16.5178C321.686 16.5178 323.36 16.9982 324.692 17.8761ZM320.028 21.7172H319.803L317.796 20.1468C317.726 20.0921 317.736 20.0012 317.816 19.9565C318.434 19.6154 319.168 19.4324 319.931 19.4324C320.686 19.4324 321.413 19.6115 322.027 19.9459C322.108 19.9904 322.119 20.0817 322.048 20.1367L320.028 21.7172Z" fill="white"/>
<path fill-rule="evenodd" clip-rule="evenodd" d="M305.243 13.7158C304.815 13.7158 304.467 14.0632 304.467 14.4918V21.0535C304.467 21.482 304.815 21.8295 305.243 21.8295H306.659C307.088 21.8295 307.435 21.482 307.435 21.0535V14.4918C307.435 14.0632 307.088 13.7158 306.659 13.7158H305.243ZM299.768 16.2305C299.768 15.802 300.115 15.4545 300.544 15.4545H301.96C302.388 15.4545 302.736 15.802 302.736 16.2305V21.0535C302.736 21.4821 302.388 21.8295 301.96 21.8295H300.544C300.115 21.8295 299.768 21.4821 299.768 21.0535V16.2305ZM295.844 17.3864C295.416 17.3864 295.068 17.7338 295.068 18.1624V21.0536C295.068 21.4821 295.416 21.8296 295.844 21.8296H297.26C297.689 21.8296 298.036 21.4821 298.036 21.0536V18.1624C298.036 17.7338 297.689 17.3864 297.26 17.3864H295.844ZM291.145 18.9317C290.717 18.9317 290.369 19.2792 290.369 19.7077V21.0535C290.369 21.482 290.717 21.8295 291.145 21.8295H292.561C292.99 21.8295 293.337 21.482 293.337 21.0535V19.7077C293.337 19.2792 292.99 18.9317 292.561 18.9317H291.145Z" fill="white"/>
<g clip-path="url(#clip1_1_6691)">
<path d="M69.5966 18.1935V17.8055H69.2086H65.6761L72.8797 15.3702L69.5966 21.2947V18.1935Z" stroke="white" stroke-width="0.776"/>
<path d="M30.3644 22C30.2868 22 30.2208 21.9767 30.1665 21.9302C30.12 21.8758 30.0967 21.8099 30.0967 21.7323V15.2139L28.1644 16.7038C28.1024 16.7504 28.0364 16.7698 27.9666 16.762C27.8967 16.7542 27.8385 16.7193 27.792 16.6572L27.4893 16.2731C27.4428 16.2033 27.4234 16.1334 27.4311 16.0636C27.4466 15.9938 27.4854 15.9356 27.5475 15.889L30.085 13.9335C30.1394 13.8947 30.1898 13.8714 30.2364 13.8636C30.2829 13.8559 30.3334 13.852 30.3877 13.852H30.9813C31.0589 13.852 31.121 13.8792 31.1676 13.9335C31.2141 13.98 31.2374 14.0421 31.2374 14.1197V21.7323C31.2374 21.8099 31.2141 21.8758 31.1676 21.9302C31.121 21.9767 31.0589 22 30.9813 22H30.3644ZM32.7824 22C32.7048 22 32.6389 21.9767 32.5846 21.9302C32.538 21.8758 32.5147 21.8099 32.5147 21.7323V21.3598C32.5147 21.29 32.5341 21.2124 32.5729 21.127C32.6117 21.0416 32.6893 20.9485 32.8057 20.8476L35.2734 18.38C35.6692 18.0463 35.9796 17.763 36.2046 17.5302C36.4374 17.2897 36.6004 17.0608 36.6935 16.8435C36.7944 16.6262 36.8448 16.4012 36.8448 16.1684C36.8448 15.726 36.7206 15.3768 36.4723 15.1208C36.224 14.8569 35.8554 14.725 35.3665 14.725C35.0561 14.725 34.7884 14.791 34.5634 14.9229C34.3383 15.047 34.1598 15.2216 34.0279 15.4467C33.9038 15.664 33.8223 15.9123 33.7835 16.1916C33.768 16.2925 33.7253 16.3624 33.6554 16.4012C33.5934 16.44 33.5352 16.4594 33.4808 16.4594H32.8756C32.8057 16.4594 32.7475 16.44 32.701 16.4012C32.6544 16.3546 32.6311 16.3003 32.6311 16.2382C32.6389 15.9433 32.701 15.6484 32.8174 15.3536C32.9338 15.0509 33.1045 14.7793 33.3295 14.5388C33.5623 14.2982 33.8456 14.1042 34.1792 13.9568C34.5207 13.8016 34.9164 13.724 35.3665 13.724C35.9796 13.724 36.4801 13.8365 36.8681 14.0615C37.2638 14.2788 37.5548 14.5698 37.7411 14.9345C37.9273 15.2992 38.0204 15.6989 38.0204 16.1334C38.0204 16.4749 37.9622 16.7892 37.8458 17.0763C37.7294 17.3556 37.5587 17.6311 37.3337 17.9027C37.1164 18.1666 36.8448 18.4382 36.5189 18.7175L34.284 20.9873H37.9157C38.001 20.9873 38.067 21.0106 38.1136 21.0572C38.1679 21.1037 38.195 21.1697 38.195 21.255V21.7323C38.195 21.8099 38.1679 21.8758 38.1136 21.9302C38.067 21.9767 38.001 22 37.9157 22H32.7824ZM39.6607 17.926C39.5831 17.926 39.5171 17.9027 39.4628 17.8562C39.4162 17.8018 39.393 17.7359 39.393 17.6583V16.8435C39.393 16.7659 39.4162 16.7038 39.4628 16.6572C39.5171 16.6029 39.5831 16.5758 39.6607 16.5758H40.4871C40.5725 16.5758 40.6384 16.6029 40.685 16.6572C40.7393 16.7038 40.7665 16.7659 40.7665 16.8435V17.6583C40.7665 17.7359 40.7393 17.8018 40.685 17.8562C40.6384 17.9027 40.5725 17.926 40.4871 17.926H39.6607ZM39.6607 22C39.5831 22 39.5171 21.9767 39.4628 21.9302C39.4162 21.8758 39.393 21.8099 39.393 21.7323V20.9175C39.393 20.8399 39.4162 20.7778 39.4628 20.7312C39.5171 20.6769 39.5831 20.6498 39.6607 20.6498H40.4871C40.5725 20.6498 40.6384 20.6769 40.685 20.7312C40.7393 20.7778 40.7665 20.8399 40.7665 20.9175V21.7323C40.7665 21.8099 40.7393 21.8758 40.685 21.9302C40.6384 21.9767 40.5725 22 40.4871 22H39.6607ZM42.2198 22C42.1422 22 42.0763 21.9767 42.022 21.9302C41.9754 21.8758 41.9521 21.8099 41.9521 21.7323V21.3598C41.9521 21.29 41.9715 21.2124 42.0103 21.127C42.0491 21.0416 42.1267 20.9485 42.2431 20.8476L44.7108 18.38C45.1066 18.0463 45.417 17.763 45.642 17.5302C45.8748 17.2897 46.0378 17.0608 46.1309 16.8435C46.2318 16.6262 46.2822 16.4012 46.2822 16.1684C46.2822 15.726 46.158 15.3768 45.9097 15.1208C45.6614 14.8569 45.2928 14.725 44.8039 14.725C44.4935 14.725 44.2258 14.791 44.0008 14.9229C43.7757 15.047 43.5972 15.2216 43.4653 15.4467C43.3412 15.664 43.2597 15.9123 43.2209 16.1916C43.2054 16.2925 43.1627 16.3624 43.0928 16.4012C43.0308 16.44 42.9726 16.4594 42.9182 16.4594H42.313C42.2431 16.4594 42.1849 16.44 42.1384 16.4012C42.0918 16.3546 42.0685 16.3003 42.0685 16.2382C42.0763 15.9433 42.1384 15.6484 42.2548 15.3536C42.3712 15.0509 42.5419 14.7793 42.7669 14.5388C42.9997 14.2982 43.283 14.1042 43.6166 13.9568C43.9581 13.8016 44.3538 13.724 44.8039 13.724C45.417 13.724 45.9175 13.8365 46.3055 14.0615C46.7012 14.2788 46.9922 14.5698 47.1785 14.9345C47.3647 15.2992 47.4578 15.6989 47.4578 16.1334C47.4578 16.4749 47.3996 16.7892 47.2832 17.0763C47.1668 17.3556 46.9961 17.6311 46.7711 17.9027C46.5538 18.1666 46.2822 18.4382 45.9563 18.7175L43.7214 20.9873H47.3531C47.4384 20.9873 47.5044 21.0106 47.551 21.0572C47.6053 21.1037 47.6324 21.1697 47.6324 21.255V21.7323C47.6324 21.8099 47.6053 21.8758 47.551 21.9302C47.5044 21.9767 47.4384 22 47.3531 22H42.2198ZM48.8653 22C48.7877 22 48.7217 21.9767 48.6674 21.9302C48.6208 21.8758 48.5976 21.8099 48.5976 21.7323V21.3598C48.5976 21.29 48.617 21.2124 48.6558 21.127C48.6946 21.0416 48.7722 20.9485 48.8886 20.8476L51.3562 18.38C51.752 18.0463 52.0624 17.763 52.2874 17.5302C52.5202 17.2897 52.6832 17.0608 52.7763 16.8435C52.8772 16.6262 52.9276 16.4012 52.9276 16.1684C52.9276 15.726 52.8035 15.3768 52.5552 15.1208C52.3068 14.8569 51.9382 14.725 51.4494 14.725C51.139 14.725 50.8712 14.791 50.6462 14.9229C50.4212 15.047 50.2427 15.2216 50.1108 15.4467C49.9866 15.664 49.9051 15.9123 49.8663 16.1916C49.8508 16.2925 49.8081 16.3624 49.7383 16.4012C49.6762 16.44 49.618 16.4594 49.5637 16.4594H48.9584C48.8886 16.4594 48.8304 16.44 48.7838 16.4012C48.7372 16.3546 48.714 16.3003 48.714 16.2382C48.7217 15.9433 48.7838 15.6484 48.9002 15.3536C49.0166 15.0509 49.1873 14.7793 49.4124 14.5388C49.6452 14.2982 49.9284 14.1042 50.2621 13.9568C50.6035 13.8016 50.9993 13.724 51.4494 13.724C52.0624 13.724 52.5629 13.8365 52.9509 14.0615C53.3467 14.2788 53.6377 14.5698 53.8239 14.9345C54.0102 15.2992 54.1033 15.6989 54.1033 16.1334C54.1033 16.4749 54.0451 16.7892 53.9287 17.0763C53.8123 17.3556 53.6416 17.6311 53.4165 17.9027C53.1992 18.1666 52.9276 18.4382 52.6017 18.7175L50.3668 20.9873H53.9985C54.0839 20.9873 54.1498 21.0106 54.1964 21.0572C54.2507 21.1037 54.2779 21.1697 54.2779 21.255V21.7323C54.2779 21.8099 54.2507 21.8758 54.1964 21.9302C54.1498 21.9767 54.0839 22 53.9985 22H48.8653Z" fill="white"/>
</g>
</g>
<defs>
<clipPath id="clip0_1_6691">
<rect width="371" height="290" fill="white"/>
</clipPath>
<clipPath id="clip1_1_6691">
<rect width="56.392" height="15.4545" fill="white" transform="translate(20.7759 10.0454)"/>
</clipPath>
</defs>
</svg>
