<svg width="24" height="25" viewBox="0 0 24 25" fill="none" xmlns="http://www.w3.org/2000/svg">
<path d="M21 13.4219C18.2207 14.547 15.1827 15.1665 12 15.1665C8.8173 15.1665 5.7793 14.547 3 13.4219M16 6.1665V4.1665C16 3.06193 15.1046 2.1665 14 2.1665H10C8.89543 2.1665 8 3.06193 8 4.1665V6.1665M12 12.1665H12.01M5 20.1665H19C20.1046 20.1665 21 19.2711 21 18.1665V8.1665C21 7.06193 20.1046 6.1665 19 6.1665H5C3.89543 6.1665 3 7.06193 3 8.1665V18.1665C3 19.2711 3.89543 20.1665 5 20.1665Z" stroke="#054A49" stroke-width="2" stroke-linecap="round" stroke-linejoin="round"/>
</svg>
