<svg width="26" height="27" viewBox="0 0 26 27" fill="none" xmlns="http://www.w3.org/2000/svg">
<path fill-rule="evenodd" clip-rule="evenodd" d="M13 26.5C20.1797 26.5 26 20.6797 26 13.5C26 6.3203 20.1797 0.5 13 0.5C5.8203 0.5 0 6.3203 0 13.5C0 20.6797 5.8203 26.5 13 26.5ZM19.024 11.399C19.6587 10.7644 19.6587 9.73555 19.024 9.10095C18.3894 8.46635 17.3606 8.46635 16.726 9.10095L11.375 14.4519L9.27405 12.351C8.63945 11.7163 7.61055 11.7163 6.97595 12.351C6.34135 12.9856 6.34135 14.0144 6.97595 14.649L10.226 17.899C10.8606 18.5337 11.8894 18.5337 12.524 17.899L19.024 11.399Z" fill="white"/>
</svg>
