<svg width="80" height="80" viewBox="0 0 80 80" fill="none" xmlns="http://www.w3.org/2000/svg">
<g clip-path="url(#clip0_1_3181)">
<path d="M29.5938 63.6666C20.0571 62.8332 11.6438 59.2932 6.16042 53.8199C3.04042 50.6999 1.14708 47.3132 0.293751 43.3232C-0.099582 41.5099 -0.0962487 38.4966 0.293751 36.6666C1.48375 31.1199 5.07042 26.2666 10.7138 22.5666C23.5871 14.1232 43.3071 14.1666 56.0604 22.6666C57.7538 23.7932 58.8471 24.6899 60.3804 26.1999C62.3138 28.1099 63.6738 30.0066 65.1071 32.7999C65.1604 32.8999 65.4238 33.0332 65.6938 33.0866C66.5938 33.2732 67.8038 33.9799 68.7738 34.8866C69.5271 35.5866 70.1104 36.3532 71.5471 38.5299C72.9971 40.7232 79.5604 50.8532 79.9604 51.5166C80.1138 51.7766 79.8071 52.1899 79.4604 52.1899C79.2171 52.1899 79.0404 52.0232 78.6804 51.4566L74.9604 45.6832C68.6271 35.8766 68.2838 35.4232 66.5204 34.5399L65.5938 34.0732H62.8704C60.1504 34.0732 60.1471 34.0766 60.0804 34.3632C59.7204 35.9299 59.6538 36.3166 59.7338 36.3899C59.7838 36.4366 61.3271 37.3166 63.1671 38.3432L66.5071 40.2166L66.3004 40.6532C66.1838 40.8932 66.0538 41.0932 66.0071 41.0932C65.9604 41.0932 63.1471 39.5332 59.7571 37.6299C56.3638 35.7299 53.3904 34.1166 53.1504 34.0499C52.1838 33.7832 50.7038 34.8499 50.7038 35.8132C50.7038 36.7866 50.9938 37.0732 56.9504 41.9499C60.6671 44.9966 62.7938 46.8232 63.1171 47.2566C63.7104 48.0432 64.3071 49.2032 64.8604 50.6299C65.8271 53.1432 67.4038 54.5432 69.9871 55.1899L70.8371 55.4032L70.7671 55.8699C70.7473 56.0487 70.7059 56.2244 70.6438 56.3932C70.5338 56.5166 68.8204 55.9699 67.8304 55.4932C66.2804 54.7499 65.2138 53.6899 64.1671 51.8466C63.7113 51.9836 63.261 52.1382 62.8171 52.3099C61.5138 52.7832 61.4504 52.8232 60.2171 54.0266C54.9638 59.1532 47.4304 62.4299 38.3304 63.5432C36.8537 63.7266 31.1638 63.8066 29.5938 63.6666ZM38.6504 62.0899C42.8238 61.5366 46.0604 60.7099 49.4504 59.3232C53.0071 57.8666 56.3604 55.7732 58.7071 53.5466L59.6304 52.6666L57.3038 51.5566C54.8171 50.3666 54.5704 50.1699 54.2538 49.1066C54.0538 48.4399 54.2804 47.7232 54.9138 47.0366L55.4104 46.4999L54.3304 45.6799C53.4771 45.0299 53.2104 44.7466 53.0438 44.3132C52.9128 43.9762 52.8683 43.6117 52.9143 43.2531C52.9603 42.8944 53.0953 42.553 53.3071 42.2599L53.6338 41.7999L50.2238 41.1999C48.9228 40.9827 47.6269 40.7359 46.3371 40.4599C46.0537 40.3499 45.8004 40.1745 45.5976 39.948C45.3949 39.7215 45.2485 39.4503 45.1704 39.1566C45.0971 38.8499 46.7704 30.6899 47.1437 29.5232C47.2741 29.223 47.4689 28.9552 47.7143 28.7386C47.9597 28.522 48.2497 28.362 48.5638 28.2699C49.1271 28.1666 59.1804 29.9332 59.6804 30.2266C60.4738 30.6866 60.7238 31.4332 60.4738 32.5766L60.3671 33.0566H60.9238C61.2304 33.0566 61.9571 33.0166 62.5338 32.9732L63.5871 32.8899L63.0638 31.9232C61.4838 28.9832 58.6304 26.0299 55.1038 23.6832C53.4571 22.5899 49.9471 20.8599 47.8338 20.1032C44.5506 18.9655 41.1469 18.2116 37.6904 17.8566C35.7738 17.6566 30.7504 17.6566 28.8904 17.8599C24.4271 18.3466 20.3771 19.3566 16.8338 20.8666C8.63375 24.3632 3.11708 30.1532 1.70708 36.7566C1.34042 38.4799 1.30708 41.4999 1.64708 43.0699C2.39375 46.5366 4.02375 49.5399 6.67708 52.3366C12.0771 58.0266 20.3338 61.5232 30.2304 62.3166C31.5538 62.4199 37.3004 62.2666 38.6504 62.0899ZM36.8404 55.8766C36.3304 55.7299 35.8138 55.1199 35.7071 54.5432C35.6338 54.1632 35.7204 53.9032 36.2604 52.8566C38.4471 48.6232 39.3971 44.7332 39.3971 40.0066C39.3971 35.4399 38.5571 31.8899 36.4671 27.6299C36.0171 26.7166 35.6504 25.8666 35.6504 25.7466C35.6504 25.2932 36.0304 24.6366 36.4404 24.3799C37.0038 24.0232 37.9471 24.0899 38.4004 24.5132C38.5738 24.6799 39.0238 25.4166 39.4004 26.1599C40.8971 29.0932 41.9204 32.3166 42.4271 35.6699C42.7404 37.7466 42.8038 41.6799 42.5538 43.5799C42.1336 46.9469 41.1652 50.2224 39.6871 53.2766C38.7871 55.1266 38.2271 55.8899 37.7538 55.8899C37.6399 55.8927 37.5268 55.9095 37.4171 55.9399C37.2225 55.9592 37.0261 55.9376 36.8404 55.8766ZM30.7537 52.6932C29.9738 52.4632 29.4071 51.5032 29.6338 50.7832C29.6904 50.6099 30.0571 49.8066 30.4538 48.9999C32.1055 45.6999 32.8083 42.0059 32.4837 38.3299C32.2038 35.3766 31.6738 33.5132 30.3404 30.7866C29.4438 28.9566 29.4038 28.6732 29.9238 27.9399C30.4171 27.2399 31.6537 27.1232 32.3004 27.7199C32.7504 28.1332 34.1504 31.0532 34.6871 32.7066C36.4727 38.1883 36.1977 44.1331 33.9137 49.4266C32.7404 52.1799 31.9171 53.0299 30.7537 52.6932ZM24.4804 49.4632C24.2307 49.3421 24.0106 49.1676 23.8355 48.9523C23.6604 48.7369 23.5347 48.4858 23.4671 48.2166C23.3971 47.9032 23.5138 47.5566 24.0904 46.3932C26.1971 42.1266 26.2204 38.0132 24.1571 33.8432C23.2538 32.0099 23.2338 31.6466 24.0004 30.9232C24.3771 30.5666 24.5371 30.5032 25.0671 30.5032C25.9571 30.5032 26.4204 30.9532 27.2137 32.5866C28.4371 35.0999 28.9404 37.2799 28.9338 40.0732C28.9338 42.9399 28.4638 44.9132 27.1571 47.5632C26.4071 49.0799 26.0371 49.4799 25.2904 49.5832C25.0147 49.6078 24.7371 49.5667 24.4804 49.4632ZM18.6238 46.4566C18.1709 46.2169 17.829 45.8104 17.6704 45.3232C17.5271 44.8166 17.6438 44.4132 18.2204 43.4666C18.9604 42.2499 19.1338 41.5999 19.1338 40.0066C19.1338 38.4166 18.9604 37.7632 18.2204 36.5466C18.0011 36.1986 17.8136 35.8316 17.6604 35.4499C17.4238 34.6499 18.0904 33.6666 18.9871 33.4966C19.7471 33.3532 20.2704 33.6966 20.9704 34.7866C21.9621 36.3611 22.4884 38.184 22.4884 40.0449C22.4884 41.9057 21.9621 43.7287 20.9704 45.3032C20.2538 46.4099 19.4571 46.8032 18.6238 46.4566ZM62.2571 51.3666C62.9338 51.1232 63.5204 50.8966 63.5571 50.8566C63.5971 50.8199 63.4671 50.3866 63.2671 49.8932C62.8604 48.8866 62.9271 48.9099 61.4871 49.1866C59.9271 49.4866 59.0238 49.2199 57.3204 47.9666C56.8538 47.6232 56.3771 47.3432 56.2538 47.3432C56.1338 47.3432 55.8704 47.5199 55.6638 47.7399C55.2304 48.2066 55.1638 48.9399 55.5171 49.3732C55.8271 49.7499 60.1071 51.7866 60.6171 51.7966C60.8404 51.8032 61.5804 51.6099 62.2571 51.3666ZM61.5838 48.0899C62.2171 47.9632 62.2871 47.9199 62.1771 47.7166C62.0571 47.4899 56.1371 42.5766 55.6238 42.2766C55.2004 42.0299 54.8571 42.0866 54.5071 42.4632C53.4771 43.5632 53.5971 43.7966 56.2604 45.8399C59.4738 48.2999 59.8138 48.4466 61.5838 48.0899ZM53.6371 40.6532C53.6371 40.6199 52.9671 40.0432 52.1437 39.3699C50.1171 37.6999 49.6838 37.0766 49.6838 35.8432C49.6838 34.8099 50.3704 33.8166 51.4771 33.2432C52.131 32.9498 52.8642 32.8829 53.5604 33.0532C53.9538 33.1799 55.7204 34.1366 58.1704 35.5466L58.6871 35.8432L59.1138 33.8232C59.5471 31.7566 59.5571 31.2166 59.1538 31.0899C57.4068 30.7555 55.6567 30.4378 53.9038 30.1366C48.9938 29.2699 48.4571 29.2199 48.2304 29.5899C48.1071 29.7899 46.2404 38.4432 46.2404 38.8132C46.2404 38.9966 46.3338 39.2266 46.4471 39.3199C46.5604 39.4166 48.1538 39.7599 49.9871 40.0866C53.5271 40.7232 53.6371 40.7399 53.6371 40.6532Z" fill="#151515"/>
</g>
<defs>
<clipPath id="clip0_1_3181">
<rect width="80" height="80" fill="white"/>
</clipPath>
</defs>
</svg>
