<svg width="24" height="25" viewBox="0 0 24 25" fill="none" xmlns="http://www.w3.org/2000/svg">
<path d="M20.5 16.3335H8M8 16.3335V3.8335M8 16.3335L3.5 20.8335M3.5 8.3335H16M16 8.3335V20.8335M16 8.3335L20.5 3.8335M21 15.6708V4.1335C21 3.85347 21 3.71346 20.9455 3.6065C20.8976 3.51242 20.8211 3.43593 20.727 3.38799C20.62 3.3335 20.48 3.3335 20.2 3.3335H8.66274C8.41815 3.3335 8.29586 3.3335 8.18077 3.36113C8.07873 3.38562 7.98119 3.42603 7.89172 3.48086C7.7908 3.5427 7.70432 3.62917 7.53137 3.80212L3.46863 7.86487C3.29568 8.03782 3.2092 8.12429 3.14736 8.22521C3.09253 8.31468 3.05213 8.41223 3.02763 8.51426C3 8.62935 3 8.75165 3 8.99624V20.5335C3 20.8135 3 20.9535 3.0545 21.0605C3.10243 21.1546 3.17892 21.2311 3.273 21.279C3.37996 21.3335 3.51997 21.3335 3.8 21.3335H15.3373C15.5818 21.3335 15.7041 21.3335 15.8192 21.3059C15.9213 21.2814 16.0188 21.241 16.1083 21.1861C16.2092 21.1243 16.2957 21.0378 16.4686 20.8649L20.5314 16.8021C20.7043 16.6292 20.7908 16.5427 20.8526 16.4418C20.9075 16.3523 20.9479 16.2548 20.9724 16.1527C21 16.0376 21 15.9153 21 15.6708Z" stroke="#054A49" stroke-width="2" stroke-linecap="round" stroke-linejoin="round"/>
</svg>
