<svg width="24" height="25" viewBox="0 0 24 25" fill="none" xmlns="http://www.w3.org/2000/svg">
<path d="M12 3.33358V12.8336M12 12.8336L20.5 8.11129M12 12.8336L3.5 8.11129M12 12.8336V22.3336M20.5 17.5558L12.777 13.2653C12.4934 13.1077 12.3516 13.0289 12.2015 12.998C12.0685 12.9707 11.9315 12.9707 11.7986 12.998C11.6484 13.0289 11.5066 13.1077 11.223 13.2653L3.5 17.5558M21 16.8921V8.77503C21 8.43238 21 8.26106 20.9495 8.10826C20.9049 7.97309 20.8318 7.849 20.7354 7.74431C20.6263 7.62598 20.4766 7.54278 20.177 7.37637L12.777 3.26526C12.4934 3.1077 12.3516 3.02893 12.2015 2.99804C12.0685 2.97071 11.9315 2.97071 11.7986 2.99804C11.6484 3.02893 11.5066 3.10771 11.223 3.26526L3.82297 7.37638C3.52345 7.54278 3.37369 7.62598 3.26463 7.74432C3.16816 7.84901 3.09515 7.97309 3.05048 8.10826C3 8.26106 3 8.43238 3 8.77503V16.8921C3 17.2348 3 17.4061 3.05048 17.5589C3.09515 17.6941 3.16816 17.8182 3.26463 17.9228C3.37369 18.0412 3.52345 18.1244 3.82297 18.2908L11.223 22.4019C11.5066 22.5595 11.6484 22.6382 11.7986 22.6691C11.9315 22.6965 12.0685 22.6965 12.2015 22.6691C12.3516 22.6382 12.4934 22.5595 12.777 22.4019L20.177 18.2908C20.4766 18.1244 20.6263 18.0412 20.7354 17.9228C20.8318 17.8182 20.9049 17.6941 20.9495 17.5589C21 17.4061 21 17.2348 21 16.8921Z" stroke="#054A49" stroke-width="2" stroke-linecap="round" stroke-linejoin="round"/>
</svg>
