<svg width="15" height="14" viewBox="0 0 15 14" fill="none" xmlns="http://www.w3.org/2000/svg">
<path d="M1.50008 1L3.89285 3.39277M13.5001 13L11.1075 10.6075M8.74999 11.5497C8.34522 11.6265 7.92749 11.6667 7.50039 11.6667C4.51529 11.6667 1.98842 9.70473 1.13892 6.99998C1.37018 6.26367 1.72575 5.5824 2.18104 4.98079M6.08587 5.58579C6.4478 5.22386 6.9478 5 7.50008 5C8.60465 5 9.50008 5.89543 9.50008 7C9.50008 7.55228 9.27622 8.05229 8.9143 8.41421M6.08587 5.58579L8.9143 8.41421M6.08587 5.58579L3.89285 3.39277M8.9143 8.41421L3.89285 3.39277M8.9143 8.41421L11.1075 10.6075M3.89285 3.39277C4.93274 2.72236 6.17112 2.33333 7.50037 2.33333C10.4855 2.33333 13.0123 4.29528 13.8618 7.00002C13.3906 8.50048 12.4031 9.77234 11.1075 10.6075" stroke="#111827" stroke-opacity="0.7" stroke-width="2" stroke-linecap="round" stroke-linejoin="round"/>
</svg>
