<svg width="80" height="80" viewBox="0 0 80 80" fill="none" xmlns="http://www.w3.org/2000/svg">
<path d="M13.3333 59.9998C13.3333 56.4636 14.738 53.0722 17.2385 50.5717C19.739 48.0713 23.1304 46.6665 26.6666 46.6665H53.3333C56.8695 46.6665 60.2609 48.0713 62.7613 50.5717C65.2618 53.0722 66.6666 56.4636 66.6666 59.9998C66.6666 61.7679 65.9642 63.4636 64.714 64.7139C63.4637 65.9641 61.768 66.6665 59.9999 66.6665H19.9999C18.2318 66.6665 16.5361 65.9641 15.2859 64.7139C14.0356 63.4636 13.3333 61.7679 13.3333 59.9998Z" stroke="#151515" stroke-width="2" stroke-linejoin="round"/>
<path d="M40 33.3333C45.5228 33.3333 50 28.8561 50 23.3333C50 17.8104 45.5228 13.3333 40 13.3333C34.4772 13.3333 30 17.8104 30 23.3333C30 28.8561 34.4772 33.3333 40 33.3333Z" stroke="#151515" stroke-width="2"/>
</svg>
