<svg width="32" height="29" viewBox="0 0 32 29" fill="none" xmlns="http://www.w3.org/2000/svg">
<g filter="url(#filter0_d_1_6753)">
<mask id="mask0_1_6753" style="mask-type:alpha" maskUnits="userSpaceOnUse" x="4" y="0" width="24" height="25">
<rect x="4" y="0.666504" width="24" height="24" fill="#D9D9D9"/>
</mask>
<g mask="url(#mask0_1_6753)">
<path d="M16.5 12.6165C16.9833 12.0832 17.3542 11.4748 17.6125 10.7915C17.8708 10.1082 18 9.39984 18 8.6665C18 7.93317 17.8708 7.22484 17.6125 6.5415C17.3542 5.85817 16.9833 5.24984 16.5 4.7165C17.5 4.84984 18.3333 5.2915 19 6.0415C19.6667 6.7915 20 7.6665 20 8.6665C20 9.6665 19.6667 10.5415 19 11.2915C18.3333 12.0415 17.5 12.4832 16.5 12.6165ZM21.525 20.6665C21.675 20.5498 21.7917 20.404 21.875 20.229C21.9583 20.054 22 19.8582 22 19.6415V17.6665C22 17.0665 21.8667 16.4957 21.6 15.954C21.3333 15.4123 20.9833 14.9332 20.55 14.5165C21.4 14.8165 22.1875 15.204 22.9125 15.679C23.6375 16.154 24 16.8165 24 17.6665V19.6665C24 19.9498 23.9042 20.1873 23.7125 20.379C23.5208 20.5707 23.2833 20.6665 23 20.6665H21.525ZM25 13.6665C24.7167 13.6665 24.4792 13.5707 24.2875 13.379C24.0958 13.1873 24 12.9498 24 12.6665V11.6665H23C22.7167 11.6665 22.4792 11.5707 22.2875 11.379C22.0958 11.1873 22 10.9498 22 10.6665C22 10.3832 22.0958 10.1457 22.2875 9.954C22.4792 9.76234 22.7167 9.6665 23 9.6665H24V8.6665C24 8.38317 24.0958 8.14567 24.2875 7.954C24.4792 7.76234 24.7167 7.6665 25 7.6665C25.2833 7.6665 25.5208 7.76234 25.7125 7.954C25.9042 8.14567 26 8.38317 26 8.6665V9.6665H27C27.2833 9.6665 27.5208 9.76234 27.7125 9.954C27.9042 10.1457 28 10.3832 28 10.6665C28 10.9498 27.9042 11.1873 27.7125 11.379C27.5208 11.5707 27.2833 11.6665 27 11.6665H26V12.6665C26 12.9498 25.9042 13.1873 25.7125 13.379C25.5208 13.5707 25.2833 13.6665 25 13.6665ZM12 12.6665C10.9 12.6665 9.95833 12.2748 9.175 11.4915C8.39167 10.7082 8 9.7665 8 8.6665C8 7.5665 8.39167 6.62484 9.175 5.8415C9.95833 5.05817 10.9 4.6665 12 4.6665C13.1 4.6665 14.0417 5.05817 14.825 5.8415C15.6083 6.62484 16 7.5665 16 8.6665C16 9.7665 15.6083 10.7082 14.825 11.4915C14.0417 12.2748 13.1 12.6665 12 12.6665ZM5 20.6665C4.71667 20.6665 4.47917 20.5707 4.2875 20.379C4.09583 20.1873 4 19.9498 4 19.6665V17.8665C4 17.2998 4.14583 16.779 4.4375 16.304C4.72917 15.829 5.11667 15.4665 5.6 15.2165C6.63333 14.6998 7.68333 14.3123 8.75 14.054C9.81667 13.7957 10.9 13.6665 12 13.6665C13.1 13.6665 14.1833 13.7957 15.25 14.054C16.3167 14.3123 17.3667 14.6998 18.4 15.2165C18.8833 15.4665 19.2708 15.829 19.5625 16.304C19.8542 16.779 20 17.2998 20 17.8665V19.6665C20 19.9498 19.9042 20.1873 19.7125 20.379C19.5208 20.5707 19.2833 20.6665 19 20.6665H5ZM12 10.6665C12.55 10.6665 13.0208 10.4707 13.4125 10.079C13.8042 9.68734 14 9.2165 14 8.6665C14 8.1165 13.8042 7.64567 13.4125 7.254C13.0208 6.86234 12.55 6.6665 12 6.6665C11.45 6.6665 10.9792 6.86234 10.5875 7.254C10.1958 7.64567 10 8.1165 10 8.6665C10 9.2165 10.1958 9.68734 10.5875 10.079C10.9792 10.4707 11.45 10.6665 12 10.6665ZM6 18.6665H18V17.8665C18 17.6832 17.9542 17.5165 17.8625 17.3665C17.7708 17.2165 17.65 17.0998 17.5 17.0165C16.6 16.5665 15.6917 16.229 14.775 16.004C13.8583 15.779 12.9333 15.6665 12 15.6665C11.0667 15.6665 10.1417 15.779 9.225 16.004C8.30833 16.229 7.4 16.5665 6.5 17.0165C6.35 17.0998 6.22917 17.2165 6.1375 17.3665C6.04583 17.5165 6 17.6832 6 17.8665V18.6665Z" fill="#054A49"/>
</g>
</g>
<defs>
<filter id="filter0_d_1_6753" x="0" y="0.666504" width="32" height="32" filterUnits="userSpaceOnUse" color-interpolation-filters="sRGB">
<feFlood flood-opacity="0" result="BackgroundImageFix"/>
<feColorMatrix in="SourceAlpha" type="matrix" values="0 0 0 0 0 0 0 0 0 0 0 0 0 0 0 0 0 0 127 0" result="hardAlpha"/>
<feOffset dy="4"/>
<feGaussianBlur stdDeviation="2"/>
<feComposite in2="hardAlpha" operator="out"/>
<feColorMatrix type="matrix" values="0 0 0 0 0 0 0 0 0 0 0 0 0 0 0 0 0 0 0.25 0"/>
<feBlend mode="normal" in2="BackgroundImageFix" result="effect1_dropShadow_1_6753"/>
<feBlend mode="normal" in="SourceGraphic" in2="effect1_dropShadow_1_6753" result="shape"/>
</filter>
</defs>
</svg>
