<svg width="24" height="24" viewBox="0 0 24 24" fill="none" xmlns="http://www.w3.org/2000/svg">
<g clip-path="url(#clip0_1_6742)">
<path d="M18.6667 19.9998H10.6667V14.6665H9.33333V19.9998H5.33333V14.6665H4V19.9998C4 20.3535 4.14048 20.6926 4.39052 20.9426C4.64057 21.1927 4.97971 21.3332 5.33333 21.3332H18.6667C19.0203 21.3332 19.3594 21.1927 19.6095 20.9426C19.8595 20.6926 20 20.3535 20 19.9998V14.6665H18.6667V19.9998Z" fill="#054A49"/>
<path d="M22.5266 8.8465L19.8066 3.4065C19.6962 3.18436 19.526 2.99742 19.3152 2.86669C19.1044 2.73596 18.8613 2.66664 18.6133 2.6665H5.3866C5.13854 2.66664 4.89544 2.73596 4.68463 2.86669C4.47381 2.99742 4.30365 3.18436 4.19326 3.4065L1.47326 8.8465C1.38039 9.03283 1.33245 9.23832 1.33326 9.4465V11.4998C1.33265 11.8114 1.44115 12.1133 1.63993 12.3532C1.9337 12.6899 2.29653 12.9595 2.70375 13.1435C3.11097 13.3276 3.55305 13.4218 3.99993 13.4198C4.72911 13.421 5.43605 13.1688 5.99993 12.7065C6.5638 13.1691 7.27059 13.4219 7.99993 13.4219C8.72927 13.4219 9.43606 13.1691 9.99993 12.7065C10.5638 13.1691 11.2706 13.4219 11.9999 13.4219C12.7293 13.4219 13.4361 13.1691 13.9999 12.7065C14.5638 13.1691 15.2706 13.4219 15.9999 13.4219C16.7293 13.4219 17.4361 13.1691 17.9999 12.7065C18.6294 13.2233 19.4347 13.476 20.2465 13.4113C21.0584 13.3467 21.8135 12.9698 22.3533 12.3598C22.5544 12.1209 22.6653 11.8189 22.6666 11.5065V9.4465C22.6674 9.23832 22.6195 9.03283 22.5266 8.8465ZM19.9999 12.0865C19.7152 12.0858 19.4347 12.0171 19.1819 11.8861C18.9291 11.755 18.7113 11.5655 18.5466 11.3332L17.9999 10.5865L17.4599 11.3332C17.2921 11.5619 17.0728 11.7479 16.8197 11.8761C16.5667 12.0043 16.287 12.0711 16.0033 12.0711C15.7196 12.0711 15.4399 12.0043 15.1868 11.8761C14.9337 11.7479 14.7144 11.5619 14.5466 11.3332L13.9999 10.5865L13.4599 11.3332C13.2921 11.5619 13.0728 11.7479 12.8197 11.8761C12.5667 12.0043 12.287 12.0711 12.0033 12.0711C11.7196 12.0711 11.4399 12.0043 11.1868 11.8761C10.9337 11.7479 10.7144 11.5619 10.5466 11.3332L9.99993 10.5865L9.45993 11.3332C9.29211 11.5619 9.07279 11.7479 8.81972 11.8761C8.56665 12.0043 8.28695 12.0711 8.00326 12.0711C7.71957 12.0711 7.43987 12.0043 7.1868 11.8761C6.93373 11.7479 6.71441 11.5619 6.5466 11.3332L5.99993 10.5865L5.45326 11.3332C5.28858 11.5655 5.07075 11.755 4.81795 11.8861C4.56514 12.0171 4.28468 12.0858 3.99993 12.0865C3.74869 12.0896 3.4997 12.0388 3.26972 11.9376C3.03973 11.8364 2.83408 11.6871 2.6666 11.4998V9.4465L5.3866 3.99984H18.6133L21.3333 9.43984V11.4798C21.1668 11.6698 20.9618 11.8221 20.7319 11.9267C20.502 12.0313 20.2525 12.0858 19.9999 12.0865Z" fill="#054A49"/>
</g>
<defs>
<clipPath id="clip0_1_6742">
<rect width="24" height="24" fill="white"/>
</clipPath>
</defs>
</svg>
